{"glyphs":{"0":{"ha":715,"x_min":69,"x_max":711,"o":"m 69 301 q 128 649 69 483 q 282 902 186 816 q 489 989 377 989 q 654 916 597 989 q 711 703 711 844 q 659 340 711 505 q 511 80 606 176 q 296 -17 416 -17 q 128 61 187 -17 q 69 301 69 139 m 135 307 q 178 105 135 170 q 306 40 220 40 q 471 122 395 40 q 597 368 548 205 q 647 699 647 532 q 604 872 647 812 q 484 932 561 932 q 307 845 388 932 q 181 616 227 759 q 135 307 135 473 z "},"1":{"ha":567,"x_min":140,"x_max":475,"o":"m 395 902 l 140 825 l 153 892 l 475 989 l 266 0 l 203 0 l 395 902 z "},"2":{"ha":650,"x_min":-50,"x_max":659,"o":"m 594 770 q 546 887 594 843 q 414 932 497 932 q 180 850 318 932 l 195 925 q 304 970 241 952 q 420 989 367 989 q 595 931 531 989 q 659 773 659 873 q 632 629 659 684 q 545 522 606 574 q 358 389 484 469 q 143 245 195 286 q 66 163 92 203 q 26 57 41 123 l 509 57 l 498 0 l -50 0 l -41 45 q -13 150 -26 120 q 23 207 1 179 q 83 267 45 235 q 179 339 121 299 q 310 424 237 378 q 505 562 458 517 q 573 654 551 606 q 594 770 594 703 z "},"3":{"ha":715,"x_min":21,"x_max":673,"o":"m 37 103 q 142 57 83 74 q 252 40 201 40 q 454 101 382 40 q 526 277 526 163 q 281 473 526 473 l 211 473 l 225 534 l 289 534 q 528 594 448 534 q 608 770 608 654 q 564 889 608 846 q 440 932 519 932 q 239 872 347 932 l 250 940 q 446 989 348 989 q 613 932 553 989 q 673 775 673 876 q 607 598 673 671 q 424 503 541 524 l 424 500 q 546 426 500 485 q 591 282 591 367 q 497 63 591 144 q 244 -17 403 -17 q 134 -3 195 -17 q 21 35 73 10 l 37 103 z "},"4":{"ha":700,"x_min":12,"x_max":701,"o":"m 623 972 l 690 972 l 549 311 l 701 311 l 689 254 l 537 254 l 483 0 l 420 0 l 475 254 l 12 254 l 24 315 q 355 648 185 463 q 623 972 526 834 m 486 311 l 602 853 q 370 583 503 728 q 100 311 237 439 l 486 311 z "},"5":{"ha":639,"x_min":11,"x_max":650,"o":"m 25 82 q 112 52 60 63 q 208 40 164 40 q 422 115 345 40 q 500 318 500 190 q 277 517 500 517 q 125 509 214 517 l 247 972 l 650 972 l 637 911 l 293 911 l 201 570 l 288 574 q 492 509 419 574 q 566 328 566 445 q 468 76 566 168 q 203 -17 370 -17 q 11 16 91 -17 l 25 82 z "},"6":{"ha":715,"x_min":86,"x_max":724,"o":"m 158 453 q 266 568 199 528 q 410 607 332 607 q 585 537 519 607 q 650 350 650 468 q 609 161 650 245 q 495 30 568 77 q 338 -17 422 -17 q 152 73 218 -17 q 86 323 86 162 q 152 666 86 511 q 332 905 218 821 q 581 989 445 989 q 724 962 657 989 l 711 901 q 570 932 645 932 q 380 871 467 932 q 234 700 294 811 q 155 453 174 589 l 158 453 m 339 40 q 514 127 444 40 q 585 345 585 214 q 534 494 585 437 q 400 550 484 550 q 273 515 331 550 q 184 420 216 479 q 153 289 153 360 q 204 109 153 177 q 339 40 255 40 z "},"7":{"ha":640,"x_min":73,"x_max":726,"o":"m 73 0 q 195 274 130 151 q 353 535 260 396 q 626 911 446 675 l 115 911 l 127 972 l 726 972 l 720 942 q 399 502 491 638 q 252 255 307 365 q 142 0 196 145 l 73 0 z "},"8":{"ha":696,"x_min":34,"x_max":688,"o":"m 280 526 q 199 600 229 553 q 169 713 169 648 q 207 850 169 787 q 312 951 245 914 q 454 989 379 989 q 623 930 557 989 q 688 779 688 871 q 635 616 688 685 q 481 516 582 547 q 582 434 544 490 q 620 305 620 377 q 575 143 620 218 q 454 26 530 68 q 291 -16 377 -16 q 105 50 176 -16 q 34 227 34 115 q 99 416 34 336 q 280 526 164 496 m 99 229 q 154 91 99 142 q 296 40 208 40 q 422 75 363 40 q 516 171 481 110 q 551 304 551 232 q 500 438 551 388 q 366 488 449 488 q 231 454 293 488 q 134 359 169 419 q 99 229 99 300 m 235 711 q 278 592 235 638 q 392 547 321 547 q 504 578 450 547 q 589 662 557 609 q 621 773 621 715 q 573 887 621 843 q 451 932 525 932 q 345 902 395 932 q 265 820 295 872 q 235 711 235 768 z "},"9":{"ha":715,"x_min":45,"x_max":685,"o":"m 57 71 q 196 40 127 40 q 392 98 303 40 q 540 269 481 157 q 615 509 600 381 l 612 509 q 510 397 576 438 q 364 355 444 355 q 189 433 257 355 q 121 628 121 511 q 163 808 121 725 q 278 940 205 892 q 432 989 351 989 q 619 900 553 989 q 685 647 685 810 q 624 312 685 463 q 449 72 563 161 q 189 -17 336 -17 q 45 9 115 -17 l 57 71 m 371 412 q 548 489 476 412 q 619 676 619 566 q 570 865 619 799 q 432 932 521 932 q 258 844 331 932 q 186 633 186 756 q 238 474 186 536 q 371 412 290 412 z "},"\r":{"ha":0,"x_min":0,"x_max":0,"o":""}," ":{"ha":382,"x_min":0,"x_max":0,"o":""},"!":{"ha":364,"x_min":64,"x_max":345,"o":"m 272 972 l 345 972 l 189 273 l 131 273 l 272 972 m 64 43 q 79 82 64 66 q 118 97 95 97 q 157 82 141 97 q 174 43 174 66 q 157 4 174 20 q 118 -12 141 -12 q 79 4 95 -12 q 64 43 64 20 z "},"\"":{"ha":449,"x_min":195,"x_max":428,"o":"m 363 972 l 428 972 l 421 668 l 370 668 l 363 972 m 195 972 l 260 972 l 253 668 l 201 668 l 195 972 z "},"#":{"ha":839,"x_min":81,"x_max":822,"o":"m 272 354 l 81 354 l 93 407 l 283 407 l 335 642 l 136 642 l 149 694 l 346 694 l 406 972 l 460 972 l 400 694 l 582 694 l 642 972 l 696 972 l 636 694 l 822 694 l 810 642 l 625 642 l 574 407 l 766 407 l 754 354 l 562 354 l 504 83 l 450 83 l 509 354 l 326 354 l 268 83 l 214 83 l 272 354 m 519 407 l 571 642 l 389 642 l 338 407 l 519 407 z "},"$":{"ha":715,"x_min":47,"x_max":676,"o":"m 60 122 q 262 58 145 66 l 350 465 q 221 588 259 532 q 183 718 183 645 q 260 894 183 823 q 457 972 337 964 l 484 1095 l 536 1095 l 510 971 q 676 937 597 966 l 663 871 q 497 916 591 911 l 410 500 q 543 375 507 429 q 579 252 579 321 q 505 72 579 140 q 304 0 431 4 l 273 -142 l 221 -142 l 252 1 q 47 54 134 8 l 60 122 m 444 914 q 303 854 357 907 q 249 724 249 801 q 275 624 249 667 q 364 533 301 581 l 444 914 m 317 58 q 463 113 411 64 q 514 243 514 161 q 486 336 514 291 q 396 431 458 381 l 317 58 z "},"%":{"ha":1107,"x_min":104,"x_max":1051,"o":"m 796 -14 q 666 37 714 -14 q 618 174 618 87 q 692 393 618 304 q 876 482 767 482 q 1004 431 958 482 q 1051 294 1051 380 q 979 74 1051 162 q 796 -14 907 -14 m 946 972 l 1019 972 l 227 0 l 153 0 l 946 972 m 282 490 q 152 540 200 490 q 104 677 104 589 q 179 897 104 808 q 363 986 254 986 q 490 936 443 986 q 538 799 538 885 q 466 578 538 667 q 282 490 393 490 m 800 40 q 936 111 881 40 q 990 289 990 182 q 959 392 990 357 q 871 428 928 428 q 735 356 789 428 q 681 178 681 283 q 713 76 681 112 q 800 40 745 40 m 286 545 q 422 615 368 545 q 476 793 476 686 q 445 896 476 861 q 357 932 414 932 q 221 860 276 932 q 167 682 167 789 q 198 581 167 616 q 286 545 229 545 z "},"&":{"ha":997,"x_min":62,"x_max":924,"o":"m 676 109 q 340 -20 527 -20 q 137 47 212 -20 q 62 222 62 113 q 94 344 62 290 q 188 440 125 397 q 374 528 251 482 q 295 656 314 612 q 275 753 275 701 q 310 874 275 819 q 406 959 345 928 q 534 990 467 990 q 703 937 640 990 q 766 793 766 884 q 693 630 766 695 q 461 507 621 564 l 686 197 q 867 518 804 326 l 924 518 q 720 151 857 294 l 831 0 l 755 0 l 676 109 m 706 793 q 660 899 706 861 q 532 937 614 937 q 390 885 445 937 q 335 753 335 833 q 355 670 335 715 q 429 548 374 625 q 594 621 535 587 q 680 693 653 655 q 706 793 706 731 m 405 486 q 234 406 292 441 q 151 328 176 370 q 126 222 126 286 q 188 87 126 139 q 345 36 249 36 q 643 155 509 36 l 405 486 z "},"'":{"ha":281,"x_min":195,"x_max":260,"o":"m 195 972 l 260 972 l 253 668 l 201 668 l 195 972 z "},"(":{"ha":399,"x_min":83,"x_max":511,"o":"m 196 -191 q 83 215 83 8 q 166 611 83 437 q 440 972 249 786 l 511 972 q 232 606 317 781 q 146 224 146 431 q 261 -191 146 3 l 196 -191 z "},")":{"ha":399,"x_min":-97,"x_max":330,"o":"m -97 -191 q 181 173 94 -3 q 268 558 268 349 q 153 972 268 779 l 218 972 q 330 567 330 772 q 247 171 330 347 q -26 -191 164 -5 l -97 -191 z "},"*":{"ha":564,"x_min":135,"x_max":604,"o":"m 335 713 l 135 764 l 153 822 l 349 753 l 338 972 l 401 972 l 392 753 l 586 822 l 604 764 l 406 713 l 541 532 l 489 497 l 371 685 l 250 497 l 200 532 l 335 713 z "},"+":{"ha":903,"x_min":158,"x_max":774,"o":"m 158 433 l 437 433 l 437 713 l 494 713 l 494 433 l 774 433 l 774 376 l 494 376 l 494 97 l 437 97 l 437 376 l 158 376 l 158 433 z "},",":{"ha":309,"x_min":-17,"x_max":180,"o":"m 109 154 l 180 154 l 41 -168 l -17 -168 l 109 154 z "},"-":{"ha":553,"x_min":97,"x_max":482,"o":"m 111 437 l 482 437 l 468 376 l 97 376 l 111 437 z "},".":{"ha":309,"x_min":43,"x_max":153,"o":"m 97 -12 q 58 4 74 -12 q 43 43 43 20 q 58 82 43 66 q 97 97 74 97 q 136 82 120 97 q 153 43 153 66 q 136 4 153 20 q 97 -12 120 -12 z "},"/":{"ha":536,"x_min":-113,"x_max":661,"o":"m 593 972 l 661 972 l -45 -161 l -113 -161 l 593 972 z "},":":{"ha":309,"x_min":43,"x_max":281,"o":"m 225 597 q 186 614 202 597 q 171 653 171 630 q 186 691 171 676 q 225 707 202 707 q 264 691 248 707 q 281 653 281 676 q 264 614 281 630 q 225 597 248 597 m 97 -12 q 58 4 74 -12 q 43 43 43 20 q 58 82 43 66 q 97 97 74 97 q 136 82 120 97 q 153 43 153 66 q 136 4 153 20 q 97 -12 120 -12 z "},";":{"ha":309,"x_min":-29,"x_max":281,"o":"m 225 597 q 186 614 202 597 q 171 653 171 630 q 186 691 171 676 q 225 707 202 707 q 264 691 248 707 q 281 653 281 676 q 264 614 281 630 q 225 597 248 597 m 96 154 l 168 154 l 29 -168 l -29 -168 l 96 154 z "},"<":{"ha":903,"x_min":147,"x_max":713,"o":"m 147 406 l 713 722 l 713 659 l 253 401 l 253 399 l 713 172 l 713 107 l 147 393 l 147 406 z "},"=":{"ha":903,"x_min":158,"x_max":774,"o":"m 158 566 l 774 566 l 774 509 l 158 509 l 158 566 m 158 302 l 774 302 l 774 245 l 158 245 l 158 302 z "},">":{"ha":903,"x_min":196,"x_max":761,"o":"m 196 172 l 656 399 l 656 401 l 196 659 l 196 722 l 761 406 l 761 393 l 196 107 l 196 172 z "},"?":{"ha":513,"x_min":123,"x_max":570,"o":"m 186 273 q 235 427 203 374 q 350 538 267 479 q 469 650 434 595 q 504 777 504 704 q 463 890 504 848 q 351 932 422 932 q 168 879 271 932 l 180 947 q 359 989 277 989 q 513 931 456 989 q 570 783 570 874 q 526 627 570 696 q 386 492 481 557 q 287 398 313 441 q 248 273 261 355 l 186 273 m 123 43 q 139 82 123 66 q 178 97 155 97 q 217 82 201 97 q 233 43 233 66 q 217 4 233 20 q 178 -12 201 -12 q 139 4 155 -12 q 123 43 123 20 z "},"@":{"ha":1333,"x_min":154,"x_max":1239,"o":"m 685 -127 q 294 10 433 -127 q 154 390 154 148 q 233 692 154 554 q 451 909 313 829 q 753 989 589 989 q 1107 864 975 989 q 1239 529 1239 740 q 1199 331 1239 425 q 1092 182 1160 237 q 949 127 1025 127 q 844 162 882 127 q 807 264 807 196 l 807 272 l 808 290 l 806 290 q 704 168 758 209 q 579 127 650 127 q 459 179 504 127 q 415 322 415 231 q 458 532 415 435 q 572 684 501 630 q 725 737 643 737 q 869 632 833 737 l 872 632 l 897 728 l 957 728 l 876 373 q 863 286 863 317 q 882 210 863 235 q 953 184 901 184 q 1063 229 1012 184 q 1144 353 1114 274 q 1174 522 1174 432 q 1064 825 1174 719 q 746 932 954 932 q 478 862 598 932 q 289 668 358 792 q 220 390 220 545 q 343 48 220 168 q 692 -71 467 -71 q 852 -51 766 -71 q 1003 -1 937 -32 l 989 -68 q 685 -127 844 -127 m 839 547 q 720 681 839 681 q 601 633 656 681 q 513 503 545 585 q 481 326 481 421 q 510 223 481 261 q 587 184 540 184 q 711 233 657 184 q 802 377 766 281 q 839 547 839 473 z "},"A":{"ha":818,"x_min":-57,"x_max":728,"o":"m 507 972 l 570 972 l 728 0 l 660 0 l 611 302 l 193 302 l 14 0 l -57 0 l 507 972 m 603 364 l 533 814 q 526 888 528 849 l 524 888 l 501 843 l 227 364 l 603 364 z "},"B":{"ha":750,"x_min":52,"x_max":718,"o":"m 257 972 l 493 972 q 657 917 596 972 q 718 765 718 861 q 660 590 718 659 q 503 501 602 520 l 503 498 q 619 428 578 481 q 660 296 660 374 q 573 77 660 154 q 326 0 487 0 l 52 0 l 257 972 m 386 534 q 580 594 511 534 q 648 758 648 654 q 603 871 648 832 q 478 911 558 911 l 313 911 l 231 534 l 386 534 m 319 61 q 590 290 590 61 q 531 426 590 378 q 361 473 471 473 l 218 473 l 132 61 l 319 61 z "},"C":{"ha":878,"x_min":103,"x_max":900,"o":"m 484 -17 q 204 94 304 -17 q 103 398 103 205 q 170 701 103 568 q 362 911 237 833 q 640 989 487 989 q 900 924 780 989 l 886 850 q 631 928 784 928 q 394 861 500 928 q 231 673 289 793 q 172 408 172 553 q 257 140 172 235 q 493 45 342 45 q 753 114 631 45 l 737 39 q 616 -4 668 8 q 488 -17 564 -17 l 484 -17 z "},"D":{"ha":940,"x_min":52,"x_max":907,"o":"m 260 972 l 485 972 q 798 871 689 972 q 907 576 907 770 q 836 269 907 400 q 633 69 765 138 q 328 0 501 0 l 52 0 l 260 972 m 328 61 q 703 195 568 61 q 838 571 838 328 q 472 911 838 911 l 313 911 l 132 61 l 328 61 z "},"E":{"ha":671,"x_min":52,"x_max":711,"o":"m 257 972 l 711 972 l 699 911 l 311 911 l 228 521 l 587 521 l 575 460 l 215 460 l 131 61 l 541 61 l 528 0 l 52 0 l 257 972 z "},"F":{"ha":646,"x_min":52,"x_max":711,"o":"m 257 972 l 711 972 l 699 911 l 311 911 l 227 514 l 586 514 l 574 453 l 214 453 l 118 0 l 52 0 l 257 972 z "},"G":{"ha":964,"x_min":103,"x_max":933,"o":"m 798 422 l 551 422 l 566 484 l 879 484 l 787 52 q 511 -17 662 -17 q 212 98 321 -17 q 103 412 103 213 q 172 715 103 584 q 367 918 241 846 q 653 989 492 989 q 933 925 795 989 l 917 857 q 777 912 841 897 q 639 928 713 928 q 394 865 500 928 q 230 687 287 803 q 172 416 172 570 q 262 143 172 241 q 517 45 352 45 q 725 86 627 45 l 798 422 z "},"H":{"ha":940,"x_min":52,"x_max":947,"o":"m 257 972 l 323 972 l 229 528 l 786 528 l 880 972 l 947 972 l 742 0 l 675 0 l 774 467 l 216 467 l 118 0 l 52 0 l 257 972 z "},"I":{"ha":317,"x_min":52,"x_max":323,"o":"m 257 972 l 323 972 l 118 0 l 52 0 l 257 972 z "},"J":{"ha":444,"x_min":-66,"x_max":465,"o":"m -53 68 q -12 53 -40 60 q 32 45 16 45 q 176 103 126 45 q 257 309 225 161 l 399 972 l 465 972 l 323 311 q 217 55 283 127 q 24 -17 150 -17 q -25 -11 5 -17 q -66 1 -55 -5 l -53 68 z "},"K":{"ha":732,"x_min":52,"x_max":835,"o":"m 257 972 l 323 972 l 227 514 l 229 514 l 242 528 l 745 972 l 835 972 l 292 497 l 642 0 l 558 0 l 241 460 l 224 490 l 221 490 l 118 0 l 52 0 l 257 972 z "},"L":{"ha":589,"x_min":52,"x_max":521,"o":"m 257 972 l 323 972 l 131 61 l 521 61 l 509 0 l 52 0 l 257 972 z "},"M":{"ha":1157,"x_min":52,"x_max":1164,"o":"m 257 972 l 314 972 l 530 435 q 558 348 549 388 l 562 348 l 619 420 l 1099 972 l 1164 972 l 956 0 l 893 0 l 1051 743 l 1078 860 l 1076 860 q 1031 798 1052 821 l 556 254 l 534 254 l 315 793 q 296 859 302 825 l 294 859 q 284 794 291 836 q 117 0 277 753 l 52 0 l 257 972 z "},"N":{"ha":985,"x_min":52,"x_max":991,"o":"m 257 972 l 302 972 l 718 193 q 747 131 741 150 l 750 131 l 760 193 l 925 972 l 991 972 l 785 0 l 747 0 l 326 786 l 298 847 l 296 847 l 292 826 l 117 0 l 52 0 l 257 972 z "},"O":{"ha":1047,"x_min":103,"x_max":1010,"o":"m 492 -17 q 207 97 310 -17 q 103 403 103 210 q 171 701 103 566 q 358 912 239 836 q 625 989 477 989 q 905 874 800 989 q 1010 574 1010 759 q 944 273 1010 410 q 761 59 879 136 q 492 -17 642 -17 m 494 45 q 726 110 627 45 q 883 297 826 175 q 940 570 940 419 q 855 830 940 733 q 624 928 770 928 q 390 862 494 928 q 230 676 287 795 q 172 404 172 556 q 257 141 172 237 q 494 45 342 45 z "},"P":{"ha":755,"x_min":52,"x_max":750,"o":"m 257 972 l 469 972 q 676 906 602 972 q 750 720 750 840 q 651 478 750 566 q 382 390 551 390 l 201 390 l 118 0 l 52 0 l 257 972 m 386 452 q 604 519 528 452 q 681 714 681 587 q 624 860 681 808 q 456 911 567 911 l 311 911 l 214 452 l 386 452 z "},"Q":{"ha":1047,"x_min":103,"x_max":1010,"o":"m 658 -235 l 499 -17 q 208 94 313 -17 q 103 403 103 205 q 173 701 103 563 q 361 914 243 840 q 625 989 479 989 q 905 878 800 989 q 1010 574 1010 766 q 955 298 1010 427 q 800 89 899 170 q 577 -11 701 7 l 745 -235 l 658 -235 m 494 45 q 726 112 625 45 q 884 300 828 178 q 940 570 940 421 q 854 832 940 736 q 624 928 768 928 q 389 860 492 928 q 229 671 286 793 q 172 404 172 550 q 257 139 172 234 q 494 45 342 45 z "},"R":{"ha":771,"x_min":52,"x_max":754,"o":"m 257 972 l 505 972 q 689 911 624 972 q 754 736 754 849 q 672 535 754 616 q 456 447 590 455 l 456 444 q 547 310 520 415 l 625 0 l 554 0 l 482 293 q 427 399 465 365 q 317 433 389 433 l 210 433 l 118 0 l 52 0 l 257 972 m 403 494 q 610 558 534 494 q 685 733 685 622 q 635 864 685 818 q 496 911 585 911 l 311 911 l 222 494 l 403 494 z "},"S":{"ha":690,"x_min":31,"x_max":684,"o":"m 43 111 q 148 63 87 82 q 272 45 208 45 q 443 95 381 45 q 505 235 505 144 q 470 348 505 298 q 350 460 435 398 q 216 589 254 529 q 178 726 178 648 q 266 915 178 842 q 486 989 355 989 q 684 953 585 989 l 669 884 q 479 928 591 928 q 311 874 375 928 q 248 732 248 821 q 278 617 248 664 q 399 505 309 571 q 536 377 497 434 q 575 243 575 321 q 492 53 575 123 q 268 -17 408 -17 q 140 -1 202 -17 q 31 40 77 15 l 43 111 z "},"T":{"ha":710,"x_min":160,"x_max":800,"o":"m 440 911 l 160 911 l 172 972 l 800 972 l 787 911 l 507 911 l 314 0 l 248 0 l 440 911 z "},"U":{"ha":900,"x_min":110,"x_max":921,"o":"m 243 972 l 310 972 l 199 441 q 178 282 178 343 q 414 45 178 45 q 616 120 543 45 q 724 353 690 195 l 854 972 l 921 972 l 794 371 q 658 71 749 159 q 401 -17 568 -17 q 187 59 264 -17 q 110 271 110 135 q 126 418 110 338 l 243 972 z "},"V":{"ha":869,"x_min":176,"x_max":960,"o":"m 176 972 l 249 972 l 364 195 q 370 103 370 159 l 372 103 q 386 132 378 117 q 882 972 393 146 l 960 972 l 376 0 l 326 0 l 176 972 z "},"W":{"ha":1198,"x_min":146,"x_max":1320,"o":"m 146 972 l 216 972 l 275 193 l 279 107 l 282 107 q 300 149 290 127 q 728 972 310 170 l 761 972 l 817 193 l 821 107 l 823 107 q 1244 972 908 284 l 1320 972 l 829 0 l 774 0 l 713 732 l 711 822 l 707 822 q 671 733 696 783 l 286 0 l 229 0 l 146 972 z "},"X":{"ha":782,"x_min":-39,"x_max":865,"o":"m -39 0 l 379 493 l 196 972 l 272 972 l 407 607 l 429 539 l 432 539 q 455 572 443 555 q 785 972 467 589 l 865 972 l 467 492 l 653 0 l 576 0 l 437 371 l 415 443 l 412 443 q 358 371 399 420 l 49 0 l -39 0 z "},"Y":{"ha":750,"x_min":168,"x_max":844,"o":"m 336 368 l 168 972 l 239 972 l 364 507 q 382 433 379 452 l 385 433 q 422 489 395 453 l 766 972 l 844 972 l 406 370 l 328 0 l 258 0 l 336 368 z "},"Z":{"ha":791,"x_min":-31,"x_max":868,"o":"m 749 909 l 210 909 l 222 972 l 868 972 l 864 947 l 86 62 l 665 62 l 653 0 l -31 0 l -25 28 l 749 909 z "},"[":{"ha":399,"x_min":22,"x_max":490,"o":"m 275 972 l 490 972 l 479 916 l 326 916 l 96 -164 l 249 -164 l 237 -221 l 22 -221 l 275 972 z "},"\\":{"ha":536,"x_min":136,"x_max":429,"o":"m 136 972 l 196 972 l 429 -163 l 372 -163 l 136 972 z "},"]":{"ha":399,"x_min":-92,"x_max":376,"o":"m -81 -164 l 72 -164 l 302 916 l 150 916 l 161 972 l 376 972 l 123 -221 l -92 -221 l -81 -164 z "},"^":{"ha":903,"x_min":199,"x_max":749,"o":"m 460 989 l 488 989 l 749 476 l 684 476 l 475 892 l 472 892 l 264 476 l 199 476 l 460 989 z "},"_":{"ha":576,"x_min":-118,"x_max":475,"o":"m -102 -121 l 475 -121 l 458 -201 l -118 -201 l -102 -121 z "},"`":{"ha":416,"x_min":191,"x_max":387,"o":"m 191 1028 l 257 1028 l 387 806 l 330 806 l 191 1028 z "},"a":{"ha":726,"x_min":56,"x_max":686,"o":"m 501 0 q 530 222 504 75 l 528 222 q 397 44 465 106 q 248 -17 329 -17 q 105 48 155 -17 q 56 231 56 113 q 111 477 56 366 q 262 649 165 587 q 475 711 359 711 q 686 686 563 711 l 596 249 q 576 120 586 197 q 566 0 566 43 l 501 0 m 614 639 q 469 654 542 654 q 292 602 372 654 q 166 453 212 549 q 121 237 121 357 q 260 40 121 40 q 378 94 315 40 q 495 243 441 148 q 572 439 550 338 l 614 639 z "},"b":{"ha":726,"x_min":47,"x_max":671,"o":"m 257 1028 l 319 1028 q 201 486 220 568 l 204 486 q 327 653 259 594 q 481 711 394 711 q 623 648 575 711 q 671 463 671 584 q 617 214 671 324 q 469 44 564 104 q 256 -17 373 -17 q 151 -1 210 -17 q 47 40 91 14 l 257 1028 m 118 78 q 262 40 182 40 q 436 94 357 40 q 561 242 516 147 q 606 454 606 338 q 573 603 606 552 q 464 654 541 654 q 343 602 405 654 q 229 453 281 549 q 155 256 176 357 l 118 78 z "},"c":{"ha":568,"x_min":56,"x_max":587,"o":"m 297 -17 q 121 57 186 -17 q 56 258 56 130 q 104 490 56 385 q 239 653 153 594 q 425 711 324 711 q 510 701 472 711 q 587 664 548 690 l 571 595 q 419 654 511 654 q 267 603 337 654 q 157 460 197 551 q 118 261 118 370 q 167 99 118 158 q 304 40 216 40 q 390 58 349 40 q 481 113 431 75 l 464 35 q 376 -6 412 5 q 297 -17 339 -17 z "},"d":{"ha":726,"x_min":56,"x_max":758,"o":"m 501 0 q 529 221 504 81 l 526 221 q 395 42 463 102 q 245 -17 327 -17 q 105 48 155 -17 q 56 232 56 113 q 111 478 56 367 q 263 650 167 589 q 473 711 360 711 q 624 689 536 711 l 696 1028 l 758 1028 l 587 220 q 574 115 583 197 q 566 0 566 34 l 501 0 m 612 631 q 467 654 540 654 q 292 602 372 654 q 166 454 212 549 q 121 243 121 359 q 155 89 121 138 q 260 40 189 40 q 380 97 314 40 q 499 247 447 155 q 572 439 551 339 l 612 631 z "},"e":{"ha":648,"x_min":56,"x_max":621,"o":"m 121 268 q 175 101 121 161 q 329 40 230 40 q 519 97 416 40 l 507 32 q 319 -17 418 -17 q 125 59 194 -17 q 56 273 56 136 q 106 495 56 394 q 242 653 157 595 q 422 711 327 711 q 566 667 511 711 q 621 545 621 622 q 503 370 621 425 q 122 310 385 314 l 121 268 m 131 367 q 452 407 348 367 q 555 538 555 447 q 412 654 555 654 q 234 574 311 654 q 131 367 156 494 z "},"f":{"ha":358,"x_min":7,"x_max":541,"o":"m 192 637 l 66 637 l 79 694 l 204 694 l 232 825 q 314 990 255 935 q 463 1044 373 1044 q 541 1034 504 1044 l 528 972 q 456 987 506 987 q 290 808 327 987 l 267 694 l 450 694 l 437 637 l 254 637 l 69 -231 l 7 -231 l 192 637 z "},"g":{"ha":726,"x_min":-16,"x_max":686,"o":"m -4 -212 q 183 -267 91 -267 q 377 -198 307 -267 q 484 24 448 -130 l 528 220 l 525 220 q 390 39 455 94 q 248 -17 324 -17 q 105 48 154 -17 q 56 233 56 113 q 111 477 56 367 q 264 650 167 588 q 476 711 361 711 q 575 705 511 711 q 686 686 640 698 l 550 49 q 417 -239 507 -152 q 171 -326 328 -326 q -16 -278 74 -326 l -4 -212 m 614 639 q 467 654 546 654 q 291 601 372 654 q 166 454 211 548 q 121 244 121 360 q 256 40 121 40 q 380 95 316 40 q 498 245 445 151 q 572 439 552 340 l 614 639 z "},"h":{"ha":747,"x_min":39,"x_max":669,"o":"m 258 1028 l 321 1028 l 208 498 l 211 498 q 498 711 340 711 q 669 521 669 711 q 650 389 669 500 l 568 0 l 505 0 l 587 399 q 606 514 606 490 q 486 654 606 654 q 365 607 433 654 q 242 484 296 559 q 171 323 189 408 l 102 0 l 39 0 l 258 1028 z "},"i":{"ha":290,"x_min":57,"x_max":311,"o":"m 179 694 l 242 694 l 138 201 q 121 83 121 120 q 163 43 121 43 q 221 54 193 43 l 210 2 q 143 -14 176 -14 q 57 79 57 -14 q 63 142 57 111 q 179 694 68 174 m 258 869 q 222 884 237 869 q 207 922 207 899 q 222 958 207 944 q 258 972 238 972 q 295 959 279 972 q 311 922 311 945 q 296 885 311 901 q 258 869 280 869 z "},"j":{"ha":290,"x_min":-279,"x_max":318,"o":"m -265 -236 q -171 -269 -220 -269 q -39 -210 -86 -269 q 41 8 7 -150 l 187 694 l 250 694 l 109 29 q 2 -245 68 -165 q -179 -326 -64 -326 q -235 -318 -205 -326 q -279 -300 -264 -310 l -265 -236 m 265 869 q 229 884 244 869 q 214 922 214 899 q 229 958 214 944 q 265 972 245 972 q 302 959 286 972 q 318 922 318 945 q 302 885 318 901 q 265 869 287 869 z "},"k":{"ha":604,"x_min":39,"x_max":657,"o":"m 258 1028 l 321 1028 l 179 367 l 182 367 l 568 694 l 657 694 l 249 354 l 522 0 l 443 0 l 179 351 l 176 351 l 102 0 l 39 0 l 258 1028 z "},"l":{"ha":290,"x_min":57,"x_max":313,"o":"m 250 1028 l 313 1028 l 138 201 q 121 83 121 120 q 163 43 121 43 q 221 54 193 43 l 210 2 q 143 -14 176 -14 q 57 79 57 -14 q 66 157 57 109 q 250 1028 75 205 z "},"m":{"ha":1156,"x_min":39,"x_max":1078,"o":"m 176 694 l 239 694 l 205 497 l 208 497 q 485 711 342 711 q 604 661 567 711 q 640 497 640 610 q 777 656 704 601 q 922 711 850 711 q 1078 526 1078 711 q 1059 389 1078 481 l 977 0 l 914 0 l 996 399 q 1014 526 1014 494 q 909 654 1014 654 q 792 605 856 654 q 675 477 728 556 q 608 326 623 398 l 539 0 l 476 0 l 558 399 q 576 514 576 486 q 553 618 576 582 q 472 654 530 654 q 351 602 417 654 q 235 472 285 549 q 171 323 186 394 l 102 0 l 39 0 l 146 501 q 176 694 170 616 z "},"n":{"ha":749,"x_min":39,"x_max":671,"o":"m 176 694 l 239 694 l 205 497 l 208 497 q 498 711 340 711 q 629 666 587 711 q 671 525 671 621 q 665 470 671 503 q 568 0 660 437 l 505 0 l 587 399 q 606 514 606 490 q 486 654 606 654 q 365 607 433 654 q 242 484 296 559 q 171 323 189 408 l 102 0 l 39 0 l 146 501 q 176 694 170 616 z "},"o":{"ha":720,"x_min":56,"x_max":664,"o":"m 298 -17 q 120 54 184 -17 q 56 252 56 125 q 105 485 56 378 q 238 652 154 592 q 422 711 322 711 q 601 640 538 711 q 664 444 664 568 q 616 210 664 316 q 485 43 569 103 q 298 -17 401 -17 m 304 40 q 452 91 385 40 q 559 234 520 142 q 599 437 599 326 q 551 599 599 544 q 415 654 503 654 q 268 603 336 654 q 160 459 199 551 q 121 257 121 368 q 170 97 121 155 q 304 40 219 40 z "},"p":{"ha":726,"x_min":-29,"x_max":671,"o":"m 163 694 l 227 694 q 213 572 223 644 q 197 472 203 499 l 200 472 q 333 651 264 590 q 482 711 402 711 q 623 648 575 711 q 671 463 671 584 q 615 217 671 327 q 464 45 560 108 q 252 -17 368 -17 q 106 11 177 -17 l 33 -326 l -29 -326 l 140 475 q 154 580 146 500 q 163 694 163 660 m 117 69 q 261 40 178 40 q 436 94 356 40 q 561 242 516 147 q 606 452 606 336 q 572 603 606 552 q 465 654 538 654 q 346 598 413 654 q 228 448 279 541 q 155 256 176 355 l 117 69 z "},"q":{"ha":726,"x_min":56,"x_max":685,"o":"m 526 210 l 524 210 q 248 -17 401 -17 q 105 47 154 -17 q 56 232 56 111 q 111 476 56 366 q 263 649 166 587 q 476 711 360 711 q 597 700 547 711 q 685 676 648 688 l 472 -326 l 410 -326 q 526 210 494 68 m 612 631 q 467 654 536 654 q 292 601 372 654 q 166 452 212 547 q 121 243 121 357 q 154 91 121 142 q 260 40 186 40 q 380 96 313 40 q 499 245 446 153 q 572 439 551 338 l 612 631 z "},"r":{"ha":464,"x_min":40,"x_max":510,"o":"m 176 694 l 239 694 l 214 530 l 216 530 q 314 667 262 623 q 436 711 366 711 q 510 694 475 711 l 498 631 l 496 631 q 424 654 460 654 q 274 557 348 654 q 168 307 201 459 l 103 0 l 40 0 l 136 451 q 176 694 169 599 z "},"s":{"ha":539,"x_min":18,"x_max":497,"o":"m 32 97 q 111 56 66 71 q 199 40 156 40 q 322 73 279 40 q 366 172 366 106 q 341 246 366 216 q 250 318 317 277 q 140 408 171 367 q 109 509 109 450 q 173 653 109 595 q 335 711 237 711 q 418 702 371 711 q 497 676 466 692 l 484 611 q 329 654 417 654 q 218 617 262 654 q 174 517 174 579 q 198 438 174 469 q 288 368 222 408 q 398 278 365 321 q 431 179 431 235 q 367 36 431 90 q 195 -17 302 -17 q 18 31 95 -17 l 32 97 z "},"t":{"ha":412,"x_min":66,"x_max":453,"o":"m 193 637 l 66 637 l 79 694 l 204 694 l 243 875 l 310 896 l 267 694 l 453 694 l 439 637 l 256 637 l 163 201 q 150 109 150 137 q 163 59 150 76 q 210 43 177 43 q 319 78 239 43 l 306 18 q 248 -4 281 5 q 196 -14 214 -14 q 86 104 86 -14 q 100 204 86 147 l 193 637 z "},"u":{"ha":749,"x_min":78,"x_max":710,"o":"m 180 694 l 243 694 l 161 296 q 143 180 143 204 q 262 40 143 40 q 388 91 320 40 q 510 222 456 142 q 578 371 564 302 l 647 694 l 710 694 l 603 193 q 572 0 579 78 l 510 0 l 543 197 l 541 197 q 250 -17 408 -17 q 78 174 78 -17 q 82 220 78 187 q 180 694 87 252 z "},"v":{"ha":629,"x_min":94,"x_max":688,"o":"m 94 694 l 158 694 l 249 146 q 256 74 256 108 l 258 74 l 279 119 l 616 694 l 688 694 l 272 0 l 215 0 l 94 694 z "},"w":{"ha":940,"x_min":96,"x_max":987,"o":"m 96 694 l 160 694 l 205 133 l 205 125 l 205 117 l 203 82 l 208 82 q 232 140 214 107 l 526 694 l 568 694 l 610 121 l 607 82 l 612 82 l 623 112 l 636 140 l 920 694 l 987 694 l 623 0 l 567 0 l 524 519 l 523 554 l 525 582 l 522 582 l 517 570 l 216 0 l 160 0 l 96 694 z "},"x":{"ha":599,"x_min":-45,"x_max":643,"o":"m 262 342 l 107 694 l 176 694 l 279 446 l 302 383 l 306 383 l 340 429 l 566 694 l 643 694 l 329 338 l 486 0 l 412 0 l 313 236 l 289 296 l 286 296 l 252 251 l 37 0 l -45 0 l 262 342 z "},"y":{"ha":629,"x_min":-114,"x_max":708,"o":"m -100 -252 q -50 -264 -79 -264 q 36 -236 -3 -264 q 121 -136 75 -208 l 212 9 l 90 694 l 154 694 l 253 132 l 258 81 l 261 81 l 268 92 l 635 694 l 708 694 l 196 -129 q 73 -283 126 -241 q -54 -326 20 -326 q -114 -315 -93 -326 l -100 -252 z "},"z":{"ha":644,"x_min":-35,"x_max":679,"o":"m 559 637 l 134 637 l 146 694 l 679 694 l 675 672 l 79 57 l 528 57 l 515 0 l -35 0 l -29 29 l 559 637 z "},"{":{"ha":399,"x_min":54,"x_max":465,"o":"m 136 254 q 54 363 136 346 l 64 406 q 161 450 130 417 q 208 564 191 483 l 253 771 q 326 923 276 878 q 465 971 375 969 l 456 922 q 362 882 395 920 q 314 766 330 845 l 271 564 q 221 442 254 485 q 132 382 189 399 l 132 379 q 182 339 163 369 q 200 260 200 309 q 192 192 200 229 l 151 1 q 140 -77 140 -50 q 158 -135 140 -112 q 225 -163 176 -158 l 215 -210 q 78 -77 78 -199 q 86 -14 78 -54 l 127 186 q 136 254 136 232 z "},"|":{"ha":314,"x_min":125,"x_max":189,"o":"m 125 1063 l 189 1063 l 189 -326 l 125 -326 l 125 1063 z "},"}":{"ha":399,"x_min":-66,"x_max":345,"o":"m 267 379 l 267 382 q 199 501 199 406 q 207 570 199 532 l 248 760 q 258 838 258 810 q 240 897 258 874 q 174 924 222 920 l 183 971 q 321 838 321 960 q 313 775 321 816 l 271 575 q 262 507 262 537 q 345 399 262 415 l 335 355 q 238 310 269 345 q 191 197 208 276 l 146 -9 q 73 -162 123 -116 q -66 -210 24 -208 l -57 -161 q 36 -121 3 -157 q 85 -5 68 -85 l 127 197 q 177 320 144 279 q 267 379 210 361 z "},"~":{"ha":903,"x_min":180,"x_max":751,"o":"m 180 325 q 227 445 184 401 q 339 489 269 489 q 471 435 402 489 q 542 384 520 395 q 596 374 564 374 q 667 402 641 374 q 699 482 694 431 l 751 482 q 705 361 747 404 q 593 318 663 318 q 457 375 527 318 q 392 420 416 408 q 338 432 367 432 q 233 325 241 432 l 180 325 z "},"Ä":{"ha":818,"x_min":-57,"x_max":728,"o":"m 507 972 l 570 972 l 728 0 l 660 0 l 611 302 l 193 302 l 14 0 l -57 0 l 507 972 m 603 364 l 533 814 q 526 888 528 849 l 524 888 l 501 843 l 227 364 l 603 364 m 609 1086 q 624 1120 609 1107 q 656 1133 639 1133 q 692 1120 676 1133 q 708 1086 708 1107 q 693 1052 708 1065 q 658 1038 679 1038 q 624 1051 638 1038 q 609 1086 609 1064 m 382 1086 q 397 1120 382 1107 q 430 1133 412 1133 q 466 1120 450 1133 q 481 1086 481 1107 q 467 1052 481 1065 q 431 1038 452 1038 q 397 1051 412 1038 q 382 1086 382 1064 z "},"Å":{"ha":818,"x_min":-57,"x_max":728,"o":"m 486 936 q 406 1051 406 964 q 445 1141 406 1105 q 542 1177 484 1177 q 638 1140 599 1177 q 677 1051 677 1104 q 651 977 677 1010 q 576 930 624 943 l 728 0 l 660 0 l 611 302 l 193 302 l 14 0 l -57 0 l 486 936 m 542 972 q 605 994 581 972 q 629 1051 629 1016 q 606 1109 629 1088 q 542 1131 583 1131 q 479 1109 503 1131 q 456 1051 456 1088 q 480 994 456 1016 q 542 972 505 972 m 603 364 l 533 814 q 526 888 528 849 l 524 888 q 510 859 513 865 q 227 364 506 852 l 603 364 z "},"Ç":{"ha":878,"x_min":103,"x_max":900,"o":"m 484 -17 q 204 94 304 -17 q 103 398 103 205 q 170 701 103 568 q 362 911 237 833 q 640 989 487 989 q 900 924 780 989 l 886 850 q 631 928 784 928 q 394 861 500 928 q 231 673 289 793 q 172 408 172 553 q 257 140 172 235 q 493 45 342 45 q 753 114 631 45 l 737 39 q 616 -4 668 8 q 488 -17 564 -17 l 484 -17 m 355 -239 q 416 -245 385 -245 q 502 -231 475 -245 q 528 -183 528 -216 q 439 -125 528 -125 l 397 -127 l 423 0 l 473 0 l 456 -79 q 555 -105 522 -79 q 588 -179 588 -132 q 544 -265 588 -235 q 412 -296 500 -296 q 376 -293 402 -296 q 345 -289 351 -290 l 355 -239 z "},"É":{"ha":671,"x_min":52,"x_max":711,"o":"m 257 972 l 711 972 l 699 911 l 311 911 l 228 521 l 587 521 l 575 460 l 215 460 l 131 61 l 541 61 l 528 0 l 52 0 l 257 972 m 599 1262 l 674 1262 l 469 1040 l 403 1040 l 599 1262 z "},"Ñ":{"ha":985,"x_min":52,"x_max":991,"o":"m 257 972 l 302 972 l 718 193 q 747 131 741 150 l 750 131 l 760 193 l 925 972 l 991 972 l 785 0 l 747 0 l 326 786 l 298 847 l 296 847 l 292 826 l 117 0 l 52 0 l 257 972 m 435 1040 q 580 1190 463 1190 q 629 1176 609 1190 q 667 1145 650 1162 q 703 1115 685 1128 q 746 1101 722 1101 q 833 1199 811 1101 l 883 1199 q 739 1048 850 1048 q 688 1062 708 1048 q 651 1092 668 1076 q 616 1123 633 1109 q 573 1137 598 1137 q 517 1115 539 1137 q 484 1040 496 1093 l 435 1040 z "},"Ö":{"ha":1047,"x_min":103,"x_max":1010,"o":"m 492 -17 q 207 97 310 -17 q 103 403 103 210 q 171 701 103 566 q 358 912 239 836 q 625 989 477 989 q 905 874 800 989 q 1010 574 1010 759 q 944 273 1010 410 q 761 59 879 136 q 492 -17 642 -17 m 494 45 q 726 110 627 45 q 883 297 826 175 q 940 570 940 419 q 855 830 940 733 q 624 928 770 928 q 390 862 494 928 q 230 676 287 795 q 172 404 172 556 q 257 141 172 237 q 494 45 342 45 m 698 1088 q 713 1122 698 1109 q 745 1135 728 1135 q 781 1122 765 1135 q 797 1088 797 1109 q 782 1054 797 1067 q 747 1040 768 1040 q 712 1053 727 1040 q 698 1088 698 1066 m 471 1088 q 486 1122 471 1109 q 519 1135 501 1135 q 554 1122 538 1135 q 570 1088 570 1109 q 556 1054 570 1067 q 520 1040 541 1040 q 486 1053 500 1040 q 471 1088 471 1066 z "},"Ü":{"ha":900,"x_min":110,"x_max":921,"o":"m 243 972 l 310 972 l 199 441 q 178 282 178 343 q 414 45 178 45 q 616 120 543 45 q 724 353 690 195 l 854 972 l 921 972 l 794 371 q 658 71 749 159 q 401 -17 568 -17 q 187 59 264 -17 q 110 271 110 135 q 126 418 110 338 l 243 972 m 648 1091 q 663 1125 648 1112 q 696 1138 678 1138 q 731 1125 715 1138 q 747 1091 747 1112 q 733 1056 747 1070 q 697 1042 718 1042 q 663 1056 677 1042 q 648 1091 648 1069 m 422 1091 q 437 1125 422 1112 q 469 1138 452 1138 q 505 1125 489 1138 q 521 1091 521 1112 q 506 1056 521 1070 q 471 1042 492 1042 q 436 1056 451 1042 q 422 1091 422 1069 z "},"á":{"ha":726,"x_min":56,"x_max":686,"o":"m 501 0 q 530 222 504 75 l 528 222 q 397 44 465 106 q 248 -17 329 -17 q 105 48 155 -17 q 56 231 56 113 q 111 477 56 366 q 262 649 165 587 q 475 711 359 711 q 686 686 563 711 l 596 249 q 576 120 586 197 q 566 0 566 43 l 501 0 m 614 639 q 469 654 542 654 q 292 602 372 654 q 166 453 212 549 q 121 237 121 357 q 260 40 121 40 q 378 94 315 40 q 495 243 441 148 q 572 439 550 338 l 614 639 m 602 1028 l 677 1028 l 471 806 l 406 806 l 602 1028 z "},"à":{"ha":726,"x_min":56,"x_max":686,"o":"m 501 0 q 530 222 504 75 l 528 222 q 397 44 465 106 q 248 -17 329 -17 q 105 48 155 -17 q 56 231 56 113 q 111 477 56 366 q 262 649 165 587 q 475 711 359 711 q 686 686 563 711 l 596 249 q 576 120 586 197 q 566 0 566 43 l 501 0 m 614 639 q 469 654 542 654 q 292 602 372 654 q 166 453 212 549 q 121 237 121 357 q 260 40 121 40 q 378 94 315 40 q 495 243 441 148 q 572 439 550 338 l 614 639 m 323 1028 l 389 1028 l 519 806 l 463 806 l 323 1028 z "},"â":{"ha":726,"x_min":56,"x_max":686,"o":"m 501 0 q 530 222 504 75 l 528 222 q 397 44 465 106 q 248 -17 329 -17 q 105 48 155 -17 q 56 231 56 113 q 111 477 56 366 q 262 649 165 587 q 475 711 359 711 q 686 686 563 711 l 596 249 q 576 120 586 197 q 566 0 566 43 l 501 0 m 614 639 q 469 654 542 654 q 292 602 372 654 q 166 453 212 549 q 121 237 121 357 q 260 40 121 40 q 378 94 315 40 q 495 243 441 148 q 572 439 550 338 l 614 639 m 507 1034 l 538 1034 l 644 806 l 590 806 l 514 972 l 375 806 l 317 806 l 507 1034 z "},"ä":{"ha":726,"x_min":56,"x_max":686,"o":"m 501 0 q 530 222 504 75 l 528 222 q 397 44 465 106 q 248 -17 329 -17 q 105 48 155 -17 q 56 231 56 113 q 111 477 56 366 q 262 649 165 587 q 475 711 359 711 q 686 686 563 711 l 596 249 q 576 120 586 197 q 566 0 566 43 l 501 0 m 614 639 q 469 654 542 654 q 292 602 372 654 q 166 453 212 549 q 121 237 121 357 q 260 40 121 40 q 378 94 315 40 q 495 243 441 148 q 572 439 550 338 l 614 639 m 519 854 q 534 888 519 876 q 566 901 549 901 q 602 888 586 901 q 618 854 618 875 q 603 820 618 833 q 568 806 589 806 q 533 819 548 806 q 519 854 519 832 m 292 854 q 307 888 292 876 q 340 901 322 901 q 375 888 359 901 q 391 854 391 875 q 377 820 391 833 q 341 806 362 806 q 307 819 321 806 q 292 854 292 832 z "},"ã":{"ha":726,"x_min":56,"x_max":686,"o":"m 501 0 q 530 222 504 75 l 528 222 q 397 44 465 106 q 248 -17 329 -17 q 105 48 155 -17 q 56 231 56 113 q 111 477 56 366 q 262 649 165 587 q 475 711 359 711 q 686 686 563 711 l 596 249 q 576 120 586 197 q 566 0 566 43 l 501 0 m 614 639 q 469 654 542 654 q 292 602 372 654 q 166 453 212 549 q 121 237 121 357 q 260 40 121 40 q 378 94 315 40 q 495 243 441 148 q 572 439 550 338 l 614 639 m 237 806 q 382 956 265 956 q 431 942 411 956 q 469 911 452 928 q 505 881 487 895 q 548 867 524 867 q 635 965 613 867 l 685 965 q 541 814 652 814 q 490 828 510 814 q 453 858 470 842 q 418 889 435 875 q 375 903 400 903 q 319 881 341 903 q 286 806 298 859 l 237 806 z "},"å":{"ha":726,"x_min":56,"x_max":686,"o":"m 501 0 q 530 222 504 75 l 528 222 q 397 44 465 106 q 248 -17 329 -17 q 105 48 155 -17 q 56 231 56 113 q 111 477 56 366 q 262 649 165 587 q 475 711 359 711 q 686 686 563 711 l 596 249 q 576 120 586 197 q 566 0 566 43 l 501 0 m 614 639 q 469 654 542 654 q 292 602 372 654 q 166 453 212 549 q 121 237 121 357 q 260 40 121 40 q 378 94 315 40 q 495 243 441 148 q 572 439 550 338 l 614 639 m 351 930 q 389 1020 351 984 q 487 1055 428 1055 q 585 1021 547 1055 q 623 930 623 987 q 584 842 623 878 q 487 806 545 806 q 389 840 427 806 q 351 930 351 875 m 487 851 q 550 873 526 851 q 574 930 574 895 q 551 988 574 967 q 487 1010 528 1010 q 425 988 448 1010 q 401 930 401 967 q 426 872 401 894 q 487 851 451 851 z "},"ç":{"ha":568,"x_min":56,"x_max":587,"o":"m 297 -17 q 121 57 186 -17 q 56 258 56 130 q 104 490 56 385 q 239 653 153 594 q 425 711 324 711 q 510 701 472 711 q 587 664 548 690 l 571 595 q 419 654 511 654 q 267 603 337 654 q 157 460 197 551 q 118 261 118 370 q 167 99 118 158 q 304 40 216 40 q 390 58 349 40 q 481 113 431 75 l 464 35 q 376 -6 412 5 q 297 -17 339 -17 m 165 -239 q 226 -245 195 -245 q 312 -231 286 -245 q 338 -183 338 -216 q 250 -125 338 -125 l 207 -127 l 233 0 l 283 0 l 267 -79 q 365 -105 332 -79 q 398 -179 398 -132 q 354 -265 398 -235 q 222 -296 310 -296 q 186 -293 212 -296 q 155 -289 161 -290 l 165 -239 z "},"é":{"ha":648,"x_min":56,"x_max":663,"o":"m 121 268 q 175 101 121 161 q 329 40 230 40 q 519 97 416 40 l 507 32 q 319 -17 418 -17 q 125 59 194 -17 q 56 273 56 136 q 106 495 56 394 q 242 653 157 595 q 422 711 327 711 q 566 667 511 711 q 621 545 621 622 q 503 370 621 425 q 122 310 385 314 l 121 268 m 131 367 q 452 407 348 367 q 555 538 555 447 q 412 654 555 654 q 234 574 311 654 q 131 367 156 494 m 587 1028 l 663 1028 l 457 806 l 391 806 l 587 1028 z "},"è":{"ha":648,"x_min":56,"x_max":621,"o":"m 121 268 q 175 101 121 161 q 329 40 230 40 q 519 97 416 40 l 507 32 q 319 -17 418 -17 q 125 59 194 -17 q 56 273 56 136 q 106 495 56 394 q 242 653 157 595 q 422 711 327 711 q 566 667 511 711 q 621 545 621 622 q 503 370 621 425 q 122 310 385 314 l 121 268 m 131 367 q 452 407 348 367 q 555 538 555 447 q 412 654 555 654 q 234 574 311 654 q 131 367 156 494 m 313 1028 l 379 1028 l 509 806 l 452 806 l 313 1028 z "},"ê":{"ha":648,"x_min":56,"x_max":621,"o":"m 121 268 q 175 101 121 161 q 329 40 230 40 q 519 97 416 40 l 507 32 q 319 -17 418 -17 q 125 59 194 -17 q 56 273 56 136 q 106 495 56 394 q 242 653 157 595 q 422 711 327 711 q 566 667 511 711 q 621 545 621 622 q 503 370 621 425 q 122 310 385 314 l 121 268 m 131 367 q 452 407 348 367 q 555 538 555 447 q 412 654 555 654 q 234 574 311 654 q 131 367 156 494 m 454 1034 l 485 1034 l 591 806 l 537 806 l 461 972 l 322 806 l 264 806 l 454 1034 z "},"ë":{"ha":648,"x_min":56,"x_max":621,"o":"m 121 268 q 175 101 121 161 q 329 40 230 40 q 519 97 416 40 l 507 32 q 319 -17 418 -17 q 125 59 194 -17 q 56 273 56 136 q 106 495 56 394 q 242 653 157 595 q 422 711 327 711 q 566 667 511 711 q 621 545 621 622 q 503 370 621 425 q 122 310 385 314 l 121 268 m 131 367 q 452 407 348 367 q 555 538 555 447 q 412 654 555 654 q 234 574 311 654 q 131 367 156 494 m 479 854 q 494 888 479 876 q 527 901 509 901 q 563 888 547 901 q 578 854 578 875 q 564 820 578 833 q 528 806 549 806 q 494 819 509 806 q 479 854 479 832 m 253 854 q 268 888 253 876 q 300 901 283 901 q 336 888 320 901 q 352 854 352 875 q 337 820 352 833 q 302 806 323 806 q 268 819 282 806 q 253 854 253 832 z "},"í":{"ha":290,"x_min":57,"x_max":450,"o":"m 179 694 l 242 694 l 138 201 q 121 83 121 120 q 163 43 121 43 q 221 54 193 43 l 210 2 q 143 -14 176 -14 q 57 79 57 -14 q 75 204 57 114 l 179 694 m 374 1028 l 450 1028 l 244 806 l 178 806 l 374 1028 z "},"ì":{"ha":290,"x_min":57,"x_max":312,"o":"m 179 694 l 242 694 l 138 201 q 121 83 121 120 q 163 43 121 43 q 221 54 193 43 l 210 2 q 143 -14 176 -14 q 57 79 57 -14 q 75 204 57 114 l 179 694 m 115 1028 l 182 1028 l 312 806 l 255 806 l 115 1028 z "},"î":{"ha":290,"x_min":57,"x_max":402,"o":"m 179 694 l 242 694 l 138 201 q 121 83 121 120 q 163 43 121 43 q 221 54 193 43 l 210 2 q 143 -14 176 -14 q 57 79 57 -14 q 75 204 57 114 l 179 694 m 265 1034 l 296 1034 l 402 806 l 348 806 l 272 972 l 133 806 l 75 806 l 265 1034 z "},"ï":{"ha":290,"x_min":57,"x_max":401,"o":"m 179 694 l 242 694 l 138 201 q 121 83 121 120 q 163 43 121 43 q 221 54 193 43 l 210 2 q 143 -14 176 -14 q 57 79 57 -14 q 75 204 57 114 l 179 694 m 302 854 q 317 888 302 876 q 350 901 332 901 q 386 888 370 901 q 401 854 401 875 q 387 820 401 833 q 351 806 372 806 q 317 819 332 806 q 302 854 302 832 m 76 854 q 91 888 76 876 q 123 901 106 901 q 159 888 143 901 q 175 854 175 875 q 160 820 175 833 q 125 806 146 806 q 91 819 105 806 q 76 854 76 832 z "},"ñ":{"ha":749,"x_min":39,"x_max":705,"o":"m 176 694 l 239 694 l 205 497 l 208 497 q 498 711 340 711 q 629 666 587 711 q 671 525 671 621 q 665 470 671 503 q 568 0 660 437 l 505 0 l 587 399 q 606 514 606 490 q 486 654 606 654 q 365 607 433 654 q 242 484 296 559 q 171 323 189 408 l 102 0 l 39 0 l 146 501 q 176 694 170 616 m 257 806 q 401 956 285 956 q 451 942 431 956 q 489 911 471 928 q 525 881 507 895 q 568 867 543 867 q 654 965 633 867 l 705 965 q 560 814 672 814 q 510 828 530 814 q 472 858 490 842 q 437 889 455 875 q 395 903 420 903 q 339 881 361 903 q 306 806 317 859 l 257 806 z "},"ó":{"ha":720,"x_min":56,"x_max":664,"o":"m 298 -17 q 120 54 184 -17 q 56 252 56 125 q 105 485 56 378 q 238 652 154 592 q 422 711 322 711 q 601 640 538 711 q 664 444 664 568 q 616 210 664 316 q 485 43 569 103 q 298 -17 401 -17 m 304 40 q 452 91 385 40 q 559 234 520 142 q 599 437 599 326 q 551 599 599 544 q 415 654 503 654 q 268 603 336 654 q 160 459 199 551 q 121 257 121 368 q 170 97 121 155 q 304 40 219 40 m 581 1028 l 656 1028 l 451 806 l 385 806 l 581 1028 z "},"ò":{"ha":720,"x_min":56,"x_max":664,"o":"m 298 -17 q 120 54 184 -17 q 56 252 56 125 q 105 485 56 378 q 238 652 154 592 q 422 711 322 711 q 601 640 538 711 q 664 444 664 568 q 616 210 664 316 q 485 43 569 103 q 298 -17 401 -17 m 304 40 q 452 91 385 40 q 559 234 520 142 q 599 437 599 326 q 551 599 599 544 q 415 654 503 654 q 268 603 336 654 q 160 459 199 551 q 121 257 121 368 q 170 97 121 155 q 304 40 219 40 m 318 1028 l 385 1028 l 515 806 l 458 806 l 318 1028 z "},"ô":{"ha":720,"x_min":56,"x_max":664,"o":"m 298 -17 q 120 54 184 -17 q 56 252 56 125 q 105 485 56 378 q 238 652 154 592 q 422 711 322 711 q 601 640 538 711 q 664 444 664 568 q 616 210 664 316 q 485 43 569 103 q 298 -17 401 -17 m 304 40 q 452 91 385 40 q 559 234 520 142 q 599 437 599 326 q 551 599 599 544 q 415 654 503 654 q 268 603 336 654 q 160 459 199 551 q 121 257 121 368 q 170 97 121 155 q 304 40 219 40 m 471 1034 l 501 1034 l 608 806 l 553 806 l 477 972 l 338 806 l 280 806 l 471 1034 z "},"ö":{"ha":720,"x_min":56,"x_max":664,"o":"m 298 -17 q 120 54 184 -17 q 56 252 56 125 q 105 485 56 378 q 238 652 154 592 q 422 711 322 711 q 601 640 538 711 q 664 444 664 568 q 616 210 664 316 q 485 43 569 103 q 298 -17 401 -17 m 304 40 q 452 91 385 40 q 559 234 520 142 q 599 437 599 326 q 551 599 599 544 q 415 654 503 654 q 268 603 336 654 q 160 459 199 551 q 121 257 121 368 q 170 97 121 155 q 304 40 219 40 m 497 854 q 512 888 497 876 q 545 901 527 901 q 580 888 564 901 q 596 854 596 875 q 582 820 596 833 q 546 806 567 806 q 512 819 526 806 q 497 854 497 832 m 271 854 q 286 888 271 876 q 318 901 300 901 q 354 888 338 901 q 370 854 370 875 q 355 820 370 833 q 319 806 340 806 q 285 819 300 806 q 271 854 271 832 z "},"õ":{"ha":720,"x_min":56,"x_max":688,"o":"m 298 -17 q 120 54 184 -17 q 56 252 56 125 q 105 485 56 378 q 238 652 154 592 q 422 711 322 711 q 601 640 538 711 q 664 444 664 568 q 616 210 664 316 q 485 43 569 103 q 298 -17 401 -17 m 304 40 q 452 91 385 40 q 559 234 520 142 q 599 437 599 326 q 551 599 599 544 q 415 654 503 654 q 268 603 336 654 q 160 459 199 551 q 121 257 121 368 q 170 97 121 155 q 304 40 219 40 m 240 806 q 385 956 268 956 q 434 942 414 956 q 472 911 454 928 q 508 881 490 895 q 551 867 526 867 q 637 965 616 867 l 688 965 q 543 814 655 814 q 493 828 513 814 q 455 858 473 842 q 420 889 438 875 q 378 903 403 903 q 322 881 344 903 q 289 806 300 859 l 240 806 z "},"ú":{"ha":749,"x_min":78,"x_max":710,"o":"m 180 694 l 243 694 l 161 296 q 143 180 143 204 q 262 40 143 40 q 388 91 320 40 q 510 222 456 142 q 578 371 564 302 l 647 694 l 710 694 l 603 193 q 572 0 579 78 l 510 0 l 543 197 l 541 197 q 250 -17 408 -17 q 78 174 78 -17 q 82 220 78 187 q 180 694 87 252 m 590 1028 l 665 1028 l 460 806 l 394 806 l 590 1028 z "},"ù":{"ha":749,"x_min":78,"x_max":710,"o":"m 180 694 l 243 694 l 161 296 q 143 180 143 204 q 262 40 143 40 q 388 91 320 40 q 510 222 456 142 q 578 371 564 302 l 647 694 l 710 694 l 603 193 q 572 0 579 78 l 510 0 l 543 197 l 541 197 q 250 -17 408 -17 q 78 174 78 -17 q 82 220 78 187 q 180 694 87 252 m 344 1028 l 410 1028 l 541 806 l 484 806 l 344 1028 z "},"û":{"ha":749,"x_min":78,"x_max":710,"o":"m 180 694 l 243 694 l 161 296 q 143 180 143 204 q 262 40 143 40 q 388 91 320 40 q 510 222 456 142 q 578 371 564 302 l 647 694 l 710 694 l 603 193 q 572 0 579 78 l 510 0 l 543 197 l 541 197 q 250 -17 408 -17 q 78 174 78 -17 q 82 220 78 187 q 180 694 87 252 m 490 1034 l 521 1034 l 627 806 l 573 806 l 497 972 l 358 806 l 300 806 l 490 1034 z "},"ü":{"ha":749,"x_min":78,"x_max":710,"o":"m 180 694 l 243 694 l 161 296 q 143 180 143 204 q 262 40 143 40 q 388 91 320 40 q 510 222 456 142 q 578 371 564 302 l 647 694 l 710 694 l 603 193 q 572 0 579 78 l 510 0 l 543 197 l 541 197 q 250 -17 408 -17 q 78 174 78 -17 q 82 220 78 187 q 180 694 87 252 m 531 854 q 546 888 531 876 q 578 901 561 901 q 614 888 598 901 q 630 854 630 875 q 615 820 630 833 q 580 806 601 806 q 546 819 560 806 q 531 854 531 832 m 304 854 q 319 888 304 876 q 352 901 334 901 q 388 888 372 901 q 404 854 404 875 q 389 820 404 833 q 353 806 374 806 q 319 819 334 806 q 304 854 304 832 z "},"†":{"ha":518,"x_min":125,"x_max":550,"o":"m 300 688 l 125 688 l 138 745 l 313 745 l 358 962 l 421 962 l 375 745 l 550 745 l 538 688 l 363 688 l 254 174 l 192 174 l 300 688 z "},"°":{"ha":536,"x_min":193,"x_max":534,"o":"m 366 631 q 244 681 294 631 q 193 803 193 732 q 243 922 193 872 q 363 972 294 972 q 484 923 433 972 q 534 803 534 873 q 485 682 534 732 q 366 631 435 631 m 363 682 q 444 718 409 682 q 478 803 478 753 q 446 886 478 851 q 366 921 413 921 q 283 886 317 921 q 249 803 249 850 q 281 718 249 754 q 363 682 314 682 z "},"¢":{"ha":715,"x_min":134,"x_max":684,"o":"m 335 110 q 188 198 243 125 q 134 380 134 271 q 183 606 134 504 q 314 768 232 708 q 489 833 396 828 l 515 953 l 578 953 l 551 831 q 684 786 629 821 l 667 717 q 539 775 622 765 l 408 164 q 576 235 492 172 l 559 157 q 396 106 475 110 l 366 -39 l 302 -39 l 335 110 m 478 775 q 336 712 401 767 q 233 568 271 656 q 196 383 196 480 q 236 238 196 295 q 347 167 277 180 l 478 775 z "},"£":{"ha":715,"x_min":3,"x_max":746,"o":"m 267 449 l 113 449 l 125 510 l 279 510 l 322 707 q 429 916 353 844 q 615 989 505 989 q 746 962 687 989 l 732 900 q 681 922 713 913 q 612 932 649 932 q 464 872 523 932 q 382 699 406 813 l 342 510 l 550 510 l 538 449 l 329 449 l 298 310 q 111 57 258 123 l 604 57 l 591 0 l 3 0 l 16 58 q 236 306 197 122 l 267 449 z "},"§":{"ha":623,"x_min":37,"x_max":623,"o":"m 49 57 q 121 25 80 38 q 193 12 163 12 q 357 147 357 12 q 334 227 357 193 q 249 301 312 260 q 161 386 187 341 q 135 485 135 431 q 174 604 135 553 q 296 699 213 655 q 272 749 282 717 q 261 800 261 781 q 325 954 261 896 q 494 1011 388 1011 q 623 987 561 1011 l 610 922 q 485 954 554 954 q 368 917 409 954 q 326 811 326 879 q 354 728 326 764 q 437 656 382 692 q 553 471 553 581 q 510 347 553 401 q 386 262 467 294 q 414 209 406 239 q 422 157 422 180 q 360 8 422 62 q 186 -45 298 -45 q 37 -12 105 -45 l 49 57 m 353 301 q 453 366 418 324 q 488 461 488 408 q 463 544 488 507 q 386 616 439 581 l 329 657 q 200 490 200 601 q 220 414 200 446 q 296 343 239 382 l 353 301 z "},"•":{"ha":543,"x_min":117,"x_max":465,"o":"m 117 431 q 169 554 117 502 q 292 606 220 606 q 414 554 362 606 q 465 431 465 503 q 414 309 465 360 q 290 257 362 257 q 168 308 219 257 q 117 431 117 359 z "},"¶":{"ha":659,"x_min":131,"x_max":640,"o":"m 300 612 q 180 664 229 612 q 131 791 131 715 q 181 921 131 870 q 304 972 231 972 l 640 972 l 640 914 l 551 914 l 551 0 l 493 0 l 493 914 l 358 914 l 358 0 l 300 0 l 300 612 z "},"ß":{"ha":736,"x_min":39,"x_max":696,"o":"m 493 1044 q 640 986 585 1044 q 696 836 696 928 q 632 660 696 739 q 461 551 568 581 l 461 549 q 600 458 551 524 q 650 292 650 392 q 561 67 650 152 q 328 -17 473 -17 q 264 -10 303 -17 q 216 0 225 -3 l 231 64 q 334 40 292 40 q 514 107 447 40 q 582 285 582 174 q 526 449 582 391 q 353 524 469 507 l 363 578 q 558 663 489 597 q 628 829 628 730 q 591 943 628 899 q 489 987 553 987 q 261 753 311 987 l 102 0 l 39 0 l 201 762 q 493 1044 262 1044 z "},"­":{"ha":553,"x_min":97,"x_max":482,"o":"m 111 437 l 482 437 l 468 376 l 97 376 l 111 437 z "},"®":{"ha":1223,"x_min":201,"x_max":1016,"o":"m 608 173 q 320 292 439 173 q 201 578 201 410 q 320 867 201 749 q 608 986 440 986 q 896 867 776 986 q 1016 581 1016 748 q 897 292 1016 411 q 608 173 778 173 m 606 940 q 354 834 459 940 q 250 578 250 728 q 354 325 250 431 q 606 219 458 219 q 861 325 755 219 q 967 578 967 431 q 861 834 967 728 q 606 940 754 940 m 737 327 l 675 460 q 622 539 648 519 q 565 559 597 559 l 513 559 l 513 327 l 457 327 l 457 850 l 600 850 q 734 813 687 850 q 781 713 781 775 q 644 568 781 593 l 644 566 q 730 471 690 556 l 800 327 l 737 327 m 513 808 l 513 602 l 607 602 q 692 629 660 602 q 724 704 724 656 q 594 808 724 808 l 513 808 z "},"©":{"ha":1307,"x_min":174,"x_max":1186,"o":"m 174 485 q 241 738 174 622 q 427 921 309 853 q 679 989 545 989 q 932 921 814 989 q 1118 735 1050 853 q 1186 486 1186 618 q 1117 232 1186 348 q 931 50 1048 116 q 681 -17 814 -17 q 431 48 548 -17 q 244 229 315 113 q 174 485 174 346 m 679 35 q 903 94 800 35 q 1069 259 1006 153 q 1132 485 1132 365 q 1071 709 1132 604 q 905 875 1010 813 q 679 937 800 937 q 458 879 561 937 q 291 714 355 820 q 228 485 228 608 q 290 258 228 363 q 456 94 351 153 q 679 35 560 35 m 869 183 q 786 146 822 158 q 700 135 750 135 q 460 232 557 135 q 364 476 364 328 q 408 659 364 578 q 531 786 452 741 q 707 831 610 831 q 793 820 745 831 q 867 794 842 809 l 867 736 q 792 764 840 752 q 696 775 743 775 q 560 739 622 775 q 463 636 498 703 q 427 490 427 569 q 506 275 427 357 q 707 192 586 192 q 795 205 750 192 q 869 237 840 218 l 869 183 z "},"™":{"ha":1075,"x_min":122,"x_max":1008,"o":"m 545 972 l 623 972 l 774 603 l 777 603 l 935 972 l 1008 972 l 1008 524 l 953 524 l 953 885 l 950 885 l 796 524 l 750 524 l 603 885 l 600 885 l 600 524 l 545 524 l 545 972 m 272 920 l 122 920 l 122 972 l 479 972 l 479 920 l 328 920 l 328 524 l 272 524 l 272 920 z "},"´":{"ha":416,"x_min":214,"x_max":485,"o":"m 410 1028 l 485 1028 l 279 806 l 214 806 l 410 1028 z "},"¨":{"ha":416,"x_min":153,"x_max":478,"o":"m 379 854 q 394 888 379 876 q 427 901 409 901 q 462 888 446 901 q 478 854 478 875 q 464 820 478 833 q 428 806 449 806 q 394 819 408 806 q 379 854 379 832 m 153 854 q 168 888 153 876 q 200 901 182 901 q 236 888 220 901 q 252 854 252 875 q 237 820 252 833 q 201 806 222 806 q 167 819 182 806 q 153 854 153 832 z "},"≠":{"ha":903,"x_min":165,"x_max":781,"o":"m 357 245 l 165 245 l 165 302 l 386 302 l 492 509 l 165 509 l 165 566 l 522 566 l 646 806 l 707 806 l 583 566 l 781 566 l 781 509 l 554 509 l 447 302 l 781 302 l 781 245 l 418 245 l 292 0 l 229 0 l 357 245 z "},"Æ":{"ha":1109,"x_min":-78,"x_max":1150,"o":"m 603 972 l 1150 972 l 1136 907 l 749 907 l 667 519 l 1026 519 l 1014 458 l 654 458 l 570 61 l 979 61 l 966 0 l 490 0 l 554 302 l 214 302 l 1 0 l -78 0 l 603 972 m 567 364 l 684 907 l 628 907 l 256 364 l 567 364 z "},"Ø":{"ha":1047,"x_min":39,"x_max":1060,"o":"m 167 147 q 103 403 103 252 q 170 702 103 568 q 359 912 237 836 q 625 989 481 989 q 903 882 802 989 l 1019 1000 l 1060 961 l 937 839 q 1010 574 1010 732 q 945 271 1010 406 q 760 59 880 136 q 492 -17 640 -17 q 200 102 300 -17 l 81 -18 l 39 20 l 167 147 m 854 833 q 624 928 768 928 q 389 861 493 928 q 229 674 286 794 q 172 404 172 554 q 216 197 172 281 l 854 833 m 249 150 q 494 45 334 45 q 727 111 626 45 q 884 297 829 177 q 940 570 940 416 q 886 789 940 701 l 249 150 z "},"∞":{"ha":1135,"x_min":83,"x_max":1095,"o":"m 587 347 q 465 202 535 255 q 325 149 395 149 q 150 219 216 149 q 83 401 83 290 q 154 584 83 508 q 325 660 225 660 q 474 608 407 660 q 589 461 541 555 q 712 606 641 553 q 852 660 783 660 q 1027 590 960 660 q 1095 407 1095 520 q 1023 224 1095 299 q 852 149 951 149 q 587 347 693 149 m 615 404 q 723 253 665 302 q 852 204 781 204 q 986 260 935 204 q 1036 407 1036 316 q 984 548 1036 491 q 852 606 932 606 q 726 555 783 606 q 615 404 669 505 m 562 404 q 456 556 513 507 q 325 606 398 606 q 192 549 243 606 q 140 401 140 492 q 192 260 140 316 q 325 204 244 204 q 452 254 395 204 q 562 404 509 304 z "},"±":{"ha":903,"x_min":158,"x_max":774,"o":"m 158 486 l 437 486 l 437 765 l 494 765 l 494 486 l 774 486 l 774 429 l 494 429 l 494 150 l 437 150 l 437 429 l 158 429 l 158 486 m 158 57 l 774 57 l 774 0 l 158 0 l 158 57 z "},"≤":{"ha":903,"x_min":165,"x_max":781,"o":"m 191 468 l 755 785 l 755 721 l 296 464 l 296 461 l 755 235 l 755 170 l 191 456 l 191 468 m 165 100 l 781 100 l 781 43 l 165 43 l 165 100 z "},"≥":{"ha":903,"x_min":165,"x_max":781,"o":"m 191 235 l 650 461 l 650 464 l 191 721 l 191 785 l 755 468 l 755 456 l 191 170 l 191 235 m 165 100 l 781 100 l 781 43 l 165 43 l 165 100 z "},"¥":{"ha":715,"x_min":45,"x_max":798,"o":"m 297 225 l 45 225 l 57 282 l 310 282 l 345 449 l 92 449 l 104 505 l 336 505 l 179 972 l 244 972 l 371 583 q 387 519 378 561 l 395 519 l 404 534 l 437 586 l 726 972 l 798 972 l 439 505 l 672 505 l 660 449 l 407 449 l 372 282 l 625 282 l 612 225 l 359 225 l 313 0 l 250 0 l 297 225 z "},"µ":{"ha":766,"x_min":-37,"x_max":710,"o":"m 180 694 l 243 694 l 161 296 q 143 180 143 204 q 262 40 143 40 q 390 92 319 40 q 511 219 461 143 q 578 371 562 294 l 647 694 l 710 694 l 602 187 q 591 100 591 138 q 604 62 591 76 q 644 49 618 49 q 694 56 673 49 l 682 1 q 617 -8 654 -8 q 551 15 574 -8 q 528 80 528 39 q 543 197 528 108 l 541 197 q 250 -17 408 -17 q 110 66 147 -17 l 25 -326 l -37 -326 l 180 694 z "},"∂":{"ha":722,"x_min":77,"x_max":694,"o":"m 440 1007 q 629 920 564 1007 q 694 659 694 832 q 644 325 694 488 q 503 73 593 162 q 297 -17 412 -17 q 135 48 193 -17 q 77 232 77 113 q 123 461 77 355 q 255 631 170 568 q 436 694 340 694 q 623 557 567 694 l 627 557 q 632 657 632 591 q 584 878 632 806 q 432 950 535 950 q 272 893 351 950 l 288 962 q 440 1007 366 1007 m 614 478 q 546 594 594 552 q 431 636 497 636 q 288 584 355 636 q 181 439 221 532 q 142 235 142 346 q 185 91 142 142 q 302 40 229 40 q 501 160 414 40 q 614 478 587 281 z "},"∑":{"ha":848,"x_min":46,"x_max":846,"o":"m 46 -296 l 534 332 l 87 940 l 87 972 l 803 972 l 803 911 l 191 911 l 615 334 l 157 -258 l 846 -258 l 846 -319 l 46 -319 l 46 -296 z "},"∏":{"ha":1038,"x_min":150,"x_max":930,"o":"m 150 972 l 930 972 l 930 -319 l 864 -319 l 864 911 l 216 911 l 216 -319 l 150 -319 l 150 972 z "},"∫":{"ha":715,"x_min":143,"x_max":614,"o":"m 143 -260 q 220 -279 167 -279 q 347 -107 347 -279 l 347 815 l 347 824 q 400 979 347 920 q 541 1039 452 1039 q 614 1026 587 1039 l 614 962 q 538 982 590 982 q 410 810 410 982 l 410 -113 l 410 -121 q 357 -277 410 -217 q 216 -336 304 -336 q 143 -323 170 -336 l 143 -260 z "},"ª":{"ha":551,"x_min":126,"x_max":572,"o":"m 432 486 q 449 621 435 541 l 447 621 q 363 513 408 552 q 260 475 318 475 q 160 521 195 475 q 126 653 126 567 q 165 824 126 747 q 274 945 205 901 q 422 989 343 989 q 572 971 490 989 l 507 654 q 486 486 486 554 l 432 486 m 514 929 q 414 940 444 940 q 247 859 313 940 q 180 659 180 779 q 272 525 180 525 q 353 560 309 525 q 431 654 397 595 q 481 782 465 713 l 514 929 z "},"º":{"ha":621,"x_min":170,"x_max":615,"o":"m 351 472 q 218 524 266 472 q 170 669 170 576 q 243 899 170 811 q 435 986 317 986 q 566 933 517 986 q 615 790 615 880 q 543 559 615 646 q 351 472 470 472 m 355 525 q 502 596 448 525 q 555 783 555 668 q 522 896 555 857 q 429 935 488 935 q 283 863 338 935 q 229 676 229 792 q 262 565 229 604 q 355 525 294 525 z "},"Ω":{"ha":1048,"x_min":1,"x_max":1036,"o":"m 14 61 l 257 61 q 97 415 97 202 q 168 710 97 578 q 362 915 238 842 q 633 989 486 989 q 842 940 749 989 q 985 802 934 890 q 1036 604 1036 713 q 945 295 1036 439 q 689 61 854 152 l 922 61 l 909 0 l 586 0 l 599 61 q 868 289 772 149 q 964 600 964 429 q 871 836 964 743 q 632 928 778 928 q 394 862 501 928 q 228 678 288 795 q 168 418 168 560 q 204 227 168 302 q 338 61 240 152 l 325 0 l 1 0 l 14 61 z "},"æ":{"ha":1133,"x_min":56,"x_max":1105,"o":"m 541 265 q 395 50 469 117 q 231 -17 321 -17 q 100 45 144 -17 q 56 225 56 108 q 114 471 56 358 q 276 647 173 583 q 503 711 380 711 q 612 699 566 711 q 710 657 659 686 q 896 711 791 711 q 1047 666 988 711 q 1105 545 1105 620 q 988 371 1105 427 q 606 313 871 315 l 604 292 l 604 271 q 658 99 604 159 q 814 40 712 40 q 1004 97 901 40 l 991 32 q 804 -17 904 -17 q 611 58 678 -17 q 543 265 543 133 l 541 265 m 610 370 q 935 409 829 370 q 1040 538 1040 448 q 1001 624 1040 593 q 888 654 962 654 q 703 580 777 654 q 610 370 629 505 m 665 619 q 494 654 597 654 q 301 598 388 654 q 165 444 214 543 q 117 232 117 346 q 147 89 117 138 q 236 40 177 40 q 411 137 332 40 q 547 395 490 235 q 665 619 604 559 z "},"ø":{"ha":720,"x_min":-41,"x_max":777,"o":"m -41 -5 l 82 114 q 56 252 56 174 q 105 485 56 378 q 238 652 154 592 q 422 711 322 711 q 612 627 548 711 l 737 747 l 777 708 l 640 576 q 664 444 664 519 q 616 210 664 316 q 485 43 569 103 q 298 -17 401 -17 q 111 65 175 -17 l -4 -46 l -41 -5 m 564 579 q 415 654 515 654 q 268 603 336 654 q 160 459 199 551 q 121 257 121 368 q 134 164 121 203 l 564 579 m 158 113 q 304 40 209 40 q 452 91 385 40 q 559 234 520 142 q 599 437 599 326 q 587 526 599 484 l 158 113 z "},"¿":{"ha":513,"x_min":-40,"x_max":406,"o":"m 351 597 q 312 613 328 597 q 296 652 296 628 q 312 691 296 675 q 351 707 328 707 q 390 691 374 707 q 406 652 406 675 q 390 613 406 628 q 351 597 374 597 m 170 -294 q 17 -237 74 -294 q -40 -89 -40 -180 q 2 64 -40 -3 q 143 203 43 132 q 216 261 192 237 q 253 314 239 286 q 282 421 266 342 l 343 421 q 291 264 325 317 q 179 157 257 210 q 60 45 95 99 q 25 -82 25 -9 q 65 -195 25 -153 q 178 -237 106 -237 q 361 -184 260 -237 l 349 -253 q 170 -294 252 -294 z "}," ":{"ha":382,"x_min":0,"x_max":0,"o":""},"¡":{"ha":364,"x_min":16,"x_max":296,"o":"m 241 597 q 202 613 218 597 q 186 652 186 628 q 202 691 186 675 q 241 707 218 707 q 280 691 264 707 q 296 652 296 675 q 280 613 296 628 q 241 597 264 597 m 171 421 l 229 421 l 87 -278 l 16 -278 l 171 421 z "},"¬":{"ha":903,"x_min":158,"x_max":774,"o":"m 158 433 l 774 433 l 774 100 l 715 100 l 715 376 l 158 376 l 158 433 z "},"√":{"ha":903,"x_min":115,"x_max":753,"o":"m 227 526 l 115 526 l 115 582 l 269 582 l 464 98 l 697 1028 l 753 1028 l 496 -1 l 443 -1 l 227 526 z "},"ƒ":{"ha":715,"x_min":16,"x_max":664,"o":"m 22 -123 q 71 -134 53 -134 q 172 -85 135 -134 q 236 86 210 -37 l 338 568 l 262 568 l 275 624 l 350 624 l 385 781 q 589 972 427 972 q 664 961 610 972 l 650 905 q 616 913 637 909 q 589 917 595 917 q 501 886 536 917 q 449 781 466 855 l 414 624 l 539 624 l 528 568 l 401 568 l 300 90 q 215 -123 269 -56 q 69 -189 161 -189 q 16 -179 46 -189 l 22 -123 z "},"≈":{"ha":903,"x_min":187,"x_max":758,"o":"m 187 458 q 233 579 191 535 q 346 623 275 623 q 478 568 410 623 q 547 520 521 534 q 603 507 574 507 q 674 535 648 507 q 705 615 701 562 l 758 615 q 712 495 754 539 q 600 452 670 452 q 464 509 533 452 q 396 555 420 544 q 345 566 372 566 q 240 458 248 566 l 187 458 m 187 195 q 234 315 191 272 q 346 358 276 358 q 478 304 414 358 q 541 259 512 276 q 603 243 570 243 q 674 271 648 243 q 705 351 701 300 l 758 351 q 713 231 754 274 q 600 187 671 187 q 464 244 534 187 q 398 289 423 277 q 345 301 374 301 q 240 195 248 301 l 187 195 z "},"Δ":{"ha":873,"x_min":-18,"x_max":753,"o":"m 539 972 l 603 972 l 753 40 l 745 0 l -18 0 l -9 40 l 539 972 m 679 61 l 562 814 q 555 888 560 825 l 553 888 l 532 846 l 79 61 l 679 61 z "},"«":{"ha":643,"x_min":69,"x_max":604,"o":"m 285 364 l 522 597 l 604 597 l 358 358 l 496 136 l 425 136 l 285 364 m 69 364 l 306 597 l 387 597 l 143 358 l 281 136 l 210 136 l 69 364 z "},"»":{"ha":643,"x_min":39,"x_max":574,"o":"m 500 376 l 361 599 l 432 599 l 574 371 l 336 138 l 254 138 l 500 376 m 285 376 l 147 599 l 218 599 l 358 371 l 121 138 l 39 138 l 285 376 z "},"…":{"ha":925,"x_min":32,"x_max":764,"o":"m 708 -11 q 670 5 685 -11 q 654 45 654 21 q 670 83 654 68 q 708 98 685 98 q 748 83 732 98 q 764 45 764 68 q 748 5 764 21 q 708 -11 732 -11 m 342 45 q 357 83 342 68 q 396 98 373 98 q 435 83 419 98 q 452 45 452 68 q 435 5 452 21 q 396 -11 419 -11 q 357 5 373 -11 q 342 45 342 21 m 86 -11 q 47 5 63 -11 q 32 45 32 21 q 47 83 32 68 q 86 98 63 98 q 125 83 109 98 q 142 45 142 68 q 125 5 142 21 q 86 -11 109 -11 z "},"À":{"ha":818,"x_min":-57,"x_max":728,"o":"m 507 972 l 570 972 l 728 0 l 660 0 l 611 302 l 193 302 l 14 0 l -57 0 l 507 972 m 603 364 l 533 814 q 526 888 528 849 l 524 888 l 501 843 l 227 364 l 603 364 m 405 1264 l 471 1264 l 602 1042 l 545 1042 l 405 1264 z "},"Ã":{"ha":818,"x_min":-57,"x_max":774,"o":"m 507 972 l 570 972 l 728 0 l 660 0 l 611 302 l 193 302 l 14 0 l -57 0 l 507 972 m 603 364 l 533 814 q 526 888 528 849 l 524 888 l 501 843 l 227 364 l 603 364 m 326 1040 q 471 1190 354 1190 q 520 1176 500 1190 q 558 1145 541 1162 q 594 1115 576 1128 q 637 1101 612 1101 q 724 1199 702 1101 l 774 1199 q 629 1048 741 1048 q 579 1062 599 1048 q 542 1092 559 1076 q 507 1123 524 1109 q 464 1137 489 1137 q 408 1115 430 1137 q 375 1040 387 1093 l 326 1040 z "},"Õ":{"ha":1047,"x_min":103,"x_max":1010,"o":"m 492 -17 q 207 97 310 -17 q 103 403 103 210 q 171 701 103 566 q 358 912 239 836 q 625 989 477 989 q 905 874 800 989 q 1010 574 1010 759 q 944 273 1010 410 q 761 59 879 136 q 492 -17 642 -17 m 494 45 q 726 110 627 45 q 883 297 826 175 q 940 570 940 419 q 855 830 940 733 q 624 928 770 928 q 390 862 494 928 q 230 676 287 795 q 172 404 172 556 q 257 141 172 237 q 494 45 342 45 m 401 1039 q 546 1189 429 1189 q 595 1175 575 1189 q 633 1144 616 1161 q 669 1114 651 1128 q 712 1100 688 1100 q 799 1198 777 1100 l 849 1198 q 705 1047 817 1047 q 654 1061 674 1047 q 617 1092 634 1075 q 582 1122 600 1108 q 539 1136 564 1136 q 484 1114 505 1136 q 450 1039 462 1092 l 401 1039 z "},"Œ":{"ha":1293,"x_min":103,"x_max":1334,"o":"m 1163 61 l 1150 0 l 720 0 l 673 -3 q 492 -17 534 -17 q 207 97 311 -17 q 103 403 103 210 q 171 701 103 565 q 361 912 239 836 q 637 989 484 989 q 798 981 689 989 l 914 972 l 1334 972 l 1321 911 l 934 911 l 850 521 l 1211 521 l 1198 460 l 838 460 l 753 61 l 1163 61 m 866 907 q 637 928 747 928 q 395 862 500 928 q 231 675 290 795 q 173 404 173 554 q 258 141 173 237 q 495 45 342 45 q 690 69 617 45 l 866 907 z "},"œ":{"ha":1177,"x_min":56,"x_max":1149,"o":"m 596 182 q 471 34 547 85 q 298 -17 394 -17 q 120 54 184 -17 q 56 252 56 125 q 105 485 56 378 q 238 652 154 592 q 422 711 322 711 q 574 660 515 711 q 648 515 633 609 l 652 515 q 779 661 701 610 q 950 711 857 711 q 1095 666 1040 711 q 1149 542 1149 621 q 1033 370 1149 425 q 650 310 916 315 l 648 289 l 648 268 q 703 100 648 160 q 857 40 758 40 q 1047 97 943 40 l 1035 32 q 847 -17 945 -17 q 679 36 740 -17 q 599 182 618 88 l 596 182 m 659 367 q 979 407 876 367 q 1083 538 1083 447 q 940 654 1083 654 q 761 576 837 654 q 659 367 684 497 m 304 40 q 452 91 385 40 q 559 234 520 142 q 599 437 599 326 q 551 599 599 544 q 415 654 503 654 q 268 603 336 654 q 160 459 199 551 q 121 257 121 368 q 170 97 121 155 q 304 40 219 40 z "},"–":{"ha":694,"x_min":5,"x_max":713,"o":"m 18 437 l 713 437 l 700 376 l 5 376 l 18 437 z "},"—":{"ha":1389,"x_min":5,"x_max":1407,"o":"m 18 437 l 1407 437 l 1394 376 l 5 376 l 18 437 z "},"“":{"ha":449,"x_min":164,"x_max":488,"o":"m 437 972 l 488 972 l 403 668 l 332 668 l 437 972 m 268 972 l 319 972 l 236 668 l 164 668 l 268 972 z "},"”":{"ha":449,"x_min":164,"x_max":488,"o":"m 415 972 l 488 972 l 383 668 l 332 668 l 415 972 m 249 972 l 319 972 l 214 668 l 164 668 l 249 972 z "},"‘":{"ha":281,"x_min":164,"x_max":319,"o":"m 268 972 l 319 972 l 236 668 l 164 668 l 268 972 z "},"’":{"ha":281,"x_min":164,"x_max":319,"o":"m 249 972 l 319 972 l 214 668 l 164 668 l 249 972 z "},"÷":{"ha":903,"x_min":158,"x_max":774,"o":"m 467 587 q 429 603 445 587 q 414 640 414 618 q 429 677 414 662 q 467 692 445 692 q 503 677 488 692 q 518 640 518 662 q 503 603 518 618 q 467 587 488 587 m 158 433 l 774 433 l 774 376 l 158 376 l 158 433 m 414 171 q 429 208 414 193 q 467 222 445 222 q 503 208 488 222 q 518 171 518 193 q 503 134 518 149 q 467 118 488 118 q 429 134 445 118 q 414 171 414 149 z "},"◊":{"ha":770,"x_min":87,"x_max":726,"o":"m 87 485 l 386 972 l 427 972 l 726 486 l 427 0 l 386 0 l 87 485 m 661 486 l 407 905 l 153 486 l 407 65 l 661 486 z "},"ÿ":{"ha":629,"x_min":-114,"x_max":708,"o":"m -100 -252 q -50 -264 -79 -264 q 36 -236 -3 -264 q 121 -136 75 -208 l 212 9 l 90 694 l 154 694 l 253 132 l 258 81 l 261 81 l 268 92 l 635 694 l 708 694 l 196 -129 q 73 -283 126 -241 q -54 -326 20 -326 q -114 -315 -93 -326 l -100 -252 m 467 854 q 481 888 467 876 q 514 901 496 901 q 550 888 534 901 q 566 854 566 875 q 551 820 566 833 q 515 806 536 806 q 481 819 496 806 q 467 854 467 832 m 240 854 q 255 888 240 876 q 288 901 270 901 q 323 888 307 901 q 339 854 339 875 q 325 820 339 833 q 289 806 310 806 q 255 819 269 806 q 240 854 240 832 z "},"Ÿ":{"ha":750,"x_min":168,"x_max":844,"o":"m 336 368 l 168 972 l 239 972 l 364 507 q 382 433 379 452 l 385 433 q 422 489 395 453 l 766 972 l 844 972 l 406 370 l 328 0 l 258 0 l 336 368 m 580 1105 q 595 1139 580 1126 q 627 1152 610 1152 q 663 1138 647 1152 q 679 1105 679 1125 q 664 1070 679 1084 q 629 1056 650 1056 q 594 1069 609 1056 q 580 1105 580 1082 m 353 1105 q 368 1139 353 1126 q 401 1152 383 1152 q 436 1138 420 1152 q 452 1105 452 1125 q 438 1070 452 1084 q 402 1056 423 1056 q 368 1069 382 1056 q 353 1105 353 1082 z "},"⁄":{"ha":186,"x_min":-338,"x_max":524,"o":"m 450 972 l 524 972 l -264 0 l -338 0 l 450 972 z "},"€":{"ha":715,"x_min":47,"x_max":803,"o":"m 60 396 l 161 396 q 180 557 164 481 l 93 557 l 106 614 l 196 614 q 366 890 250 791 q 639 989 481 989 q 803 953 717 989 l 790 888 q 633 932 714 932 q 408 849 505 932 q 262 614 311 766 l 646 614 l 633 557 l 248 557 q 228 396 231 485 l 600 396 l 587 339 l 228 339 q 468 40 243 40 q 556 55 515 40 q 633 87 597 70 l 623 24 q 535 -8 571 1 q 454 -17 499 -17 q 244 75 319 -17 q 161 339 170 167 l 47 339 l 60 396 z "},"‹":{"ha":427,"x_min":69,"x_max":387,"o":"m 69 364 l 306 597 l 387 597 l 143 358 l 281 136 l 210 136 l 69 364 z "},"›":{"ha":427,"x_min":39,"x_max":357,"o":"m 283 376 l 146 599 l 216 599 l 357 371 l 121 138 l 39 138 l 283 376 z "},"ﬁ":{"ha":655,"x_min":7,"x_max":676,"o":"m 192 637 l 66 637 l 79 694 l 204 694 l 232 825 q 314 990 255 935 q 463 1044 373 1044 q 541 1034 504 1044 l 528 972 q 456 987 506 987 q 290 808 327 987 l 267 694 l 450 694 l 437 637 l 254 637 l 69 -231 l 7 -231 l 192 637 m 544 694 l 607 694 l 503 201 q 486 83 486 120 q 528 43 486 43 q 586 54 557 43 l 574 2 q 508 -14 541 -14 q 422 79 422 -14 q 428 142 422 111 q 544 694 433 174 m 623 869 q 587 884 602 869 q 572 922 572 899 q 587 958 572 944 q 623 972 603 972 q 660 959 644 972 q 676 922 676 945 q 661 885 676 901 q 623 869 645 869 z "},"ﬂ":{"ha":648,"x_min":7,"x_max":671,"o":"m 192 637 l 66 637 l 79 694 l 204 694 l 232 825 q 314 990 255 935 q 463 1044 373 1044 q 541 1034 504 1044 l 528 972 q 456 987 506 987 q 290 808 327 987 l 267 694 l 450 694 l 437 637 l 254 637 l 69 -231 l 7 -231 l 192 637 m 608 1028 l 671 1028 l 496 201 q 479 83 479 120 q 522 43 479 43 q 579 54 551 43 l 568 2 q 501 -14 534 -14 q 415 79 415 -14 q 424 157 415 109 q 608 1028 433 205 z "},"‡":{"ha":518,"x_min":64,"x_max":550,"o":"m 239 399 l 64 399 l 77 456 l 252 456 l 300 688 l 125 688 l 138 745 l 313 745 l 358 962 l 421 962 l 375 745 l 550 745 l 538 688 l 363 688 l 314 456 l 489 456 l 476 399 l 301 399 l 254 174 l 192 174 l 239 399 z "},"·":{"ha":309,"x_min":127,"x_max":237,"o":"m 181 424 q 142 440 158 424 q 127 479 127 456 q 142 518 127 503 q 181 533 158 533 q 220 518 204 533 q 237 479 237 503 q 220 440 237 456 q 181 424 204 424 z "},"‚":{"ha":281,"x_min":-11,"x_max":144,"o":"m 74 149 l 144 149 l 39 -153 l -11 -153 l 74 149 z "},"„":{"ha":449,"x_min":-11,"x_max":313,"o":"m 240 149 l 313 149 l 208 -155 l 157 -155 l 240 149 m 74 149 l 144 149 l 39 -155 l -11 -155 l 74 149 z "},"‰":{"ha":1626,"x_min":104,"x_max":1571,"o":"m 1315 -14 q 1186 37 1234 -14 q 1137 174 1137 87 q 1212 393 1137 304 q 1396 482 1286 482 q 1524 431 1477 482 q 1571 294 1571 380 q 1499 74 1571 162 q 1315 -14 1427 -14 m 796 -14 q 666 37 714 -14 q 618 174 618 87 q 692 393 618 304 q 876 482 767 482 q 1004 431 958 482 q 1051 294 1051 380 q 979 74 1051 162 q 796 -14 907 -14 m 946 972 l 1019 972 l 227 0 l 153 0 l 946 972 m 282 490 q 152 540 200 490 q 104 677 104 589 q 179 897 104 808 q 363 986 254 986 q 490 936 443 986 q 538 799 538 885 q 466 578 538 667 q 282 490 393 490 m 1320 40 q 1455 111 1400 40 q 1510 289 1510 182 q 1479 392 1510 357 q 1390 428 1448 428 q 1254 356 1308 428 q 1200 178 1200 283 q 1231 76 1200 112 q 1320 40 1263 40 m 800 40 q 936 111 881 40 q 990 289 990 182 q 959 392 990 357 q 871 428 928 428 q 735 356 789 428 q 681 178 681 283 q 713 76 681 112 q 800 40 745 40 m 286 545 q 422 615 368 545 q 476 793 476 686 q 445 896 476 861 q 357 932 414 932 q 221 860 276 932 q 167 682 167 789 q 198 581 167 616 q 286 545 229 545 z "},"Â":{"ha":818,"x_min":-57,"x_max":728,"o":"m 507 972 l 570 972 l 728 0 l 660 0 l 611 302 l 193 302 l 14 0 l -57 0 l 507 972 m 603 364 l 533 814 q 526 888 528 849 l 524 888 l 501 843 l 227 364 l 603 364 m 566 1269 l 596 1269 l 703 1041 l 648 1041 l 572 1208 l 433 1041 l 375 1041 l 566 1269 z "},"Ê":{"ha":671,"x_min":52,"x_max":711,"o":"m 257 972 l 711 972 l 699 911 l 311 911 l 228 521 l 587 521 l 575 460 l 215 460 l 131 61 l 541 61 l 528 0 l 52 0 l 257 972 m 525 1270 l 555 1270 l 662 1042 l 608 1042 l 532 1209 l 393 1042 l 334 1042 l 525 1270 z "},"Á":{"ha":818,"x_min":-57,"x_max":747,"o":"m 507 972 l 570 972 l 728 0 l 660 0 l 611 302 l 193 302 l 14 0 l -57 0 l 507 972 m 603 364 l 533 814 q 526 888 528 849 l 524 888 l 501 843 l 227 364 l 603 364 m 672 1260 l 747 1260 l 542 1038 l 476 1038 l 672 1260 z "},"Ë":{"ha":671,"x_min":52,"x_max":711,"o":"m 257 972 l 711 972 l 699 911 l 311 911 l 228 521 l 587 521 l 575 460 l 215 460 l 131 61 l 541 61 l 528 0 l 52 0 l 257 972 m 551 1090 q 566 1124 551 1112 q 599 1137 581 1137 q 634 1124 618 1137 q 650 1090 650 1111 q 636 1056 650 1069 q 600 1042 621 1042 q 566 1055 581 1042 q 551 1090 551 1068 m 325 1090 q 340 1124 325 1112 q 372 1137 355 1137 q 408 1124 392 1137 q 424 1090 424 1111 q 409 1056 424 1069 q 374 1042 395 1042 q 339 1055 354 1042 q 325 1090 325 1068 z "},"È":{"ha":671,"x_min":52,"x_max":711,"o":"m 257 972 l 711 972 l 699 911 l 311 911 l 228 521 l 587 521 l 575 460 l 215 460 l 131 61 l 541 61 l 528 0 l 52 0 l 257 972 m 348 1264 l 414 1264 l 545 1042 l 488 1042 l 348 1264 z "},"Í":{"ha":317,"x_min":52,"x_max":526,"o":"m 257 972 l 323 972 l 118 0 l 52 0 l 257 972 m 450 1264 l 526 1264 l 320 1042 l 254 1042 l 450 1264 z "},"Î":{"ha":317,"x_min":52,"x_max":459,"o":"m 257 972 l 323 972 l 118 0 l 52 0 l 257 972 m 322 1270 l 353 1270 l 459 1042 l 405 1042 l 329 1209 l 190 1042 l 132 1042 l 322 1270 z "},"Ï":{"ha":317,"x_min":52,"x_max":475,"o":"m 257 972 l 323 972 l 118 0 l 52 0 l 257 972 m 376 1090 q 391 1124 376 1112 q 423 1137 406 1137 q 459 1124 443 1137 q 475 1090 475 1111 q 460 1056 475 1069 q 425 1042 446 1042 q 390 1055 405 1042 q 376 1090 376 1068 m 149 1090 q 164 1124 149 1112 q 197 1137 179 1137 q 232 1124 216 1137 q 248 1090 248 1111 q 234 1056 248 1069 q 198 1042 219 1042 q 164 1055 178 1042 q 149 1090 149 1068 z "},"Ì":{"ha":317,"x_min":52,"x_max":349,"o":"m 257 972 l 323 972 l 118 0 l 52 0 l 257 972 m 153 1264 l 219 1264 l 349 1042 l 292 1042 l 153 1264 z "},"Ó":{"ha":1047,"x_min":103,"x_max":1010,"o":"m 492 -17 q 207 97 310 -17 q 103 403 103 210 q 171 701 103 566 q 358 912 239 836 q 625 989 477 989 q 905 874 800 989 q 1010 574 1010 759 q 944 273 1010 410 q 761 59 879 136 q 492 -17 642 -17 m 494 45 q 726 110 627 45 q 883 297 826 175 q 940 570 940 419 q 855 830 940 733 q 624 928 770 928 q 390 862 494 928 q 230 676 287 795 q 172 404 172 556 q 257 141 172 237 q 494 45 342 45 m 751 1264 l 827 1264 l 621 1042 l 555 1042 l 751 1264 z "},"Ô":{"ha":1047,"x_min":103,"x_max":1010,"o":"m 492 -17 q 207 97 310 -17 q 103 403 103 210 q 171 701 103 566 q 358 912 239 836 q 625 989 477 989 q 905 874 800 989 q 1010 574 1010 759 q 944 273 1010 410 q 761 59 879 136 q 492 -17 642 -17 m 494 45 q 726 110 627 45 q 883 297 826 175 q 940 570 940 419 q 855 830 940 733 q 624 928 770 928 q 390 862 494 928 q 230 676 287 795 q 172 404 172 556 q 257 141 172 237 q 494 45 342 45 m 658 1270 l 688 1270 l 795 1042 l 741 1042 l 665 1208 l 526 1042 l 467 1042 l 658 1270 z "},"Ò":{"ha":1047,"x_min":103,"x_max":1010,"o":"m 492 -17 q 207 97 310 -17 q 103 403 103 210 q 171 701 103 566 q 358 912 239 836 q 625 989 477 989 q 905 874 800 989 q 1010 574 1010 759 q 944 273 1010 410 q 761 59 879 136 q 492 -17 642 -17 m 494 45 q 726 110 627 45 q 883 297 826 175 q 940 570 940 419 q 855 830 940 733 q 624 928 770 928 q 390 862 494 928 q 230 676 287 795 q 172 404 172 556 q 257 141 172 237 q 494 45 342 45 m 516 1263 l 583 1263 l 713 1041 l 656 1041 l 516 1263 z "},"Ú":{"ha":900,"x_min":110,"x_max":921,"o":"m 243 972 l 310 972 l 199 441 q 178 282 178 343 q 414 45 178 45 q 616 120 543 45 q 724 353 690 195 l 854 972 l 921 972 l 794 371 q 658 71 749 159 q 401 -17 568 -17 q 187 59 264 -17 q 110 271 110 135 q 126 418 110 338 l 243 972 m 705 1263 l 781 1263 l 575 1041 l 509 1041 l 705 1263 z "},"Û":{"ha":900,"x_min":110,"x_max":921,"o":"m 243 972 l 310 972 l 199 441 q 178 282 178 343 q 414 45 178 45 q 616 120 543 45 q 724 353 690 195 l 854 972 l 921 972 l 794 371 q 658 71 749 159 q 401 -17 568 -17 q 187 59 264 -17 q 110 271 110 135 q 126 418 110 338 l 243 972 m 616 1270 l 646 1270 l 753 1042 l 699 1042 l 623 1209 l 484 1042 l 425 1042 l 616 1270 z "},"Ù":{"ha":900,"x_min":110,"x_max":921,"o":"m 243 972 l 310 972 l 199 441 q 178 282 178 343 q 414 45 178 45 q 616 120 543 45 q 724 353 690 195 l 854 972 l 921 972 l 794 371 q 658 71 749 159 q 401 -17 568 -17 q 187 59 264 -17 q 110 271 110 135 q 126 418 110 338 l 243 972 m 449 1264 l 515 1264 l 646 1042 l 589 1042 l 449 1264 z "},"ı":{"ha":290,"x_min":57,"x_max":242,"o":"m 179 694 l 242 694 l 138 201 q 121 83 121 120 q 163 43 121 43 q 221 54 193 43 l 210 2 q 143 -14 176 -14 q 57 79 57 -14 q 75 204 57 114 l 179 694 z "},"ˆ":{"ha":416,"x_min":144,"x_max":472,"o":"m 335 1034 l 366 1034 l 472 806 l 418 806 l 342 972 l 203 806 l 144 806 l 335 1034 z "},"˜":{"ha":416,"x_min":100,"x_max":547,"o":"m 100 806 q 244 956 127 956 q 294 942 273 956 q 332 911 314 928 q 368 881 349 895 q 410 867 386 867 q 497 965 475 867 l 547 965 q 403 814 515 814 q 352 828 372 814 q 315 858 332 842 q 280 889 298 875 q 237 903 262 903 q 182 881 203 903 q 149 806 160 859 l 100 806 z "},"ˉ":{"ha":431,"x_min":41,"x_max":397,"o":"m 53 876 l 397 876 l 386 819 l 41 819 l 53 876 z "},"˘":{"ha":416,"x_min":153,"x_max":517,"o":"m 208 965 l 207 951 q 236 881 207 905 q 314 857 265 857 q 402 882 368 857 q 457 965 436 906 l 517 965 q 311 806 467 806 q 195 842 237 806 q 153 946 153 879 l 154 965 l 208 965 z "},"˙":{"ha":416,"x_min":262,"x_max":368,"o":"m 315 806 q 278 821 294 806 q 262 859 262 836 q 278 895 262 881 q 314 908 294 908 q 352 895 335 908 q 368 859 368 882 q 353 821 368 837 q 315 806 337 806 z "},"˚":{"ha":416,"x_min":199,"x_max":471,"o":"m 199 930 q 237 1020 199 984 q 335 1055 276 1055 q 433 1021 395 1055 q 471 930 471 987 q 432 842 471 878 q 335 806 393 806 q 237 840 275 806 q 199 930 199 875 m 335 851 q 398 873 374 851 q 422 930 422 895 q 399 988 422 967 q 335 1010 376 1010 q 273 988 296 1010 q 249 930 249 967 q 274 872 249 894 q 335 851 299 851 z "},"¸":{"ha":416,"x_min":26,"x_max":269,"o":"m 36 -239 q 97 -245 66 -245 q 183 -231 157 -245 q 210 -183 210 -216 q 121 -125 210 -125 l 78 -127 l 104 0 l 154 0 l 138 -79 q 236 -105 203 -79 q 269 -179 269 -132 q 225 -265 269 -235 q 93 -296 181 -296 q 58 -293 83 -296 q 26 -289 32 -290 l 36 -239 z "},"˝":{"ha":416,"x_min":157,"x_max":525,"o":"m 450 1021 l 525 1021 l 357 806 l 307 806 l 450 1021 m 300 1021 l 375 1021 l 207 806 l 157 806 l 300 1021 z "},"˛":{"ha":416,"x_min":33,"x_max":207,"o":"m 203 -258 q 139 -271 169 -271 q 62 -243 92 -271 q 33 -167 33 -216 q 63 -81 33 -126 q 147 0 94 -37 l 207 0 q 92 -163 92 -92 q 149 -222 92 -222 q 203 -211 174 -222 l 203 -258 z "},"ˇ":{"ha":416,"x_min":189,"x_max":517,"o":"m 189 1034 l 243 1034 l 319 867 l 458 1034 l 517 1034 l 326 806 l 296 806 l 189 1034 z "},"Ł":{"ha":589,"x_min":50,"x_max":521,"o":"m 132 383 l 50 334 l 65 407 l 149 457 l 257 972 l 323 972 l 225 504 l 458 646 l 443 572 l 208 429 l 131 61 l 521 61 l 509 0 l 52 0 l 132 383 z "},"ł":{"ha":290,"x_min":-3,"x_max":341,"o":"m 125 428 l -3 347 l 14 421 l 140 501 l 252 1028 l 315 1028 l 214 547 l 341 628 l 324 554 l 198 475 l 140 201 q 124 83 124 120 q 166 43 124 43 q 224 54 195 43 l 212 2 q 146 -14 179 -14 q 60 79 60 -14 q 68 156 60 109 q 125 428 77 203 z "},"Š":{"ha":690,"x_min":31,"x_max":689,"o":"m 43 111 q 148 63 87 82 q 272 45 208 45 q 443 95 381 45 q 505 235 505 144 q 470 348 505 298 q 350 460 435 398 q 216 589 254 529 q 178 726 178 648 q 266 915 178 842 q 486 989 355 989 q 684 953 585 989 l 669 884 q 479 928 591 928 q 311 874 375 928 q 248 732 248 821 q 278 617 248 664 q 399 505 309 571 q 536 377 497 434 q 575 243 575 321 q 492 53 575 123 q 268 -17 408 -17 q 140 -1 202 -17 q 31 40 77 15 l 43 111 m 361 1277 l 415 1277 l 492 1110 l 631 1277 l 689 1277 l 498 1049 l 468 1049 l 361 1277 z "},"š":{"ha":539,"x_min":18,"x_max":557,"o":"m 32 97 q 111 56 66 71 q 199 40 156 40 q 322 73 279 40 q 366 172 366 106 q 341 246 366 216 q 250 318 317 277 q 140 408 171 367 q 109 509 109 450 q 173 653 109 595 q 335 711 237 711 q 418 702 371 711 q 497 676 466 692 l 484 611 q 329 654 417 654 q 218 617 262 654 q 174 517 174 579 q 198 438 174 469 q 288 368 222 408 q 398 278 365 321 q 431 179 431 235 q 367 36 431 90 q 195 -17 302 -17 q 18 31 95 -17 l 32 97 m 230 1034 l 283 1034 l 360 867 l 499 1034 l 557 1034 l 367 806 l 336 806 l 230 1034 z "},"Ž":{"ha":791,"x_min":-31,"x_max":868,"o":"m 749 909 l 210 909 l 222 972 l 868 972 l 864 947 l 86 62 l 665 62 l 653 0 l -31 0 l -25 28 l 749 909 m 411 1269 l 465 1269 l 541 1102 l 680 1269 l 739 1269 l 548 1041 l 517 1041 l 411 1269 z "},"ž":{"ha":644,"x_min":-35,"x_max":679,"o":"m 559 637 l 134 637 l 146 694 l 679 694 l 675 672 l 79 57 l 528 57 l 515 0 l -35 0 l -29 29 l 559 637 m 286 1034 l 340 1034 l 416 867 l 555 1034 l 614 1034 l 423 806 l 393 806 l 286 1034 z "},"¦":{"ha":314,"x_min":125,"x_max":189,"o":"m 125 1063 l 189 1063 l 189 485 l 125 485 l 125 1063 m 125 252 l 189 252 l 189 -326 l 125 -326 l 125 252 z "},"Ð":{"ha":940,"x_min":45,"x_max":907,"o":"m 149 452 l 45 452 l 57 513 l 161 513 l 260 972 l 485 972 q 798 871 689 972 q 907 576 907 770 q 836 269 907 400 q 633 69 765 138 q 328 0 501 0 l 52 0 l 149 452 m 328 61 q 703 195 568 61 q 838 571 838 328 q 472 911 838 911 l 313 911 l 228 513 l 500 513 l 488 452 l 215 452 l 132 61 l 328 61 z "},"ð":{"ha":720,"x_min":54,"x_max":727,"o":"m 228 819 l 433 905 q 288 1028 383 961 l 384 1028 q 490 932 431 992 l 706 1022 l 727 974 l 526 889 q 664 458 664 709 q 614 218 664 327 q 479 46 565 109 q 296 -17 393 -17 q 119 53 184 -17 q 54 252 54 123 q 102 478 54 371 q 232 649 149 586 q 410 711 315 711 q 510 689 465 711 q 583 621 555 666 l 585 621 q 541 747 573 680 q 470 864 509 814 l 248 766 l 228 819 m 302 40 q 447 95 377 40 q 558 245 517 150 q 599 452 599 341 q 549 602 599 550 q 414 654 500 654 q 271 601 340 654 q 160 456 201 548 q 119 257 119 365 q 168 98 119 156 q 302 40 216 40 z "},"Ý":{"ha":750,"x_min":168,"x_max":844,"o":"m 336 368 l 168 972 l 239 972 l 364 507 q 382 433 379 452 l 385 433 q 422 489 395 453 l 766 972 l 844 972 l 406 370 l 328 0 l 258 0 l 336 368 m 633 1285 l 709 1285 l 503 1063 l 437 1063 l 633 1285 z "},"ý":{"ha":629,"x_min":-114,"x_max":708,"o":"m -100 -252 q -50 -264 -79 -264 q 36 -236 -3 -264 q 121 -136 75 -208 l 212 9 l 90 694 l 154 694 l 253 132 l 258 81 l 261 81 l 268 92 l 635 694 l 708 694 l 196 -129 q 73 -283 126 -241 q -54 -326 20 -326 q -114 -315 -93 -326 l -100 -252 m 559 1028 l 635 1028 l 429 806 l 363 806 l 559 1028 z "},"Þ":{"ha":755,"x_min":52,"x_max":715,"o":"m 257 972 l 323 972 l 289 811 l 435 811 q 642 745 568 811 q 715 554 715 678 q 618 317 715 406 q 357 229 521 229 l 347 229 l 167 229 l 118 0 l 52 0 l 257 972 m 351 290 q 569 357 493 290 q 646 553 646 425 q 588 699 646 648 q 421 750 531 750 l 277 750 l 179 290 l 351 290 z "},"þ":{"ha":726,"x_min":-29,"x_max":671,"o":"m 258 1028 l 321 1028 l 243 667 q 197 472 229 598 l 200 472 q 333 651 264 590 q 482 711 402 711 q 623 648 575 711 q 671 463 671 584 q 615 217 671 327 q 464 45 560 108 q 252 -17 368 -17 q 106 11 177 -17 l 33 -326 l -29 -326 l 258 1028 m 117 69 q 261 40 178 40 q 436 94 356 40 q 561 242 516 147 q 606 452 606 336 q 572 603 606 552 q 465 654 538 654 q 346 598 413 654 q 228 448 279 541 q 155 256 176 355 l 117 69 z "},"−":{"ha":903,"x_min":158,"x_max":774,"o":"m 158 433 l 774 433 l 774 376 l 158 376 l 158 433 z "},"×":{"ha":903,"x_min":199,"x_max":732,"o":"m 425 404 l 199 632 l 239 672 l 465 444 l 692 672 l 732 632 l 505 404 l 732 178 l 692 138 l 465 366 l 239 138 l 199 178 l 425 404 z "},"½":{"ha":1100,"x_min":117,"x_max":1063,"o":"m 907 972 l 981 972 l 193 0 l 119 0 l 907 972 m 201 396 l 306 901 q 267 874 289 888 q 220 848 245 861 q 169 824 195 836 q 117 803 142 812 l 127 856 q 190 882 156 865 q 258 920 224 900 q 320 959 292 940 q 366 990 349 978 l 383 990 l 259 396 l 201 396 m 970 1 l 624 1 l 637 68 q 676 144 646 111 q 747 204 707 176 q 831 257 787 232 q 913 312 876 283 q 975 378 950 342 q 999 463 999 414 q 910 535 999 535 q 747 469 837 535 l 761 538 q 845 577 805 564 q 926 591 885 591 q 1028 559 992 591 q 1063 475 1063 528 q 1038 372 1063 416 q 975 293 1013 328 q 892 231 937 258 q 807 178 847 203 q 738 127 767 153 q 703 73 709 102 l 700 62 l 982 62 l 970 1 z "},"¼":{"ha":1072,"x_min":130,"x_max":1001,"o":"m 921 972 l 994 972 l 207 0 l 133 0 l 921 972 m 214 396 l 319 901 q 280 874 302 888 q 234 848 258 861 q 182 824 209 836 q 130 803 156 812 l 141 856 q 204 882 170 865 q 272 920 238 900 q 334 959 305 940 q 379 990 362 978 l 397 990 l 273 396 l 214 396 m 911 150 l 881 1 l 825 1 l 856 150 l 589 150 l 595 196 q 939 578 774 359 l 1001 578 l 923 203 l 998 203 l 987 150 l 911 150 m 927 490 q 873 422 901 456 q 815 355 846 389 q 749 283 785 320 q 669 203 713 245 l 867 203 l 927 490 z "},"¾":{"ha":1072,"x_min":77,"x_max":1001,"o":"m 921 972 l 994 972 l 207 0 l 133 0 l 921 972 m 911 149 l 881 1 l 825 1 l 856 149 l 589 149 l 595 195 q 939 577 774 358 l 1001 577 l 923 202 l 998 202 l 987 149 l 911 149 m 927 490 q 873 422 901 455 q 815 354 846 389 q 749 282 785 319 q 669 202 713 245 l 867 202 l 927 490 m 90 476 q 219 436 153 436 q 330 468 290 436 q 369 558 369 499 q 333 638 369 609 q 229 667 296 667 l 184 667 l 197 721 l 243 721 q 370 754 324 721 q 415 846 415 788 q 390 906 415 882 q 319 930 364 930 q 187 893 250 930 l 203 958 q 328 986 266 986 q 436 952 397 986 q 475 859 475 918 q 435 749 475 793 q 326 693 396 705 l 326 690 q 400 647 373 680 q 427 564 427 614 q 370 431 427 479 q 214 382 312 382 q 77 415 131 382 l 90 476 z "},"₣":{"ha":646,"x_min":-9,"x_max":713,"o":"m 98 219 l -9 219 l 4 280 l 111 280 l 258 972 l 713 972 l 700 911 l 313 911 l 228 514 l 587 514 l 574 453 l 215 453 l 178 280 l 363 280 l 350 219 l 165 219 l 119 0 l 52 0 l 98 219 z "},"Ğ":{"ha":964,"x_min":103,"x_max":933,"o":"m 798 422 l 551 422 l 566 484 l 879 484 l 787 52 q 511 -17 662 -17 q 212 98 321 -17 q 103 412 103 213 q 172 715 103 584 q 367 918 241 846 q 653 989 492 989 q 933 925 795 989 l 917 857 q 777 912 841 897 q 639 928 713 928 q 394 865 500 928 q 230 687 287 803 q 172 416 172 570 q 262 143 172 241 q 517 45 352 45 q 725 86 627 45 l 798 422 m 550 1207 l 549 1194 q 578 1123 549 1147 q 656 1099 607 1099 q 744 1124 710 1099 q 799 1207 778 1148 l 859 1207 q 653 1048 809 1048 q 537 1084 579 1048 q 494 1188 494 1121 l 496 1207 l 550 1207 z "},"ğ":{"ha":726,"x_min":-16,"x_max":686,"o":"m -4 -212 q 183 -267 91 -267 q 377 -198 307 -267 q 484 24 448 -130 l 528 220 l 525 220 q 390 39 455 94 q 248 -17 324 -17 q 105 48 154 -17 q 56 233 56 113 q 111 477 56 367 q 264 650 167 588 q 476 711 361 711 q 575 705 511 711 q 686 686 640 698 l 550 49 q 417 -239 507 -152 q 171 -326 328 -326 q -16 -278 74 -326 l -4 -212 m 614 639 q 467 654 546 654 q 291 601 372 654 q 166 454 211 548 q 121 244 121 360 q 256 40 121 40 q 380 95 316 40 q 498 245 445 151 q 572 439 552 340 l 614 639 m 369 965 l 368 951 q 397 881 368 905 q 475 857 426 857 q 563 882 529 857 q 618 965 597 906 l 677 965 q 472 806 628 806 q 356 842 398 806 q 313 946 313 879 l 315 965 l 369 965 z "},"İ":{"ha":317,"x_min":52,"x_max":363,"o":"m 257 972 l 323 972 l 118 0 l 52 0 l 257 972 m 310 1056 q 273 1071 288 1056 q 257 1109 257 1086 q 273 1145 257 1131 q 309 1158 288 1158 q 346 1145 330 1158 q 363 1109 363 1132 q 347 1072 363 1087 q 310 1056 332 1056 z "},"Ş":{"ha":690,"x_min":31,"x_max":684,"o":"m 43 111 q 148 63 87 82 q 272 45 208 45 q 443 95 381 45 q 505 235 505 144 q 470 348 505 298 q 350 460 435 398 q 216 589 254 529 q 178 726 178 648 q 266 915 178 842 q 486 989 355 989 q 684 953 585 989 l 669 884 q 479 928 591 928 q 311 874 375 928 q 248 732 248 821 q 278 617 248 664 q 399 505 309 571 q 536 377 497 434 q 575 243 575 321 q 492 53 575 123 q 268 -17 408 -17 q 140 -1 202 -17 q 31 40 77 15 l 43 111 m 185 -239 q 246 -245 215 -245 q 332 -231 306 -245 q 359 -183 359 -216 q 270 -125 359 -125 l 227 -127 l 254 0 l 303 0 l 287 -79 q 385 -105 352 -79 q 418 -179 418 -132 q 374 -265 418 -235 q 242 -296 330 -296 q 207 -293 233 -296 q 176 -289 181 -290 l 185 -239 z "},"ş":{"ha":539,"x_min":18,"x_max":497,"o":"m 32 97 q 111 56 66 71 q 199 40 156 40 q 322 73 279 40 q 366 172 366 106 q 341 246 366 216 q 250 318 317 277 q 140 408 171 367 q 109 509 109 450 q 173 653 109 595 q 335 711 237 711 q 418 702 371 711 q 497 676 466 692 l 484 611 q 329 654 417 654 q 218 617 262 654 q 174 517 174 579 q 198 438 174 469 q 288 368 222 408 q 398 278 365 321 q 431 179 431 235 q 367 36 431 90 q 195 -17 302 -17 q 18 31 95 -17 l 32 97 m 102 -239 q 163 -245 132 -245 q 249 -231 222 -245 q 275 -183 275 -216 q 186 -125 275 -125 l 144 -127 l 170 0 l 220 0 l 203 -79 q 302 -105 269 -79 q 335 -179 335 -132 q 291 -265 335 -235 q 159 -296 247 -296 q 123 -293 149 -296 q 92 -289 98 -290 l 102 -239 z "},"Ć":{"ha":878,"x_min":103,"x_max":900,"o":"m 484 -17 q 204 94 304 -17 q 103 398 103 205 q 170 701 103 568 q 362 911 237 833 q 640 989 487 989 q 900 924 780 989 l 886 850 q 631 928 784 928 q 394 861 500 928 q 231 673 289 793 q 172 408 172 553 q 257 140 172 235 q 493 45 342 45 q 753 114 631 45 l 737 39 q 616 -4 668 8 q 488 -17 564 -17 l 484 -17 m 741 1272 l 816 1272 l 610 1049 l 545 1049 l 741 1272 z "},"ć":{"ha":568,"x_min":56,"x_max":634,"o":"m 297 -17 q 121 57 186 -17 q 56 258 56 130 q 104 490 56 385 q 239 653 153 594 q 425 711 324 711 q 510 701 472 711 q 587 664 548 690 l 571 595 q 419 654 511 654 q 267 603 337 654 q 157 460 197 551 q 118 261 118 370 q 167 99 118 158 q 304 40 216 40 q 390 58 349 40 q 481 113 431 75 l 464 35 q 376 -6 412 5 q 297 -17 339 -17 m 559 1028 l 634 1028 l 429 806 l 363 806 l 559 1028 z "},"Č":{"ha":878,"x_min":103,"x_max":900,"o":"m 484 -17 q 204 94 304 -17 q 103 398 103 205 q 170 701 103 568 q 362 911 237 833 q 640 989 487 989 q 900 924 780 989 l 886 850 q 631 928 784 928 q 394 861 500 928 q 231 673 289 793 q 172 408 172 553 q 257 140 172 235 q 493 45 342 45 q 753 114 631 45 l 737 39 q 616 -4 668 8 q 488 -17 564 -17 l 484 -17 m 520 1276 l 574 1276 l 650 1109 l 789 1276 l 848 1276 l 657 1048 l 627 1048 l 520 1276 z "},"č":{"ha":568,"x_min":56,"x_max":643,"o":"m 297 -17 q 121 57 186 -17 q 56 258 56 130 q 104 490 56 385 q 239 653 153 594 q 425 711 324 711 q 510 701 472 711 q 587 664 548 690 l 571 595 q 419 654 511 654 q 267 603 337 654 q 157 460 197 551 q 118 261 118 370 q 167 99 118 158 q 304 40 216 40 q 390 58 349 40 q 481 113 431 75 l 464 35 q 376 -6 412 5 q 297 -17 339 -17 m 315 1034 l 369 1034 l 446 867 l 585 1034 l 643 1034 l 452 806 l 422 806 l 315 1034 z "},"đ":{"ha":726,"x_min":56,"x_max":821,"o":"m 501 0 q 529 221 504 81 l 526 221 q 395 42 463 102 q 245 -17 327 -17 q 105 48 155 -17 q 56 232 56 113 q 111 478 56 367 q 263 650 167 589 q 473 711 360 711 q 624 689 536 711 l 654 835 l 391 835 l 403 892 l 667 892 l 696 1028 l 758 1028 l 729 892 l 821 892 l 809 835 l 717 835 l 587 220 q 574 115 583 197 q 566 0 566 34 l 501 0 m 612 631 q 467 654 540 654 q 292 602 372 654 q 166 454 212 549 q 121 243 121 359 q 155 89 121 138 q 260 40 189 40 q 382 98 315 40 q 499 247 448 156 q 572 439 551 338 l 612 631 z "},"¯":{"ha":576,"x_min":113,"x_max":701,"o":"m 124 999 l 701 999 l 689 945 l 113 945 l 124 999 z "},"∙":{"ha":309,"x_min":127,"x_max":237,"o":"m 181 424 q 142 440 158 424 q 127 479 127 456 q 142 518 127 503 q 181 533 158 533 q 220 518 204 533 q 237 479 237 503 q 220 440 237 456 q 181 424 204 424 z "},"Ă":{"ha":818,"x_min":-57,"x_max":751,"o":"m 507 972 l 570 972 l 728 0 l 660 0 l 611 302 l 193 302 l 14 0 l -57 0 l 507 972 m 603 364 l 533 814 q 526 888 528 849 l 524 888 l 501 843 l 227 364 l 603 364 m 443 1208 l 441 1195 q 471 1124 441 1148 q 549 1101 500 1101 q 637 1125 603 1101 q 692 1208 671 1149 l 751 1208 q 546 1049 702 1049 q 430 1086 472 1049 q 387 1190 387 1122 l 389 1208 l 443 1208 z "},"ă":{"ha":726,"x_min":56,"x_max":699,"o":"m 501 0 q 530 222 504 75 l 528 222 q 397 44 465 106 q 248 -17 329 -17 q 105 48 155 -17 q 56 231 56 113 q 111 477 56 366 q 262 649 165 587 q 475 711 359 711 q 686 686 563 711 l 596 249 q 576 120 586 197 q 566 0 566 43 l 501 0 m 614 639 q 469 654 542 654 q 292 602 372 654 q 166 453 212 549 q 121 237 121 357 q 260 40 121 40 q 378 94 315 40 q 495 243 441 148 q 572 439 550 338 l 614 639 m 390 965 l 389 951 q 418 881 389 905 q 496 857 447 857 q 584 882 550 857 q 639 965 618 906 l 699 965 q 493 806 649 806 q 377 842 419 806 q 334 946 334 879 l 336 965 l 390 965 z "},"Ą":{"ha":818,"x_min":-57,"x_max":728,"o":"m 507 972 l 570 972 l 728 0 l 660 0 l 611 302 l 193 302 l 14 0 l -57 0 l 507 972 m 603 364 l 533 814 q 526 888 528 849 l 524 888 l 501 843 l 227 364 l 603 364 m 716 -258 q 652 -271 682 -271 q 576 -243 605 -271 q 547 -167 547 -216 q 577 -81 547 -126 q 661 0 607 -37 l 720 0 q 605 -163 605 -92 q 662 -222 605 -222 q 716 -211 687 -222 l 716 -258 z "},"ą":{"ha":726,"x_min":56,"x_max":686,"o":"m 501 0 q 530 222 504 75 l 528 222 q 397 44 465 106 q 248 -17 329 -17 q 105 48 155 -17 q 56 231 56 113 q 111 477 56 366 q 262 649 165 587 q 475 711 359 711 q 686 686 563 711 l 596 249 q 576 120 586 197 q 566 0 566 43 l 501 0 m 614 639 q 469 654 542 654 q 292 602 372 654 q 166 453 212 549 q 121 237 121 357 q 260 40 121 40 q 378 94 315 40 q 495 243 441 148 q 572 439 550 338 l 614 639 m 557 -258 q 493 -271 523 -271 q 416 -243 446 -271 q 387 -167 387 -216 q 417 -81 387 -126 q 501 0 448 -37 l 561 0 q 446 -163 446 -92 q 503 -222 446 -222 q 557 -211 528 -222 l 557 -258 z "},"Ď":{"ha":940,"x_min":52,"x_max":907,"o":"m 260 972 l 485 972 q 798 871 689 972 q 907 576 907 770 q 836 269 907 400 q 633 69 765 138 q 328 0 501 0 l 52 0 l 260 972 m 328 61 q 703 195 568 61 q 838 571 838 328 q 472 911 838 911 l 313 911 l 132 61 l 328 61 m 405 1276 l 458 1276 l 535 1109 l 674 1276 l 732 1276 l 542 1048 l 511 1048 l 405 1276 z "},"ď":{"ha":849,"x_min":56,"x_max":1010,"o":"m 501 0 q 529 221 504 81 l 526 221 q 395 42 463 102 q 245 -17 327 -17 q 105 48 155 -17 q 56 232 56 113 q 111 478 56 367 q 263 650 167 589 q 473 711 360 711 q 624 689 536 711 l 696 1028 l 758 1028 l 587 220 q 574 115 583 197 q 566 0 566 34 l 501 0 m 612 631 q 467 654 540 654 q 292 602 372 654 q 166 454 212 549 q 121 243 121 359 q 155 89 121 138 q 260 40 189 40 q 380 97 314 40 q 499 247 447 155 q 572 439 551 339 l 612 631 m 935 1028 l 1010 1028 l 888 851 l 834 851 l 935 1028 z "},"Đ":{"ha":940,"x_min":45,"x_max":907,"o":"m 149 452 l 45 452 l 57 513 l 161 513 l 260 972 l 485 972 q 798 871 689 972 q 907 576 907 770 q 836 269 907 400 q 633 69 765 138 q 328 0 501 0 l 52 0 l 149 452 m 328 61 q 703 195 568 61 q 838 571 838 328 q 472 911 838 911 l 313 911 l 228 513 l 500 513 l 488 452 l 215 452 l 132 61 l 328 61 z "},"Ę":{"ha":671,"x_min":52,"x_max":711,"o":"m 257 972 l 711 972 l 699 911 l 311 911 l 228 521 l 587 521 l 575 460 l 215 460 l 131 61 l 541 61 l 528 0 l 52 0 l 257 972 m 493 -258 q 429 -271 459 -271 q 353 -243 382 -271 q 323 -167 323 -216 q 354 -81 323 -126 q 437 0 384 -37 l 497 0 q 382 -163 382 -92 q 439 -222 382 -222 q 493 -211 464 -222 l 493 -258 z "},"ę":{"ha":648,"x_min":56,"x_max":621,"o":"m 121 268 q 175 101 121 161 q 329 40 230 40 q 519 97 416 40 l 507 32 q 319 -17 418 -17 q 125 59 194 -17 q 56 273 56 136 q 106 495 56 394 q 242 653 157 595 q 422 711 327 711 q 566 667 511 711 q 621 545 621 622 q 503 370 621 425 q 122 310 385 314 l 121 268 m 131 367 q 452 407 348 367 q 555 538 555 447 q 412 654 555 654 q 234 574 311 654 q 131 367 156 494 m 338 -258 q 275 -271 304 -271 q 198 -243 227 -271 q 169 -167 169 -216 q 199 -81 169 -126 q 283 0 229 -37 l 342 0 q 227 -163 227 -92 q 284 -222 227 -222 q 338 -211 309 -222 l 338 -258 z "},"Ě":{"ha":671,"x_min":52,"x_max":711,"o":"m 257 972 l 711 972 l 699 911 l 311 911 l 228 521 l 587 521 l 575 460 l 215 460 l 131 61 l 541 61 l 528 0 l 52 0 l 257 972 m 370 1276 l 423 1276 l 500 1109 l 639 1276 l 697 1276 l 507 1048 l 476 1048 l 370 1276 z "},"ě":{"ha":648,"x_min":56,"x_max":642,"o":"m 121 268 q 175 101 121 161 q 329 40 230 40 q 519 97 416 40 l 507 32 q 319 -17 418 -17 q 125 59 194 -17 q 56 273 56 136 q 106 495 56 394 q 242 653 157 595 q 422 711 327 711 q 566 667 511 711 q 621 545 621 622 q 503 370 621 425 q 122 310 385 314 l 121 268 m 131 367 q 452 407 348 367 q 555 538 555 447 q 412 654 555 654 q 234 574 311 654 q 131 367 156 494 m 315 1034 l 368 1034 l 445 867 l 584 1034 l 642 1034 l 452 806 l 421 806 l 315 1034 z "},"Ĺ":{"ha":589,"x_min":52,"x_max":710,"o":"m 257 972 l 323 972 l 131 61 l 521 61 l 509 0 l 52 0 l 257 972 m 635 1271 l 710 1271 l 505 1048 l 439 1048 l 635 1271 z "},"ĺ":{"ha":290,"x_min":57,"x_max":493,"o":"m 250 1028 l 313 1028 l 138 201 q 121 83 121 120 q 163 43 121 43 q 221 54 193 43 l 210 2 q 143 -14 176 -14 q 57 79 57 -14 q 66 157 57 109 q 250 1028 75 205 m 418 1322 l 493 1322 l 288 1099 l 222 1099 l 418 1322 z "},"Ľ":{"ha":589,"x_min":52,"x_max":644,"o":"m 257 972 l 323 972 l 131 61 l 521 61 l 509 0 l 52 0 l 257 972 m 568 974 l 644 974 l 521 797 l 467 797 l 568 974 z "},"ľ":{"ha":408,"x_min":57,"x_max":570,"o":"m 250 1028 l 313 1028 l 138 201 q 121 83 121 120 q 163 43 121 43 q 221 54 193 43 l 210 2 q 143 -14 176 -14 q 57 79 57 -14 q 66 157 57 109 q 250 1028 75 205 m 494 1028 l 570 1028 l 447 851 l 393 851 l 494 1028 z "},"Ŀ":{"ha":589,"x_min":52,"x_max":532,"o":"m 257 972 l 323 972 l 131 61 l 521 61 l 509 0 l 52 0 l 257 972 m 479 429 q 442 444 458 429 q 427 481 427 459 q 442 517 427 504 q 478 531 458 531 q 516 518 499 531 q 532 481 532 505 q 517 444 532 460 q 479 429 501 429 z "},"ŀ":{"ha":365,"x_min":57,"x_max":397,"o":"m 250 1028 l 313 1028 l 138 201 q 121 83 121 120 q 163 43 121 43 q 221 54 193 43 l 210 2 q 143 -14 176 -14 q 57 79 57 -14 q 66 157 57 109 q 250 1028 75 205 m 345 429 q 307 444 323 429 q 292 481 292 459 q 307 517 292 504 q 343 531 323 531 q 381 518 364 531 q 397 481 397 505 q 382 444 397 460 q 345 429 366 429 z "},"Ń":{"ha":985,"x_min":52,"x_max":991,"o":"m 257 972 l 302 972 l 718 193 q 747 131 741 150 l 750 131 l 760 193 l 925 972 l 991 972 l 785 0 l 747 0 l 326 786 l 298 847 l 296 847 l 292 826 l 117 0 l 52 0 l 257 972 m 736 1271 l 812 1271 l 606 1048 l 541 1048 l 736 1271 z "},"ń":{"ha":749,"x_min":39,"x_max":680,"o":"m 176 694 l 239 694 l 205 497 l 208 497 q 498 711 340 711 q 629 666 587 711 q 671 525 671 621 q 665 470 671 503 q 568 0 660 437 l 505 0 l 587 399 q 606 514 606 490 q 486 654 606 654 q 365 607 433 654 q 242 484 296 559 q 171 323 189 408 l 102 0 l 39 0 l 146 501 q 176 694 170 616 m 604 1028 l 680 1028 l 474 806 l 408 806 l 604 1028 z "},"Ň":{"ha":985,"x_min":52,"x_max":991,"o":"m 257 972 l 302 972 l 718 193 q 747 131 741 150 l 750 131 l 760 193 l 925 972 l 991 972 l 785 0 l 747 0 l 326 786 l 298 847 l 296 847 l 292 826 l 117 0 l 52 0 l 257 972 m 508 1276 l 562 1276 l 638 1109 l 777 1276 l 836 1276 l 645 1048 l 614 1048 l 508 1276 z "},"ň":{"ha":749,"x_min":39,"x_max":671,"o":"m 176 694 l 239 694 l 205 497 l 208 497 q 498 711 340 711 q 629 666 587 711 q 671 525 671 621 q 665 470 671 503 q 568 0 660 437 l 505 0 l 587 399 q 606 514 606 490 q 486 654 606 654 q 365 607 433 654 q 242 484 296 559 q 171 323 189 408 l 102 0 l 39 0 l 146 501 q 176 694 170 616 m 337 1034 l 391 1034 l 467 867 l 606 1034 l 665 1034 l 474 806 l 444 806 l 337 1034 z "},"Ő":{"ha":1047,"x_min":103,"x_max":1010,"o":"m 492 -17 q 207 97 310 -17 q 103 403 103 210 q 171 701 103 566 q 358 912 239 836 q 625 989 477 989 q 905 874 800 989 q 1010 574 1010 759 q 944 273 1010 410 q 761 59 879 136 q 492 -17 642 -17 m 494 45 q 726 110 627 45 q 883 297 826 175 q 940 570 940 419 q 855 830 940 733 q 624 928 770 928 q 390 862 494 928 q 230 676 287 795 q 172 404 172 556 q 257 141 172 237 q 494 45 342 45 m 786 1264 l 861 1264 l 692 1049 l 643 1049 l 786 1264 m 635 1264 l 711 1264 l 543 1049 l 492 1049 l 635 1264 z "},"ő":{"ha":720,"x_min":56,"x_max":687,"o":"m 298 -17 q 120 54 184 -17 q 56 252 56 125 q 105 485 56 378 q 238 652 154 592 q 422 711 322 711 q 601 640 538 711 q 664 444 664 568 q 616 210 664 316 q 485 43 569 103 q 298 -17 401 -17 m 304 40 q 452 91 385 40 q 559 234 520 142 q 599 437 599 326 q 551 599 599 544 q 415 654 503 654 q 268 603 336 654 q 160 459 199 551 q 121 257 121 368 q 170 97 121 155 q 304 40 219 40 m 612 1021 l 687 1021 l 519 806 l 469 806 l 612 1021 m 462 1021 l 537 1021 l 369 806 l 319 806 l 462 1021 z "},"Ŕ":{"ha":771,"x_min":52,"x_max":754,"o":"m 257 972 l 505 972 q 689 911 624 972 q 754 736 754 849 q 672 535 754 616 q 456 447 590 455 l 456 444 q 547 310 520 415 l 625 0 l 554 0 l 482 293 q 427 399 465 365 q 317 433 389 433 l 210 433 l 118 0 l 52 0 l 257 972 m 403 494 q 610 558 534 494 q 685 733 685 622 q 635 864 685 818 q 496 911 585 911 l 311 911 l 222 494 l 403 494 m 632 1271 l 707 1271 l 502 1048 l 436 1048 l 632 1271 z "},"ŕ":{"ha":464,"x_min":40,"x_max":585,"o":"m 176 694 l 239 694 l 214 530 l 216 530 q 314 667 262 623 q 436 711 366 711 q 510 694 475 711 l 498 631 l 496 631 q 424 654 460 654 q 274 557 348 654 q 168 307 201 459 l 103 0 l 40 0 l 136 451 q 176 694 169 599 m 509 1028 l 585 1028 l 379 806 l 313 806 l 509 1028 z "},"Ř":{"ha":771,"x_min":52,"x_max":754,"o":"m 257 972 l 505 972 q 689 911 624 972 q 754 736 754 849 q 672 535 754 616 q 456 447 590 455 l 456 444 q 547 310 520 415 l 625 0 l 554 0 l 482 293 q 427 399 465 365 q 317 433 389 433 l 210 433 l 118 0 l 52 0 l 257 972 m 403 494 q 610 558 534 494 q 685 733 685 622 q 635 864 685 818 q 496 911 585 911 l 311 911 l 222 494 l 403 494 m 357 1276 l 411 1276 l 488 1109 l 627 1276 l 685 1276 l 494 1048 l 464 1048 l 357 1276 z "},"ř":{"ha":464,"x_min":40,"x_max":550,"o":"m 176 694 l 239 694 l 214 530 l 216 530 q 314 667 262 623 q 436 711 366 711 q 510 694 475 711 l 498 631 l 496 631 q 424 654 460 654 q 274 557 348 654 q 168 307 201 459 l 103 0 l 40 0 l 136 451 q 176 694 169 599 m 222 1034 l 276 1034 l 353 867 l 492 1034 l 550 1034 l 359 806 l 329 806 l 222 1034 z "},"Ś":{"ha":690,"x_min":31,"x_max":684,"o":"m 43 111 q 148 63 87 82 q 272 45 208 45 q 443 95 381 45 q 505 235 505 144 q 470 348 505 298 q 350 460 435 398 q 216 589 254 529 q 178 726 178 648 q 266 915 178 842 q 486 989 355 989 q 684 953 585 989 l 669 884 q 479 928 591 928 q 311 874 375 928 q 248 732 248 821 q 278 617 248 664 q 399 505 309 571 q 536 377 497 434 q 575 243 575 321 q 492 53 575 123 q 268 -17 408 -17 q 140 -1 202 -17 q 31 40 77 15 l 43 111 m 600 1270 l 675 1270 l 470 1048 l 404 1048 l 600 1270 z "},"ś":{"ha":539,"x_min":18,"x_max":576,"o":"m 32 97 q 111 56 66 71 q 199 40 156 40 q 322 73 279 40 q 366 172 366 106 q 341 246 366 216 q 250 318 317 277 q 140 408 171 367 q 109 509 109 450 q 173 653 109 595 q 335 711 237 711 q 418 702 371 711 q 497 676 466 692 l 484 611 q 329 654 417 654 q 218 617 262 654 q 174 517 174 579 q 198 438 174 469 q 288 368 222 408 q 398 278 365 321 q 431 179 431 235 q 367 36 431 90 q 195 -17 302 -17 q 18 31 95 -17 l 32 97 m 500 1028 l 576 1028 l 370 806 l 304 806 l 500 1028 z "},"Ţ":{"ha":710,"x_min":160,"x_max":800,"o":"m 440 911 l 160 911 l 172 972 l 800 972 l 787 911 l 507 911 l 314 0 l 248 0 l 440 911 m 186 -239 q 247 -245 216 -245 q 333 -231 307 -245 q 359 -183 359 -216 q 271 -125 359 -125 l 228 -127 l 254 0 l 304 0 l 288 -79 q 386 -105 353 -79 q 419 -179 419 -132 q 375 -265 419 -235 q 243 -296 331 -296 q 208 -293 233 -296 q 176 -289 182 -290 l 186 -239 z "},"ţ":{"ha":412,"x_min":64,"x_max":453,"o":"m 193 637 l 66 637 l 79 694 l 204 694 l 243 875 l 310 896 l 267 694 l 453 694 l 439 637 l 256 637 l 163 201 q 150 109 150 137 q 163 59 150 76 q 210 43 177 43 q 319 78 239 43 l 306 18 q 248 -4 281 5 q 196 -14 214 -14 q 86 104 86 -14 q 100 204 86 147 l 193 637 m 73 -239 q 134 -245 103 -245 q 220 -231 194 -245 q 247 -183 247 -216 q 158 -125 247 -125 l 115 -127 l 142 0 l 191 0 l 175 -79 q 273 -105 240 -79 q 307 -179 307 -132 q 262 -265 307 -235 q 130 -296 218 -296 q 95 -293 121 -296 q 64 -289 69 -290 l 73 -239 z "},"Ť":{"ha":710,"x_min":160,"x_max":800,"o":"m 440 911 l 160 911 l 172 972 l 800 972 l 787 911 l 507 911 l 314 0 l 248 0 l 440 911 m 367 1276 l 420 1276 l 497 1109 l 636 1276 l 694 1276 l 504 1048 l 473 1048 l 367 1276 z "},"ť":{"ha":490,"x_min":66,"x_max":652,"o":"m 193 637 l 66 637 l 79 694 l 204 694 l 243 875 l 310 896 l 267 694 l 453 694 l 439 637 l 256 637 l 163 201 q 150 109 150 137 q 163 59 150 76 q 210 43 177 43 q 319 78 239 43 l 306 18 q 248 -4 281 5 q 196 -14 214 -14 q 86 104 86 -14 q 100 204 86 147 l 193 637 m 576 1028 l 652 1028 l 529 851 l 475 851 l 576 1028 z "},"Ů":{"ha":900,"x_min":110,"x_max":921,"o":"m 243 972 l 310 972 l 199 441 q 178 282 178 343 q 414 45 178 45 q 616 120 543 45 q 724 353 690 195 l 854 972 l 921 972 l 794 371 q 658 71 749 159 q 401 -17 568 -17 q 187 59 264 -17 q 110 271 110 135 q 126 418 110 338 l 243 972 m 469 1175 q 507 1264 469 1229 q 605 1300 546 1300 q 703 1266 665 1300 q 741 1175 741 1232 q 702 1086 741 1122 q 605 1050 663 1050 q 507 1085 545 1050 q 469 1175 469 1120 m 605 1096 q 668 1118 644 1096 q 692 1175 692 1140 q 669 1233 692 1212 q 605 1255 646 1255 q 543 1233 566 1255 q 519 1175 519 1212 q 544 1117 519 1139 q 605 1096 569 1096 z "},"ů":{"ha":749,"x_min":78,"x_max":710,"o":"m 180 694 l 243 694 l 161 296 q 143 180 143 204 q 262 40 143 40 q 388 91 320 40 q 510 222 456 142 q 578 371 564 302 l 647 694 l 710 694 l 603 193 q 572 0 579 78 l 510 0 l 543 197 l 541 197 q 250 -17 408 -17 q 78 174 78 -17 q 82 220 78 187 q 180 694 87 252 m 347 930 q 385 1020 347 984 q 483 1055 424 1055 q 581 1021 543 1055 q 618 930 618 987 q 579 842 618 878 q 483 806 541 806 q 385 840 423 806 q 347 930 347 875 m 483 851 q 546 873 522 851 q 570 930 570 895 q 547 988 570 967 q 483 1010 524 1010 q 420 988 444 1010 q 397 930 397 967 q 422 872 397 894 q 483 851 447 851 z "},"Ű":{"ha":900,"x_min":110,"x_max":921,"o":"m 243 972 l 310 972 l 199 441 q 178 282 178 343 q 414 45 178 45 q 616 120 543 45 q 724 353 690 195 l 854 972 l 921 972 l 794 371 q 658 71 749 159 q 401 -17 568 -17 q 187 59 264 -17 q 110 271 110 135 q 126 418 110 338 l 243 972 m 736 1263 l 810 1263 l 642 1048 l 593 1048 l 736 1263 m 585 1263 l 661 1263 l 492 1048 l 442 1048 l 585 1263 z "},"ű":{"ha":749,"x_min":78,"x_max":710,"o":"m 180 694 l 243 694 l 161 296 q 143 180 143 204 q 262 40 143 40 q 388 91 320 40 q 510 222 456 142 q 578 371 564 302 l 647 694 l 710 694 l 603 193 q 572 0 579 78 l 510 0 l 543 197 l 541 197 q 250 -17 408 -17 q 78 174 78 -17 q 82 220 78 187 q 180 694 87 252 m 623 1021 l 697 1021 l 529 806 l 479 806 l 623 1021 m 472 1021 l 547 1021 l 379 806 l 329 806 l 472 1021 z "},"Ź":{"ha":791,"x_min":-31,"x_max":868,"o":"m 749 909 l 210 909 l 222 972 l 868 972 l 864 947 l 86 62 l 665 62 l 653 0 l -31 0 l -25 28 l 749 909 m 643 1272 l 718 1272 l 513 1049 l 447 1049 l 643 1272 z "},"ź":{"ha":644,"x_min":-35,"x_max":679,"o":"m 559 637 l 134 637 l 146 694 l 679 694 l 675 672 l 79 57 l 528 57 l 515 0 l -35 0 l -29 29 l 559 637 m 528 1028 l 603 1028 l 397 806 l 332 806 l 528 1028 z "},"Ż":{"ha":791,"x_min":-31,"x_max":868,"o":"m 749 909 l 210 909 l 222 972 l 868 972 l 864 947 l 86 62 l 665 62 l 653 0 l -31 0 l -25 28 l 749 909 m 546 1048 q 509 1063 524 1048 q 493 1101 493 1078 q 509 1137 493 1123 q 545 1150 524 1150 q 582 1137 566 1150 q 599 1101 599 1124 q 583 1063 599 1079 q 546 1048 568 1048 z "},"ż":{"ha":644,"x_min":-35,"x_max":679,"o":"m 559 637 l 134 637 l 146 694 l 679 694 l 675 672 l 79 57 l 528 57 l 515 0 l -35 0 l -29 29 l 559 637 m 430 806 q 393 821 408 806 q 377 859 377 836 q 393 895 377 881 q 429 908 408 908 q 466 895 450 908 q 483 859 483 882 q 467 821 483 837 q 430 806 452 806 z "},"Γ":{"ha":636,"x_min":52,"x_max":714,"o":"m 257 972 l 714 972 l 701 911 l 311 911 l 118 0 l 52 0 l 257 972 z "},"Θ":{"ha":1047,"x_min":103,"x_max":1010,"o":"m 492 -17 q 207 94 311 -17 q 103 403 103 205 q 171 703 103 567 q 358 914 239 840 q 625 989 477 989 q 905 878 800 989 q 1010 574 1010 766 q 943 270 1010 404 q 758 59 877 135 q 492 -17 640 -17 m 494 45 q 730 110 632 45 q 884 298 827 175 q 940 570 940 422 q 854 832 940 736 q 624 928 768 928 q 389 861 492 928 q 229 673 286 793 q 172 404 172 553 q 257 139 172 234 q 494 45 342 45 m 392 517 l 732 517 l 720 456 l 379 456 l 392 517 z "},"Φ":{"ha":1067,"x_min":97,"x_max":1023,"o":"m 449 134 l 403 134 q 180 217 262 134 q 97 444 97 301 q 152 666 97 567 q 306 821 207 766 q 525 876 405 876 l 606 876 l 629 983 l 696 983 l 672 876 l 718 876 q 940 791 857 876 q 1023 566 1023 707 q 968 343 1023 443 q 815 189 913 244 q 596 134 718 134 l 515 134 l 485 -11 l 418 -11 l 449 134 m 600 195 l 608 195 q 786 240 707 195 q 910 369 866 286 q 954 551 954 451 q 890 749 954 683 q 708 815 827 815 l 660 815 l 528 195 l 600 195 m 461 195 l 593 815 l 521 815 q 265 716 363 815 q 167 450 167 616 q 230 261 167 328 q 412 195 293 195 l 461 195 z "},"α":{"ha":831,"x_min":56,"x_max":844,"o":"m 589 255 q 440 51 519 120 q 264 -18 361 -18 q 110 48 164 -18 q 56 237 56 115 q 109 471 56 361 q 252 646 161 581 q 435 711 342 711 q 632 440 611 711 l 635 440 q 773 694 701 553 l 844 694 q 642 338 797 605 q 669 130 651 191 q 727 68 686 68 q 756 72 744 68 l 731 -5 l 707 -7 q 625 53 652 -7 q 592 255 597 112 l 589 255 m 582 345 q 540 582 575 509 q 432 654 505 654 q 281 596 353 654 q 165 439 209 538 q 122 237 122 340 q 160 92 122 144 q 270 40 198 40 q 548 281 418 40 l 582 345 z "},"δ":{"ha":780,"x_min":56,"x_max":806,"o":"m 790 925 q 581 987 695 987 q 421 951 478 987 q 364 848 364 914 q 395 749 364 791 q 527 631 425 707 q 668 483 623 559 q 713 313 713 407 q 612 72 713 161 q 344 -17 512 -17 q 133 57 210 -17 q 56 265 56 132 q 418 639 56 545 q 297 848 297 740 q 373 992 297 940 q 585 1044 449 1044 q 700 1031 637 1044 q 806 997 763 1019 l 790 925 m 466 600 q 208 475 292 557 q 124 265 124 394 q 183 100 124 159 q 345 40 241 40 q 564 112 484 40 q 644 311 644 184 q 604 462 644 395 q 466 600 563 530 z "},"ε":{"ha":608,"x_min":24,"x_max":600,"o":"m 260 368 q 158 420 196 380 q 119 514 119 460 q 194 659 119 607 q 397 711 269 711 q 519 697 467 711 q 600 664 572 683 l 583 595 q 498 637 553 621 q 397 654 444 654 q 242 617 300 654 q 184 515 184 580 q 237 423 184 457 q 374 389 290 389 l 426 389 l 478 390 l 465 330 l 408 332 q 165 293 241 332 q 89 174 89 255 q 138 75 89 110 q 282 40 186 40 q 411 62 339 40 q 522 113 483 83 l 505 32 q 398 -3 463 11 q 278 -17 332 -17 q 89 32 155 -17 q 24 170 24 80 q 86 301 24 249 q 258 366 149 354 l 260 368 z "},"σ":{"ha":759,"x_min":56,"x_max":829,"o":"m 829 694 l 816 640 l 642 640 q 673 433 673 545 q 629 199 673 302 q 505 39 585 96 q 321 -17 425 -17 q 124 55 193 -17 q 56 253 56 127 q 172 577 56 460 q 493 694 288 694 l 829 694 m 477 639 q 214 538 307 639 q 121 256 121 438 q 176 98 121 156 q 320 40 231 40 q 529 145 450 40 q 608 431 608 250 q 581 639 608 568 l 477 639 z "},"τ":{"ha":676,"x_min":82,"x_max":722,"o":"m 358 640 l 243 640 q 82 597 172 640 l 94 657 q 256 694 174 694 l 722 694 l 710 640 l 421 640 l 325 187 q 314 111 314 140 q 382 49 314 49 q 432 56 412 49 l 421 1 q 363 -8 393 -8 q 279 19 307 -8 q 250 98 250 47 q 264 195 250 113 l 358 640 z "},"φ":{"ha":960,"x_min":47,"x_max":911,"o":"m 370 -17 l 347 -17 q 127 58 207 -17 q 47 264 47 133 q 268 694 47 509 l 351 694 q 169 489 224 591 q 114 264 114 387 q 179 96 114 152 q 367 40 243 40 l 382 40 l 486 526 q 692 711 524 711 q 850 636 789 711 q 911 447 911 561 q 853 206 911 313 q 691 41 796 99 q 450 -17 586 -17 l 432 -17 l 367 -326 l 304 -326 l 370 -17 m 468 40 q 742 152 638 40 q 846 444 846 264 q 802 596 846 537 q 689 654 759 654 q 549 528 576 654 l 444 40 l 468 40 z "},"‗":{"ha":576,"x_min":0,"x_max":576,"o":"m 0 -121 l 576 -121 l 576 -178 l 0 -178 l 0 -121 m 0 -292 l 576 -292 l 576 -349 l 0 -349 l 0 -292 z "},"‼":{"ha":627,"x_min":64,"x_max":576,"o":"m 504 972 l 576 972 l 421 273 l 363 273 l 504 972 m 296 43 q 311 82 296 66 q 350 97 327 97 q 389 82 373 97 q 406 43 406 66 q 389 4 406 20 q 350 -12 373 -12 q 311 4 327 -12 q 296 43 296 20 m 272 972 l 345 972 l 189 273 l 131 273 l 272 972 m 64 43 q 79 82 64 66 q 118 97 95 97 q 157 82 141 97 q 174 43 174 66 q 157 4 174 20 q 118 -12 141 -12 q 79 4 95 -12 q 64 43 64 20 z "},"ⁿ":{"ha":545,"x_min":107,"x_max":556,"o":"m 211 972 l 269 972 l 248 880 l 251 880 q 425 986 325 986 q 523 950 490 986 q 556 853 556 915 q 549 789 556 838 l 484 485 l 427 485 l 488 774 q 498 843 498 819 q 414 934 498 934 q 298 882 357 934 q 225 770 238 829 l 165 485 l 107 485 l 211 972 z "},"₧":{"ha":1477,"x_min":47,"x_max":1432,"o":"m 253 972 l 414 972 q 622 906 548 972 q 695 720 695 840 q 659 559 695 631 l 777 559 l 816 740 l 882 761 l 840 559 l 1023 559 l 1010 503 l 827 503 l 759 179 q 751 117 751 146 q 829 43 751 43 q 918 68 869 43 l 906 9 q 819 -14 865 -14 q 723 16 758 -14 q 688 106 688 46 q 706 226 688 144 l 765 503 l 636 503 l 642 531 q 327 390 547 390 l 197 390 l 114 0 l 47 0 l 253 972 m 331 452 q 549 519 473 452 q 626 714 626 587 q 569 859 626 808 q 401 911 513 911 l 307 911 l 210 452 l 331 452 m 987 100 q 1054 59 1006 78 q 1140 40 1101 40 q 1265 70 1221 40 q 1309 157 1309 100 q 1283 221 1309 195 q 1185 279 1257 248 q 1087 345 1116 308 q 1057 429 1057 382 q 1120 552 1057 505 q 1278 600 1182 600 q 1359 590 1312 600 q 1432 564 1407 579 l 1417 496 q 1347 531 1385 518 q 1277 544 1310 544 q 1160 514 1202 544 q 1118 430 1118 485 q 1142 370 1118 393 q 1233 320 1166 348 q 1340 250 1308 288 q 1372 164 1372 212 q 1309 31 1372 79 q 1135 -17 1246 -17 q 1043 -4 1090 -17 q 971 31 997 9 l 987 100 z "},"Ĳ":{"ha":767,"x_min":52,"x_max":781,"o":"m 257 972 l 323 972 l 118 0 l 52 0 l 257 972 m 262 68 q 303 53 275 60 q 347 45 332 45 q 491 103 441 45 q 572 309 541 161 l 714 972 l 781 972 l 639 311 q 532 55 599 127 q 339 -17 465 -17 q 291 -11 321 -17 q 249 1 260 -5 l 262 68 z "},"ĳ":{"ha":570,"x_min":5,"x_max":602,"o":"m 186 694 l 249 694 l 144 201 q 128 83 128 120 q 170 43 128 43 q 228 54 199 43 l 216 2 q 150 -14 183 -14 q 64 79 64 -14 q 70 142 64 111 q 186 694 75 174 m 265 869 q 229 884 244 869 q 214 922 214 899 q 229 958 214 944 q 265 972 245 972 q 302 959 286 972 q 318 922 318 945 q 302 885 318 901 q 265 869 287 869 m 19 -236 q 113 -269 64 -269 q 245 -210 198 -269 q 326 8 292 -150 l 471 694 l 534 694 l 393 29 q 286 -245 352 -165 q 105 -326 220 -326 q 49 -318 79 -326 q 5 -300 20 -310 l 19 -236 m 549 869 q 513 884 528 869 q 498 922 498 899 q 513 958 498 944 q 549 972 529 972 q 586 959 570 972 q 602 922 602 945 q 587 885 602 901 q 549 869 571 869 z "},"ŉ":{"ha":802,"x_min":66,"x_max":724,"o":"m 229 694 l 292 694 l 258 497 l 261 497 q 551 711 393 711 q 682 666 640 711 q 724 525 724 621 q 718 470 724 503 q 621 0 713 437 l 558 0 l 640 399 q 659 514 659 490 q 539 654 659 654 q 417 607 486 654 q 295 484 349 559 q 224 323 241 408 l 155 0 l 92 0 l 199 501 q 229 694 222 616 m 151 972 l 221 972 l 115 668 l 66 668 l 151 972 z "},"′":{"ha":339,"x_min":211,"x_max":333,"o":"m 254 972 l 333 972 l 268 663 l 211 663 l 254 972 z "},"″":{"ha":550,"x_min":212,"x_max":545,"o":"m 255 972 l 334 972 l 269 663 l 212 663 l 255 972 m 466 972 l 545 972 l 479 663 l 422 663 l 466 972 z "},"℅":{"ha":1114,"x_min":119,"x_max":1048,"o":"m 589 187 q 666 398 589 307 q 856 489 743 489 q 996 436 943 489 q 1048 290 1048 384 q 972 77 1048 167 q 786 -14 897 -14 q 640 41 690 -14 q 589 187 589 96 m 938 972 l 1010 972 l 191 0 l 119 0 l 938 972 m 788 41 q 929 116 872 41 q 985 287 985 191 q 854 434 985 434 q 709 358 768 434 q 651 186 651 281 q 788 41 651 41 m 310 484 q 174 538 222 484 q 127 683 127 593 q 205 901 127 815 q 406 986 283 986 q 538 956 488 986 l 519 892 q 397 929 461 929 q 247 857 303 929 q 191 689 191 784 q 324 541 191 541 q 455 581 380 541 l 437 511 q 310 484 372 484 z "},"ℓ":{"ha":449,"x_min":2,"x_max":437,"o":"m 131 459 l 131 754 q 169 950 131 890 q 292 1011 206 1011 q 398 973 359 1011 q 437 867 437 935 q 386 704 437 794 q 193 449 334 614 l 193 178 q 215 73 193 105 q 283 40 236 40 q 418 112 336 40 l 418 45 q 347 -1 382 16 q 265 -17 311 -17 q 164 29 197 -17 q 131 178 131 75 l 131 376 l 43 271 l 2 307 l 131 459 m 193 532 q 329 717 281 635 q 376 866 376 799 q 353 933 376 909 q 292 956 330 956 q 216 909 239 956 q 193 751 193 861 l 193 532 z "},"□":{"ha":839,"x_min":98,"x_max":739,"o":"m 98 640 l 739 640 l 739 0 l 98 0 l 98 640 m 688 52 l 688 589 l 150 589 l 150 52 l 688 52 z "},"▪":{"ha":492,"x_min":89,"x_max":403,"o":"m 89 615 l 403 615 l 403 301 l 89 301 l 89 615 z "},"▫":{"ha":492,"x_min":89,"x_max":403,"o":"m 89 615 l 403 615 l 403 301 l 89 301 l 89 615 m 351 353 l 351 564 l 140 564 l 140 353 l 351 353 z "},"●":{"ha":839,"x_min":121,"x_max":718,"o":"m 121 392 q 162 544 121 474 q 276 652 203 614 q 419 690 348 690 q 571 648 499 690 q 680 535 642 606 q 718 392 718 465 q 633 181 718 269 q 421 93 547 93 q 208 179 296 93 q 121 392 121 266 z "},"◦":{"ha":492,"x_min":76,"x_max":416,"o":"m 76 460 q 126 580 76 530 q 246 629 176 629 q 366 579 316 629 q 416 460 416 529 q 367 338 416 388 q 246 289 317 289 q 126 338 176 289 q 76 460 76 388 m 245 578 q 162 543 197 578 q 127 460 127 509 q 162 375 127 410 q 247 340 197 340 q 330 375 296 340 q 365 460 364 410 q 329 544 365 509 q 245 578 294 578 z "},"Ā":{"ha":818,"x_min":-57,"x_max":728,"o":"m 507 972 l 570 972 l 728 0 l 660 0 l 611 302 l 193 302 l 14 0 l -57 0 l 507 972 m 603 364 l 533 814 q 526 888 528 849 l 524 888 l 501 843 l 227 364 l 603 364 m 384 1112 l 728 1112 l 717 1055 l 372 1055 l 384 1112 z "},"ā":{"ha":726,"x_min":56,"x_max":686,"o":"m 501 0 q 530 222 504 75 l 528 222 q 397 44 465 106 q 248 -17 329 -17 q 105 48 155 -17 q 56 231 56 113 q 111 477 56 366 q 262 649 165 587 q 475 711 359 711 q 686 686 563 711 l 596 249 q 576 120 586 197 q 566 0 566 43 l 501 0 m 614 639 q 469 654 542 654 q 292 602 372 654 q 166 453 212 549 q 121 237 121 357 q 260 40 121 40 q 378 94 315 40 q 495 243 441 148 q 572 439 550 338 l 614 639 m 317 876 l 661 876 l 650 819 l 305 819 l 317 876 z "},"Ĉ":{"ha":878,"x_min":103,"x_max":900,"o":"m 484 -17 q 204 94 304 -17 q 103 398 103 205 q 170 701 103 568 q 362 911 237 833 q 640 989 487 989 q 900 924 780 989 l 886 850 q 631 928 784 928 q 394 861 500 928 q 231 673 289 793 q 172 408 172 553 q 257 140 172 235 q 493 45 342 45 q 753 114 631 45 l 737 39 q 616 -4 668 8 q 488 -17 564 -17 l 484 -17 m 669 1277 l 699 1277 l 806 1049 l 751 1049 l 675 1216 l 536 1049 l 478 1049 l 669 1277 z "},"ĉ":{"ha":568,"x_min":56,"x_max":591,"o":"m 297 -17 q 121 57 186 -17 q 56 258 56 130 q 104 490 56 385 q 239 653 153 594 q 425 711 324 711 q 510 701 472 711 q 587 664 548 690 l 571 595 q 419 654 511 654 q 267 603 337 654 q 157 460 197 551 q 118 261 118 370 q 167 99 118 158 q 304 40 216 40 q 390 58 349 40 q 481 113 431 75 l 464 35 q 376 -6 412 5 q 297 -17 339 -17 m 454 1034 l 485 1034 l 591 806 l 537 806 l 461 972 l 322 806 l 264 806 l 454 1034 z "},"Ċ":{"ha":878,"x_min":103,"x_max":900,"o":"m 484 -17 q 204 94 304 -17 q 103 398 103 205 q 170 701 103 568 q 362 911 237 833 q 640 989 487 989 q 900 924 780 989 l 886 850 q 631 928 784 928 q 394 861 500 928 q 231 673 289 793 q 172 408 172 553 q 257 140 172 235 q 493 45 342 45 q 753 114 631 45 l 737 39 q 616 -4 668 8 q 488 -17 564 -17 l 484 -17 m 658 1042 q 621 1057 636 1042 q 605 1095 605 1072 q 621 1131 605 1117 q 656 1144 636 1144 q 694 1131 677 1144 q 711 1095 711 1118 q 695 1057 711 1073 q 658 1042 680 1042 z "},"ċ":{"ha":568,"x_min":56,"x_max":587,"o":"m 297 -17 q 121 57 186 -17 q 56 258 56 130 q 104 490 56 385 q 239 653 153 594 q 425 711 324 711 q 510 701 472 711 q 587 664 548 690 l 571 595 q 419 654 511 654 q 267 603 337 654 q 157 460 197 551 q 118 261 118 370 q 167 99 118 158 q 304 40 216 40 q 390 58 349 40 q 481 113 431 75 l 464 35 q 376 -6 412 5 q 297 -17 339 -17 m 452 806 q 415 821 431 806 q 399 859 399 836 q 415 895 399 881 q 451 908 431 908 q 489 895 472 908 q 505 859 505 882 q 490 821 505 837 q 452 806 474 806 z "},"Ē":{"ha":671,"x_min":52,"x_max":711,"o":"m 257 972 l 711 972 l 699 911 l 311 911 l 228 521 l 587 521 l 575 460 l 215 460 l 131 61 l 541 61 l 528 0 l 52 0 l 257 972 m 326 1112 l 670 1112 l 659 1055 l 314 1055 l 326 1112 z "},"ē":{"ha":648,"x_min":56,"x_max":621,"o":"m 121 268 q 175 101 121 161 q 329 40 230 40 q 519 97 416 40 l 507 32 q 319 -17 418 -17 q 125 59 194 -17 q 56 273 56 136 q 106 495 56 394 q 242 653 157 595 q 422 711 327 711 q 566 667 511 711 q 621 545 621 622 q 503 370 621 425 q 122 310 385 314 l 121 268 m 131 367 q 452 407 348 367 q 555 538 555 447 q 412 654 555 654 q 234 574 311 654 q 131 367 156 494 m 245 876 l 589 876 l 578 819 l 233 819 l 245 876 z "},"Ĕ":{"ha":671,"x_min":52,"x_max":711,"o":"m 257 972 l 711 972 l 699 911 l 311 911 l 228 521 l 587 521 l 575 460 l 215 460 l 131 61 l 541 61 l 528 0 l 52 0 l 257 972 m 387 1208 l 385 1195 q 414 1124 385 1148 q 492 1101 444 1101 q 581 1125 547 1101 q 635 1208 614 1149 l 695 1208 q 490 1049 646 1049 q 373 1086 416 1049 q 331 1190 331 1122 l 332 1208 l 387 1208 z "},"ĕ":{"ha":648,"x_min":56,"x_max":644,"o":"m 121 268 q 175 101 121 161 q 329 40 230 40 q 519 97 416 40 l 507 32 q 319 -17 418 -17 q 125 59 194 -17 q 56 273 56 136 q 106 495 56 394 q 242 653 157 595 q 422 711 327 711 q 566 667 511 711 q 621 545 621 622 q 503 370 621 425 q 122 310 385 314 l 121 268 m 131 367 q 452 407 348 367 q 555 538 555 447 q 412 654 555 654 q 234 574 311 654 q 131 367 156 494 m 335 965 l 334 951 q 363 881 334 905 q 441 857 392 857 q 529 882 495 857 q 584 965 563 906 l 644 965 q 438 806 594 806 q 322 842 364 806 q 279 946 279 879 l 281 965 l 335 965 z "},"Ė":{"ha":671,"x_min":52,"x_max":711,"o":"m 257 972 l 711 972 l 699 911 l 311 911 l 228 521 l 587 521 l 575 460 l 215 460 l 131 61 l 541 61 l 528 0 l 52 0 l 257 972 m 498 1048 q 460 1064 476 1048 q 445 1101 445 1079 q 460 1137 445 1124 q 496 1151 476 1151 q 534 1138 517 1151 q 551 1101 551 1124 q 535 1064 551 1080 q 498 1048 519 1048 z "},"ė":{"ha":648,"x_min":56,"x_max":621,"o":"m 121 268 q 175 101 121 161 q 329 40 230 40 q 519 97 416 40 l 507 32 q 319 -17 418 -17 q 125 59 194 -17 q 56 273 56 136 q 106 495 56 394 q 242 653 157 595 q 422 711 327 711 q 566 667 511 711 q 621 545 621 622 q 503 370 621 425 q 122 310 385 314 l 121 268 m 131 367 q 452 407 348 367 q 555 538 555 447 q 412 654 555 654 q 234 574 311 654 q 131 367 156 494 m 449 806 q 412 821 427 806 q 396 859 396 836 q 412 895 396 881 q 448 908 427 908 q 485 895 469 908 q 502 859 502 882 q 486 821 502 837 q 449 806 471 806 z "},"Ĝ":{"ha":964,"x_min":103,"x_max":933,"o":"m 798 422 l 551 422 l 566 484 l 879 484 l 787 52 q 511 -17 662 -17 q 212 98 321 -17 q 103 412 103 213 q 172 715 103 584 q 367 918 241 846 q 653 989 492 989 q 933 925 795 989 l 917 857 q 777 912 841 897 q 639 928 713 928 q 394 865 500 928 q 230 687 287 803 q 172 416 172 570 q 262 143 172 241 q 517 45 352 45 q 725 86 627 45 l 798 422 m 669 1278 l 699 1278 l 806 1050 l 751 1050 l 675 1217 l 536 1050 l 478 1050 l 669 1278 z "},"ĝ":{"ha":726,"x_min":-16,"x_max":686,"o":"m -4 -212 q 183 -267 91 -267 q 377 -198 307 -267 q 484 24 448 -130 l 528 220 l 525 220 q 390 39 455 94 q 248 -17 324 -17 q 105 48 154 -17 q 56 233 56 113 q 111 477 56 367 q 264 650 167 588 q 476 711 361 711 q 575 705 511 711 q 686 686 640 698 l 550 49 q 417 -239 507 -152 q 171 -326 328 -326 q -16 -278 74 -326 l -4 -212 m 614 639 q 467 654 546 654 q 291 601 372 654 q 166 454 211 548 q 121 244 121 360 q 256 40 121 40 q 380 95 316 40 q 498 245 445 151 q 572 439 552 340 l 614 639 m 488 1034 l 519 1034 l 625 806 l 571 806 l 495 972 l 356 806 l 298 806 l 488 1034 z "},"Ġ":{"ha":964,"x_min":103,"x_max":933,"o":"m 798 422 l 551 422 l 566 484 l 879 484 l 787 52 q 511 -17 662 -17 q 212 98 321 -17 q 103 412 103 213 q 172 715 103 584 q 367 918 241 846 q 653 989 492 989 q 933 925 795 989 l 917 857 q 777 912 841 897 q 639 928 713 928 q 394 865 500 928 q 230 687 287 803 q 172 416 172 570 q 262 143 172 241 q 517 45 352 45 q 725 86 627 45 l 798 422 m 665 1048 q 628 1064 644 1048 q 612 1101 612 1079 q 628 1137 612 1124 q 664 1151 644 1151 q 702 1138 685 1151 q 718 1101 718 1124 q 703 1064 718 1080 q 665 1048 687 1048 z "},"ġ":{"ha":726,"x_min":-16,"x_max":686,"o":"m -4 -212 q 183 -267 91 -267 q 377 -198 307 -267 q 484 24 448 -130 l 528 220 l 525 220 q 390 39 455 94 q 248 -17 324 -17 q 105 48 154 -17 q 56 233 56 113 q 111 477 56 367 q 264 650 167 588 q 476 711 361 711 q 575 705 511 711 q 686 686 640 698 l 550 49 q 417 -239 507 -152 q 171 -326 328 -326 q -16 -278 74 -326 l -4 -212 m 614 639 q 467 654 546 654 q 291 601 372 654 q 166 454 211 548 q 121 244 121 360 q 256 40 121 40 q 380 95 316 40 q 498 245 445 151 q 572 439 552 340 l 614 639 m 494 806 q 457 821 473 806 q 441 859 441 836 q 457 895 441 881 q 493 908 473 908 q 531 895 514 908 q 547 859 547 882 q 532 821 547 837 q 494 806 516 806 z "},"Ģ":{"ha":964,"x_min":103,"x_max":933,"o":"m 798 422 l 551 422 l 566 484 l 879 484 l 787 52 q 511 -17 662 -17 q 212 98 321 -17 q 103 412 103 213 q 172 715 103 584 q 367 918 241 846 q 653 989 492 989 q 933 925 795 989 l 917 857 q 777 912 841 897 q 639 928 713 928 q 394 865 500 928 q 230 687 287 803 q 172 416 172 570 q 262 143 172 241 q 517 45 352 45 q 725 86 627 45 l 798 422 m 484 -79 l 560 -79 l 437 -256 l 384 -256 l 484 -79 z "},"ģ":{"ha":726,"x_min":-16,"x_max":686,"o":"m -4 -212 q 183 -267 91 -267 q 377 -198 307 -267 q 484 24 448 -130 l 528 220 l 525 220 q 390 39 455 94 q 248 -17 324 -17 q 105 48 154 -17 q 56 233 56 113 q 111 477 56 367 q 264 650 167 588 q 476 711 361 711 q 575 705 511 711 q 686 686 640 698 l 550 49 q 417 -239 507 -152 q 171 -326 328 -326 q -16 -278 74 -326 l -4 -212 m 614 639 q 467 654 546 654 q 291 601 372 654 q 166 454 211 548 q 121 244 121 360 q 256 40 121 40 q 380 95 316 40 q 498 245 445 151 q 572 439 552 340 l 614 639 m 535 825 l 459 825 l 582 1002 l 635 1002 l 535 825 z "},"Ĥ":{"ha":940,"x_min":52,"x_max":947,"o":"m 257 972 l 323 972 l 229 528 l 786 528 l 880 972 l 947 972 l 742 0 l 675 0 l 774 467 l 216 467 l 118 0 l 52 0 l 257 972 m 635 1276 l 665 1276 l 772 1048 l 718 1048 l 642 1215 l 503 1048 l 444 1048 l 635 1276 z "},"ĥ":{"ha":747,"x_min":39,"x_max":669,"o":"m 258 1028 l 321 1028 l 208 498 l 211 498 q 498 711 340 711 q 669 521 669 711 q 650 389 669 500 l 568 0 l 505 0 l 587 399 q 606 514 606 490 q 486 654 606 654 q 365 607 433 654 q 242 484 296 559 q 171 323 189 408 l 102 0 l 39 0 l 258 1028 m 509 1324 l 539 1324 l 646 1097 l 591 1097 l 515 1263 l 376 1097 l 318 1097 l 509 1324 z "},"Ħ":{"ha":940,"x_min":51,"x_max":989,"o":"m 201 709 l 118 709 l 132 770 l 215 770 l 258 972 l 325 972 l 282 770 l 839 770 l 882 972 l 948 972 l 905 770 l 989 770 l 975 709 l 892 709 l 741 0 l 675 0 l 774 467 l 217 467 l 118 0 l 51 0 l 201 709 m 787 528 l 825 709 l 269 709 l 230 528 l 787 528 z "},"ħ":{"ha":747,"x_min":39,"x_max":669,"o":"m 217 835 l 125 835 l 137 892 l 229 892 l 258 1028 l 321 1028 l 292 892 l 555 892 l 543 835 l 279 835 l 208 498 l 211 498 q 498 711 340 711 q 669 521 669 711 q 650 389 669 500 l 568 0 l 505 0 l 587 399 q 606 514 606 490 q 486 654 606 654 q 365 607 433 654 q 242 484 296 559 q 171 323 189 408 l 102 0 l 39 0 l 217 835 z "},"Ĩ":{"ha":317,"x_min":52,"x_max":534,"o":"m 257 972 l 323 972 l 118 0 l 52 0 l 257 972 m 87 1046 q 231 1196 115 1196 q 281 1182 260 1196 q 319 1152 301 1168 q 355 1121 336 1135 q 397 1107 373 1107 q 484 1206 463 1107 l 534 1206 q 390 1055 502 1055 q 339 1068 359 1055 q 302 1099 319 1082 q 267 1129 285 1116 q 224 1143 250 1143 q 169 1121 191 1143 q 136 1046 147 1099 l 87 1046 z "},"ĩ":{"ha":290,"x_min":29,"x_max":477,"o":"m 179 694 l 242 694 l 138 201 q 121 83 121 120 q 163 43 121 43 q 221 54 193 43 l 210 2 q 143 -14 176 -14 q 57 79 57 -14 q 75 204 57 114 l 179 694 m 29 806 q 174 956 57 956 q 223 942 203 956 q 261 911 243 928 q 297 881 279 895 q 340 867 315 867 q 427 965 405 867 l 477 965 q 332 814 444 814 q 282 828 302 814 q 244 858 262 842 q 210 889 227 875 q 167 903 192 903 q 111 881 133 903 q 78 806 90 859 l 29 806 z "},"Ī":{"ha":317,"x_min":52,"x_max":492,"o":"m 257 972 l 323 972 l 118 0 l 52 0 l 257 972 m 147 1112 l 492 1112 l 480 1055 l 136 1055 l 147 1112 z "},"ī":{"ha":290,"x_min":57,"x_max":420,"o":"m 179 694 l 242 694 l 138 201 q 121 83 121 120 q 163 43 121 43 q 221 54 193 43 l 210 2 q 143 -14 176 -14 q 57 79 57 -14 q 75 204 57 114 l 179 694 m 76 876 l 420 876 l 409 819 l 64 819 l 76 876 z "},"Ĭ":{"ha":317,"x_min":52,"x_max":509,"o":"m 257 972 l 323 972 l 118 0 l 52 0 l 257 972 m 201 1208 l 199 1194 q 229 1124 199 1147 q 307 1100 258 1100 q 395 1124 361 1100 q 450 1208 429 1149 l 509 1208 q 304 1048 460 1048 q 188 1085 230 1048 q 145 1189 145 1122 l 146 1208 l 201 1208 z "},"ĭ":{"ha":290,"x_min":57,"x_max":434,"o":"m 179 694 l 242 694 l 138 201 q 121 83 121 120 q 163 43 121 43 q 221 54 193 43 l 210 2 q 143 -14 176 -14 q 57 79 57 -14 q 75 204 57 114 l 179 694 m 125 965 l 124 951 q 153 881 124 905 q 231 857 182 857 q 319 882 286 857 q 374 965 353 906 l 434 965 q 229 806 385 806 q 112 842 155 806 q 70 946 70 879 l 71 965 l 125 965 z "},"Į":{"ha":317,"x_min":-60,"x_max":323,"o":"m 257 972 l 323 972 l 118 0 l 52 0 l 257 972 m 110 -258 q 46 -271 76 -271 q -31 -243 -1 -271 q -60 -167 -60 -216 q -30 -81 -60 -126 q 54 0 1 -37 l 114 0 q -1 -163 -1 -92 q 56 -222 -1 -222 q 110 -211 81 -222 l 110 -258 z "},"į":{"ha":290,"x_min":31,"x_max":311,"o":"m 179 694 l 242 694 l 138 201 q 121 83 121 120 q 163 43 121 43 q 221 54 193 43 l 210 2 q 143 -14 176 -14 q 57 79 57 -14 q 63 142 57 111 q 179 694 68 174 m 258 869 q 222 884 237 869 q 207 922 207 899 q 222 958 207 944 q 258 972 238 972 q 295 959 279 972 q 311 922 311 945 q 296 885 311 901 q 258 869 280 869 m 200 -258 q 136 -271 166 -271 q 60 -243 89 -271 q 31 -167 31 -216 q 61 -81 31 -126 q 144 0 91 -37 l 204 0 q 89 -163 89 -92 q 146 -222 89 -222 q 200 -211 171 -222 l 200 -258 z "},"Ĵ":{"ha":444,"x_min":-66,"x_max":582,"o":"m -53 68 q -12 53 -40 60 q 32 45 16 45 q 176 103 126 45 q 257 309 225 161 l 399 972 l 465 972 l 323 311 q 217 55 283 127 q 24 -17 150 -17 q -25 -11 5 -17 q -66 1 -55 -5 l -53 68 m 445 1276 l 475 1276 l 582 1048 l 528 1048 l 452 1215 l 313 1048 l 254 1048 l 445 1276 z "},"ĵ":{"ha":290,"x_min":-279,"x_max":401,"o":"m -265 -236 q -171 -269 -220 -269 q -39 -210 -86 -269 q 41 8 7 -150 l 187 694 l 250 694 l 109 29 q 2 -245 68 -165 q -179 -326 -64 -326 q -235 -318 -205 -326 q -279 -300 -264 -310 l -265 -236 m 264 1034 l 295 1034 l 401 806 l 347 806 l 271 972 l 132 806 l 74 806 l 264 1034 z "},"Ķ":{"ha":732,"x_min":52,"x_max":835,"o":"m 257 972 l 323 972 l 227 514 l 229 514 l 242 528 l 745 972 l 835 972 l 292 497 l 642 0 l 558 0 l 241 460 l 224 490 l 221 490 l 118 0 l 52 0 l 257 972 m 312 -81 l 388 -81 l 265 -258 l 212 -258 l 312 -81 z "},"ķ":{"ha":604,"x_min":39,"x_max":657,"o":"m 258 1028 l 321 1028 l 179 367 l 182 367 l 568 694 l 657 694 l 249 354 l 522 0 l 443 0 l 179 351 l 176 351 l 102 0 l 39 0 l 258 1028 m 239 -81 l 315 -81 l 192 -258 l 138 -258 l 239 -81 z "},"ĸ":{"ha":604,"x_min":39,"x_max":657,"o":"m 187 694 l 250 694 l 179 367 l 182 367 l 568 694 l 657 694 l 249 354 l 522 0 l 443 0 l 179 351 l 176 351 l 102 0 l 39 0 l 187 694 z "},"Ļ":{"ha":589,"x_min":52,"x_max":521,"o":"m 257 972 l 323 972 l 131 61 l 521 61 l 509 0 l 52 0 l 257 972 m 180 -239 q 241 -245 210 -245 q 328 -231 301 -245 q 354 -183 354 -216 q 265 -125 354 -125 l 222 -127 l 249 0 l 298 0 l 282 -79 q 380 -105 347 -79 q 414 -179 414 -132 q 370 -265 414 -235 q 237 -296 326 -296 q 202 -293 228 -296 q 171 -289 176 -290 l 180 -239 z "},"ļ":{"ha":290,"x_min":20,"x_max":313,"o":"m 250 1028 l 313 1028 l 138 201 q 121 83 121 120 q 163 43 121 43 q 221 54 193 43 l 210 2 q 143 -14 176 -14 q 57 79 57 -14 q 66 157 57 109 q 250 1028 75 205 m 29 -239 q 90 -245 59 -245 q 176 -231 150 -245 q 203 -183 203 -216 q 114 -125 203 -125 l 71 -127 l 98 0 l 147 0 l 131 -79 q 229 -105 196 -79 q 262 -179 262 -132 q 218 -265 262 -235 q 86 -296 174 -296 q 51 -293 77 -296 q 20 -289 25 -290 l 29 -239 z "},"Ņ":{"ha":985,"x_min":52,"x_max":991,"o":"m 257 972 l 302 972 l 718 193 q 747 131 741 150 l 750 131 l 760 193 l 925 972 l 991 972 l 785 0 l 747 0 l 326 786 l 298 847 l 296 847 l 292 826 l 117 0 l 52 0 l 257 972 m 414 -81 l 490 -81 l 367 -258 l 313 -258 l 414 -81 z "},"ņ":{"ha":749,"x_min":39,"x_max":671,"o":"m 176 694 l 239 694 l 205 497 l 208 497 q 498 711 340 711 q 629 666 587 711 q 671 525 671 621 q 665 470 671 503 q 568 0 660 437 l 505 0 l 587 399 q 606 514 606 490 q 486 654 606 654 q 365 607 433 654 q 242 484 296 559 q 171 323 189 408 l 102 0 l 39 0 l 146 501 q 176 694 170 616 m 288 -81 l 363 -81 l 241 -258 l 187 -258 l 288 -81 z "},"Ŋ":{"ha":985,"x_min":52,"x_max":991,"o":"m 257 972 l 302 972 l 711 155 l 740 93 l 743 93 l 777 274 l 925 972 l 991 972 l 785 0 q 692 -222 751 -157 q 525 -287 633 -287 q 439 -277 470 -287 l 453 -212 q 525 -225 492 -225 q 617 -203 581 -225 q 677 -138 654 -181 q 720 1 701 -95 l 326 786 l 298 847 l 296 847 l 292 826 l 117 0 l 52 0 l 257 972 z "},"ŋ":{"ha":749,"x_min":39,"x_max":671,"o":"m 235 -202 q 277 -221 250 -213 q 324 -229 304 -229 q 439 -172 395 -229 q 506 1 482 -115 l 587 399 q 606 514 606 490 q 486 654 606 654 q 365 607 433 654 q 242 484 296 559 q 171 323 189 408 l 102 0 l 39 0 l 146 501 q 176 694 170 616 l 239 694 l 205 497 l 208 497 q 498 711 340 711 q 629 666 587 711 q 671 525 671 621 q 650 389 671 489 l 582 66 q 519 -151 551 -80 q 439 -254 486 -222 q 321 -286 393 -286 q 222 -262 268 -286 l 235 -202 z "},"Ō":{"ha":1047,"x_min":103,"x_max":1010,"o":"m 492 -17 q 207 97 310 -17 q 103 403 103 210 q 171 701 103 566 q 358 912 239 836 q 625 989 477 989 q 905 874 800 989 q 1010 574 1010 759 q 944 273 1010 410 q 761 59 879 136 q 492 -17 642 -17 m 494 45 q 726 110 627 45 q 883 297 826 175 q 940 570 940 419 q 855 830 940 733 q 624 928 770 928 q 390 862 494 928 q 230 676 287 795 q 172 404 172 556 q 257 141 172 237 q 494 45 342 45 m 475 1112 l 819 1112 l 808 1055 l 463 1055 l 475 1112 z "},"ō":{"ha":720,"x_min":56,"x_max":664,"o":"m 298 -17 q 120 54 184 -17 q 56 252 56 125 q 105 485 56 378 q 238 652 154 592 q 422 711 322 711 q 601 640 538 711 q 664 444 664 568 q 616 210 664 316 q 485 43 569 103 q 298 -17 401 -17 m 304 40 q 452 91 385 40 q 559 234 520 142 q 599 437 599 326 q 551 599 599 544 q 415 654 503 654 q 268 603 336 654 q 160 459 199 551 q 121 257 121 368 q 170 97 121 155 q 304 40 219 40 m 278 876 l 623 876 l 611 819 l 267 819 l 278 876 z "},"Ŏ":{"ha":1047,"x_min":103,"x_max":1010,"o":"m 492 -17 q 207 97 310 -17 q 103 403 103 210 q 171 701 103 566 q 358 912 239 836 q 625 989 477 989 q 905 874 800 989 q 1010 574 1010 759 q 944 273 1010 410 q 761 59 879 136 q 492 -17 642 -17 m 494 45 q 726 110 627 45 q 883 297 826 175 q 940 570 940 419 q 855 830 940 733 q 624 928 770 928 q 390 862 494 928 q 230 676 287 795 q 172 404 172 556 q 257 141 172 237 q 494 45 342 45 m 527 1208 l 526 1195 q 555 1124 526 1148 q 633 1101 584 1101 q 721 1125 687 1101 q 776 1208 755 1149 l 836 1208 q 630 1049 786 1049 q 514 1086 556 1049 q 471 1190 471 1122 l 473 1208 l 527 1208 z "},"ŏ":{"ha":720,"x_min":56,"x_max":664,"o":"m 298 -17 q 120 54 184 -17 q 56 252 56 125 q 105 485 56 378 q 238 652 154 592 q 422 711 322 711 q 601 640 538 711 q 664 444 664 568 q 616 210 664 316 q 485 43 569 103 q 298 -17 401 -17 m 304 40 q 452 91 385 40 q 559 234 520 142 q 599 437 599 326 q 551 599 599 544 q 415 654 503 654 q 268 603 336 654 q 160 459 199 551 q 121 257 121 368 q 170 97 121 155 q 304 40 219 40 m 329 965 l 328 951 q 357 881 328 905 q 435 857 386 857 q 523 882 489 857 q 578 965 557 906 l 637 965 q 432 806 588 806 q 316 842 358 806 q 273 946 273 879 l 275 965 l 329 965 z "},"Ŗ":{"ha":771,"x_min":52,"x_max":754,"o":"m 257 972 l 505 972 q 689 911 624 972 q 754 736 754 849 q 672 535 754 616 q 456 447 590 455 l 456 444 q 547 310 520 415 l 625 0 l 554 0 l 482 293 q 427 399 465 365 q 317 433 389 433 l 210 433 l 118 0 l 52 0 l 257 972 m 403 494 q 610 558 534 494 q 685 733 685 622 q 635 864 685 818 q 496 911 585 911 l 311 911 l 222 494 l 403 494 m 318 -81 l 394 -81 l 271 -258 l 218 -258 l 318 -81 z "},"ŗ":{"ha":464,"x_min":40,"x_max":510,"o":"m 176 694 l 239 694 l 214 530 l 216 530 q 314 667 262 623 q 436 711 366 711 q 510 694 475 711 l 498 631 l 496 631 q 424 654 460 654 q 274 557 348 654 q 168 307 201 459 l 103 0 l 40 0 l 136 451 q 176 694 169 599 m 147 -81 l 223 -81 l 100 -258 l 47 -258 l 147 -81 z "},"Ŝ":{"ha":690,"x_min":31,"x_max":684,"o":"m 43 111 q 148 63 87 82 q 272 45 208 45 q 443 95 381 45 q 505 235 505 144 q 470 348 505 298 q 350 460 435 398 q 216 589 254 529 q 178 726 178 648 q 266 915 178 842 q 486 989 355 989 q 684 953 585 989 l 669 884 q 479 928 591 928 q 311 874 375 928 q 248 732 248 821 q 278 617 248 664 q 399 505 309 571 q 536 377 497 434 q 575 243 575 321 q 492 53 575 123 q 268 -17 408 -17 q 140 -1 202 -17 q 31 40 77 15 l 43 111 m 507 1276 l 537 1276 l 644 1048 l 589 1048 l 513 1215 l 374 1048 l 316 1048 l 507 1276 z "},"ŝ":{"ha":539,"x_min":18,"x_max":505,"o":"m 32 97 q 111 56 66 71 q 199 40 156 40 q 322 73 279 40 q 366 172 366 106 q 341 246 366 216 q 250 318 317 277 q 140 408 171 367 q 109 509 109 450 q 173 653 109 595 q 335 711 237 711 q 418 702 371 711 q 497 676 466 692 l 484 611 q 329 654 417 654 q 218 617 262 654 q 174 517 174 579 q 198 438 174 469 q 288 368 222 408 q 398 278 365 321 q 431 179 431 235 q 367 36 431 90 q 195 -17 302 -17 q 18 31 95 -17 l 32 97 m 368 1034 l 398 1034 l 505 806 l 450 806 l 374 972 l 235 806 l 177 806 l 368 1034 z "},"Ŧ":{"ha":710,"x_min":124,"x_max":800,"o":"m 344 458 l 124 458 l 137 520 l 357 520 l 440 911 l 159 911 l 172 972 l 800 972 l 787 911 l 507 911 l 423 520 l 643 520 l 630 458 l 410 458 l 313 0 l 246 0 l 344 458 z "},"ŧ":{"ha":412,"x_min":29,"x_max":453,"o":"m 139 388 l 29 388 l 41 445 l 151 445 l 193 637 l 66 637 l 79 694 l 204 694 l 243 875 l 310 896 l 267 694 l 453 694 l 439 637 l 256 637 l 214 445 l 378 445 l 366 388 l 202 388 l 163 201 q 150 109 150 137 q 163 59 150 76 q 210 43 177 43 q 319 78 240 43 l 306 18 q 196 -14 238 -14 q 86 104 86 -14 q 100 204 86 142 l 139 388 z "},"Ũ":{"ha":900,"x_min":110,"x_max":921,"o":"m 243 972 l 310 972 l 199 441 q 178 282 178 343 q 414 45 178 45 q 616 120 543 45 q 724 353 690 195 l 854 972 l 921 972 l 794 371 q 658 71 749 159 q 401 -17 568 -17 q 187 59 264 -17 q 110 271 110 135 q 126 418 110 338 l 243 972 m 385 1048 q 530 1198 413 1198 q 579 1184 559 1198 q 617 1154 600 1171 q 653 1123 635 1137 q 696 1109 671 1109 q 783 1208 761 1109 l 833 1208 q 688 1057 800 1057 q 638 1070 658 1057 q 601 1101 618 1084 q 566 1132 583 1118 q 523 1145 548 1145 q 467 1123 489 1145 q 434 1048 446 1101 l 385 1048 z "},"ũ":{"ha":749,"x_min":78,"x_max":711,"o":"m 180 694 l 243 694 l 161 296 q 143 180 143 204 q 262 40 143 40 q 388 91 320 40 q 510 222 456 142 q 578 371 564 302 l 647 694 l 710 694 l 603 193 q 572 0 579 78 l 510 0 l 543 197 l 541 197 q 250 -17 408 -17 q 78 174 78 -17 q 82 220 78 187 q 180 694 87 252 m 263 806 q 408 956 291 956 q 457 942 437 956 q 495 911 477 928 q 531 881 513 895 q 574 867 549 867 q 661 965 639 867 l 711 965 q 566 814 678 814 q 516 828 536 814 q 478 858 496 842 q 444 889 461 875 q 401 903 426 903 q 345 881 367 903 q 312 806 323 859 l 263 806 z "},"Ū":{"ha":900,"x_min":110,"x_max":921,"o":"m 243 972 l 310 972 l 199 441 q 178 282 178 343 q 414 45 178 45 q 616 120 543 45 q 724 353 690 195 l 854 972 l 921 972 l 794 371 q 658 71 749 159 q 401 -17 568 -17 q 187 59 264 -17 q 110 271 110 135 q 126 418 110 338 l 243 972 m 432 1112 l 777 1112 l 765 1055 l 420 1055 l 432 1112 z "},"ū":{"ha":749,"x_min":78,"x_max":710,"o":"m 180 694 l 243 694 l 161 296 q 143 180 143 204 q 262 40 143 40 q 388 91 320 40 q 510 222 456 142 q 578 371 564 302 l 647 694 l 710 694 l 603 193 q 572 0 579 78 l 510 0 l 543 197 l 541 197 q 250 -17 408 -17 q 78 174 78 -17 q 82 220 78 187 q 180 694 87 252 m 307 876 l 652 876 l 640 819 l 296 819 l 307 876 z "},"Ŭ":{"ha":900,"x_min":110,"x_max":921,"o":"m 243 972 l 310 972 l 199 441 q 178 282 178 343 q 414 45 178 45 q 616 120 543 45 q 724 353 690 195 l 854 972 l 921 972 l 794 371 q 658 71 749 159 q 401 -17 568 -17 q 187 59 264 -17 q 110 271 110 135 q 126 418 110 338 l 243 972 m 487 1208 l 486 1194 q 515 1124 486 1147 q 593 1100 544 1100 q 681 1124 647 1100 q 736 1208 715 1149 l 795 1208 q 590 1048 746 1048 q 474 1085 516 1048 q 431 1189 431 1122 l 433 1208 l 487 1208 z "},"ŭ":{"ha":749,"x_min":78,"x_max":710,"o":"m 180 694 l 243 694 l 161 296 q 143 180 143 204 q 262 40 143 40 q 388 91 320 40 q 510 222 456 142 q 578 371 564 302 l 647 694 l 710 694 l 603 193 q 572 0 579 78 l 510 0 l 543 197 l 541 197 q 250 -17 408 -17 q 78 174 78 -17 q 82 220 78 187 q 180 694 87 252 m 363 965 l 362 951 q 391 881 362 905 q 469 857 420 857 q 557 882 524 857 q 612 965 591 906 l 672 965 q 467 806 623 806 q 350 842 393 806 q 308 946 308 879 l 309 965 l 363 965 z "},"Ų":{"ha":900,"x_min":110,"x_max":921,"o":"m 243 972 l 310 972 l 199 441 q 178 282 178 343 q 414 45 178 45 q 616 120 543 45 q 724 353 690 195 l 854 972 l 921 972 l 794 371 q 658 71 749 159 q 401 -17 568 -17 q 187 59 264 -17 q 110 271 110 135 q 126 418 110 338 l 243 972 m 460 -258 q 397 -271 427 -271 q 320 -243 349 -271 q 291 -167 291 -216 q 321 -81 291 -126 q 405 0 351 -37 l 465 0 q 349 -163 349 -92 q 406 -222 349 -222 q 460 -211 431 -222 l 460 -258 z "},"ų":{"ha":749,"x_min":78,"x_max":710,"o":"m 180 694 l 243 694 l 161 296 q 143 180 143 204 q 262 40 143 40 q 388 91 320 40 q 510 222 456 142 q 578 371 564 302 l 647 694 l 710 694 l 603 193 q 572 0 579 78 l 510 0 l 543 197 l 541 197 q 250 -17 408 -17 q 78 174 78 -17 q 82 220 78 187 q 180 694 87 252 m 566 -258 q 503 -271 532 -271 q 426 -243 455 -271 q 397 -167 397 -216 q 427 -81 397 -126 q 511 0 457 -37 l 570 0 q 455 -163 455 -92 q 512 -222 455 -222 q 566 -211 537 -222 l 566 -258 z "},"Ŵ":{"ha":1198,"x_min":146,"x_max":1320,"o":"m 146 972 l 216 972 l 275 193 l 279 107 l 282 107 q 300 149 290 127 q 728 972 310 170 l 761 972 l 817 193 l 821 107 l 823 107 q 1244 972 908 284 l 1320 972 l 829 0 l 774 0 l 713 732 l 711 822 l 707 822 q 671 733 696 783 l 286 0 l 229 0 l 146 972 m 774 1276 l 804 1276 l 911 1048 l 857 1048 l 781 1215 l 642 1048 l 583 1048 l 774 1276 z "},"ŵ":{"ha":940,"x_min":96,"x_max":987,"o":"m 96 694 l 160 694 l 205 133 l 205 125 l 205 117 l 203 82 l 208 82 q 232 140 214 107 l 526 694 l 568 694 l 610 121 l 607 82 l 612 82 l 623 112 l 636 140 l 920 694 l 987 694 l 623 0 l 567 0 l 524 519 l 523 554 l 525 582 l 522 582 l 517 570 l 216 0 l 160 0 l 96 694 m 583 1034 l 613 1034 l 720 806 l 665 806 l 589 972 l 450 806 l 392 806 l 583 1034 z "},"Ŷ":{"ha":750,"x_min":168,"x_max":844,"o":"m 336 368 l 168 972 l 239 972 l 364 507 q 382 433 379 452 l 385 433 q 422 489 395 453 l 766 972 l 844 972 l 406 370 l 328 0 l 258 0 l 336 368 m 530 1276 l 560 1276 l 667 1048 l 612 1048 l 536 1215 l 397 1048 l 339 1048 l 530 1276 z "},"ŷ":{"ha":629,"x_min":-114,"x_max":708,"o":"m -100 -252 q -50 -264 -79 -264 q 36 -236 -3 -264 q 121 -136 75 -208 l 212 9 l 90 694 l 154 694 l 253 132 l 258 81 l 261 81 l 268 92 l 635 694 l 708 694 l 196 -129 q 73 -283 126 -241 q -54 -326 20 -326 q -114 -315 -93 -326 l -100 -252 m 431 1034 l 461 1034 l 568 806 l 513 806 l 437 972 l 298 806 l 240 806 l 431 1034 z "},"ſ":{"ha":334,"x_min":-10,"x_max":524,"o":"m 446 1044 q 524 1034 487 1044 l 511 972 q 439 987 489 987 q 273 808 310 987 l 52 -231 l -10 -231 l 215 825 q 297 990 238 935 q 446 1044 356 1044 z "},"Ǻ":{"ha":818,"x_min":-57,"x_max":767,"o":"m 486 936 q 406 1051 406 964 q 445 1141 406 1105 q 542 1177 484 1177 q 638 1140 599 1177 q 677 1051 677 1104 q 651 977 677 1010 q 576 930 624 943 l 728 0 l 660 0 l 611 302 l 193 302 l 14 0 l -57 0 l 486 936 m 542 972 q 605 994 581 972 q 629 1051 629 1016 q 606 1109 629 1088 q 542 1131 583 1131 q 479 1109 503 1131 q 456 1051 456 1088 q 480 994 456 1016 q 542 972 505 972 m 603 364 l 533 814 q 526 888 528 849 l 524 888 q 510 859 513 865 q 227 364 506 852 l 603 364 m 692 1445 l 767 1445 l 562 1223 l 496 1223 l 692 1445 z "},"ǻ":{"ha":726,"x_min":56,"x_max":687,"o":"m 501 0 q 530 222 504 75 l 528 222 q 397 44 465 106 q 248 -17 329 -17 q 105 48 155 -17 q 56 231 56 113 q 111 477 56 366 q 262 649 165 587 q 475 711 359 711 q 686 686 563 711 l 596 249 q 576 120 586 197 q 566 0 566 43 l 501 0 m 614 639 q 469 654 542 654 q 292 602 372 654 q 166 453 212 549 q 121 237 121 357 q 260 40 121 40 q 378 94 315 40 q 495 243 441 148 q 572 439 550 338 l 614 639 m 351 930 q 389 1020 351 984 q 487 1055 428 1055 q 585 1021 547 1055 q 623 930 623 987 q 584 842 623 878 q 487 806 545 806 q 389 840 427 806 q 351 930 351 875 m 487 851 q 550 873 526 851 q 574 930 574 895 q 551 988 574 967 q 487 1010 528 1010 q 425 988 448 1010 q 401 930 401 967 q 426 872 401 894 q 487 851 451 851 m 612 1321 l 687 1321 l 481 1099 l 416 1099 l 612 1321 z "},"Ǽ":{"ha":1109,"x_min":-78,"x_max":1150,"o":"m 603 972 l 1150 972 l 1136 907 l 749 907 l 667 519 l 1026 519 l 1014 458 l 654 458 l 570 61 l 979 61 l 966 0 l 490 0 l 554 302 l 214 302 l 1 0 l -78 0 l 603 972 m 567 364 l 684 907 l 628 907 l 256 364 l 567 364 m 963 1271 l 1038 1271 l 833 1048 l 767 1048 l 963 1271 z "},"ǽ":{"ha":1133,"x_min":56,"x_max":1105,"o":"m 541 265 q 395 50 469 117 q 231 -17 321 -17 q 100 45 144 -17 q 56 225 56 108 q 114 471 56 358 q 276 647 173 583 q 503 711 380 711 q 612 699 566 711 q 710 657 659 686 q 896 711 791 711 q 1047 666 988 711 q 1105 545 1105 620 q 988 371 1105 427 q 606 313 871 315 l 604 292 l 604 271 q 658 99 604 159 q 814 40 712 40 q 1004 97 901 40 l 991 32 q 804 -17 904 -17 q 611 58 678 -17 q 543 265 543 133 l 541 265 m 610 370 q 935 409 829 370 q 1040 538 1040 448 q 1001 624 1040 593 q 888 654 962 654 q 703 580 777 654 q 610 370 629 505 m 665 619 q 494 654 597 654 q 301 598 388 654 q 165 444 214 543 q 117 232 117 346 q 147 89 117 138 q 236 40 177 40 q 411 137 332 40 q 547 395 490 235 q 665 619 604 559 m 809 1028 l 884 1028 l 679 806 l 613 806 l 809 1028 z "},"Ǿ":{"ha":1047,"x_min":39,"x_max":1060,"o":"m 167 147 q 103 403 103 252 q 170 702 103 568 q 359 912 237 836 q 625 989 481 989 q 903 882 802 989 l 1019 1000 l 1060 961 l 937 839 q 1010 574 1010 732 q 945 271 1010 406 q 760 59 880 136 q 492 -17 640 -17 q 200 102 300 -17 l 81 -18 l 39 20 l 167 147 m 854 833 q 624 928 768 928 q 389 861 493 928 q 229 674 286 794 q 172 404 172 554 q 216 197 172 281 l 854 833 m 249 150 q 494 45 334 45 q 727 111 626 45 q 884 297 829 177 q 940 570 940 416 q 886 789 940 701 l 249 150 m 753 1271 l 828 1271 l 623 1048 l 557 1048 l 753 1271 z "},"ǿ":{"ha":720,"x_min":-41,"x_max":777,"o":"m -41 -5 l 82 114 q 56 252 56 174 q 105 485 56 378 q 238 652 154 592 q 422 711 322 711 q 612 627 548 711 l 737 747 l 777 708 l 640 576 q 664 444 664 519 q 616 210 664 316 q 485 43 569 103 q 298 -17 401 -17 q 111 65 175 -17 l -4 -46 l -41 -5 m 564 579 q 415 654 515 654 q 268 603 336 654 q 160 459 199 551 q 121 257 121 368 q 134 164 121 203 l 564 579 m 158 113 q 304 40 209 40 q 452 91 385 40 q 559 234 520 142 q 599 437 599 326 q 587 526 599 484 l 158 113 m 581 1028 l 656 1028 l 450 806 l 385 806 l 581 1028 z "},"·":{"ha":309,"x_min":127,"x_max":237,"o":"m 181 424 q 142 440 158 424 q 127 479 127 456 q 142 518 127 503 q 181 533 158 533 q 220 518 204 533 q 237 479 237 503 q 220 440 237 456 q 181 424 204 424 z "},"Ẁ":{"ha":1198,"x_min":146,"x_max":1320,"o":"m 146 972 l 216 972 l 275 193 l 279 107 l 282 107 q 300 149 290 127 q 728 972 310 170 l 761 972 l 817 193 l 821 107 l 823 107 q 1244 972 908 284 l 1320 972 l 829 0 l 774 0 l 713 732 l 711 822 l 707 822 q 671 733 696 783 l 286 0 l 229 0 l 146 972 m 646 1271 l 713 1271 l 843 1048 l 786 1048 l 646 1271 z "},"ẁ":{"ha":940,"x_min":96,"x_max":987,"o":"m 96 694 l 160 694 l 205 133 l 205 125 l 205 117 l 203 82 l 208 82 q 232 140 214 107 l 526 694 l 568 694 l 610 121 l 607 82 l 612 82 l 623 112 l 636 140 l 920 694 l 987 694 l 623 0 l 567 0 l 524 519 l 523 554 l 525 582 l 522 582 l 517 570 l 216 0 l 160 0 l 96 694 m 486 1028 l 553 1028 l 683 806 l 626 806 l 486 1028 z "},"Ẃ":{"ha":1198,"x_min":146,"x_max":1320,"o":"m 146 972 l 216 972 l 275 193 l 279 107 l 282 107 q 300 149 290 127 q 728 972 310 170 l 761 972 l 817 193 l 821 107 l 823 107 q 1244 972 908 284 l 1320 972 l 829 0 l 774 0 l 713 732 l 711 822 l 707 822 q 671 733 696 783 l 286 0 l 229 0 l 146 972 m 859 1271 l 934 1271 l 728 1048 l 663 1048 l 859 1271 z "},"ẃ":{"ha":940,"x_min":96,"x_max":987,"o":"m 96 694 l 160 694 l 205 133 l 205 125 l 205 117 l 203 82 l 208 82 q 232 140 214 107 l 526 694 l 568 694 l 610 121 l 607 82 l 612 82 l 623 112 l 636 140 l 920 694 l 987 694 l 623 0 l 567 0 l 524 519 l 523 554 l 525 582 l 522 582 l 517 570 l 216 0 l 160 0 l 96 694 m 696 1028 l 771 1028 l 566 806 l 500 806 l 696 1028 z "},"Ẅ":{"ha":1198,"x_min":146,"x_max":1320,"o":"m 146 972 l 216 972 l 275 193 l 279 107 l 282 107 q 300 149 290 127 q 728 972 310 170 l 761 972 l 817 193 l 821 107 l 823 107 q 1244 972 908 284 l 1320 972 l 829 0 l 774 0 l 713 732 l 711 822 l 707 822 q 671 733 696 783 l 286 0 l 229 0 l 146 972 m 827 1097 q 842 1131 827 1118 q 874 1144 857 1144 q 910 1131 894 1144 q 926 1097 926 1118 q 911 1062 926 1076 q 876 1048 897 1048 q 841 1062 856 1048 q 827 1097 827 1075 m 600 1097 q 615 1131 600 1118 q 648 1144 630 1144 q 683 1131 667 1144 q 699 1097 699 1118 q 685 1062 699 1076 q 649 1048 670 1048 q 615 1062 629 1048 q 600 1097 600 1075 z "},"ẅ":{"ha":940,"x_min":96,"x_max":987,"o":"m 96 694 l 160 694 l 205 133 l 205 125 l 205 117 l 203 82 l 208 82 q 232 140 214 107 l 526 694 l 568 694 l 610 121 l 607 82 l 612 82 l 623 112 l 636 140 l 920 694 l 987 694 l 623 0 l 567 0 l 524 519 l 523 554 l 525 582 l 522 582 l 517 570 l 216 0 l 160 0 l 96 694 m 635 854 q 650 888 635 876 q 682 901 665 901 q 718 888 702 901 q 734 854 734 875 q 719 820 734 833 q 684 806 705 806 q 649 819 664 806 q 635 854 635 832 m 408 854 q 423 888 408 876 q 456 901 438 901 q 491 888 475 901 q 507 854 507 875 q 493 820 507 833 q 457 806 478 806 q 423 819 437 806 q 408 854 408 832 z "},"Ỳ":{"ha":750,"x_min":168,"x_max":844,"o":"m 336 368 l 168 972 l 239 972 l 364 507 q 382 433 379 452 l 385 433 q 422 489 395 453 l 766 972 l 844 972 l 406 370 l 328 0 l 258 0 l 336 368 m 378 1271 l 445 1271 l 575 1048 l 518 1048 l 378 1271 z "},"ỳ":{"ha":629,"x_min":-114,"x_max":708,"o":"m -100 -252 q -50 -264 -79 -264 q 36 -236 -3 -264 q 121 -136 75 -208 l 212 9 l 90 694 l 154 694 l 253 132 l 258 81 l 261 81 l 268 92 l 635 694 l 708 694 l 196 -129 q 73 -283 126 -241 q -54 -326 20 -326 q -114 -315 -93 -326 l -100 -252 m 298 1028 l 364 1028 l 494 806 l 437 806 l 298 1028 z "},"‛":{"ha":281,"x_min":186,"x_max":277,"o":"m 186 972 l 257 972 l 277 668 l 228 668 l 186 972 z "},"‾":{"ha":576,"x_min":0,"x_max":576,"o":"m 0 1028 l 576 1028 l 576 971 l 0 971 l 0 1028 z "},"₤":{"ha":715,"x_min":1,"x_max":745,"o":"m 245 360 l 92 360 l 104 421 l 258 421 l 286 545 l 132 545 l 144 606 l 298 606 l 321 707 q 427 916 351 844 q 614 989 503 989 q 745 962 686 989 l 730 900 q 680 922 711 913 q 611 932 648 932 q 463 872 522 932 q 380 699 404 813 l 361 606 l 570 606 l 557 545 l 347 545 l 321 421 l 529 421 l 517 360 l 308 360 l 297 310 q 110 57 256 123 l 603 57 l 590 0 l 1 0 l 14 58 q 235 306 199 124 l 245 360 z "},"℮":{"ha":833,"x_min":58,"x_max":776,"o":"m 416 26 q 684 193 589 26 l 732 164 q 588 19 663 62 q 416 -24 514 -24 q 157 85 256 -24 q 58 359 58 195 q 157 637 58 532 q 414 743 256 743 q 671 639 575 743 q 776 359 768 534 l 214 359 l 215 109 q 416 26 296 26 m 618 410 l 618 611 q 413 694 530 694 q 214 611 294 694 l 214 410 l 618 410 z "},"⅛":{"ha":1100,"x_min":117,"x_max":1046,"o":"m 907 972 l 981 972 l 193 0 l 119 0 l 907 972 m 201 396 l 306 901 q 267 874 289 888 q 220 848 245 861 q 169 824 195 836 q 117 803 142 812 l 127 856 q 190 882 156 865 q 258 920 224 900 q 320 959 292 940 q 366 990 349 978 l 383 990 l 259 396 l 201 396 m 931 307 q 989 258 970 290 q 1007 193 1007 227 q 989 110 1007 147 q 941 45 972 72 q 870 3 911 18 q 783 -12 829 -12 q 717 -4 747 -12 q 666 21 688 5 q 633 62 645 38 q 621 119 621 87 q 632 182 621 153 q 662 236 643 212 q 707 278 681 260 q 762 308 732 296 q 719 352 737 326 q 701 413 701 378 q 717 487 701 454 q 762 543 734 519 q 825 578 789 566 q 898 591 860 591 q 958 582 930 591 q 1005 556 985 572 q 1036 516 1025 539 q 1046 467 1046 494 q 1037 415 1046 439 q 1012 371 1027 391 q 975 335 996 351 q 931 307 954 319 m 948 182 q 941 220 948 202 q 920 250 934 237 q 884 271 905 263 q 836 278 863 278 q 776 266 804 278 q 726 234 747 254 q 691 188 704 214 q 679 131 679 161 q 708 62 679 87 q 787 38 736 38 q 848 48 819 38 q 899 77 877 58 q 935 123 922 96 q 948 182 948 149 m 848 330 q 900 341 875 330 q 944 371 925 353 q 975 412 963 389 q 986 458 986 435 q 960 516 986 494 q 892 538 935 538 q 842 530 866 538 q 800 505 818 521 q 771 466 782 488 q 760 417 760 444 q 766 384 760 399 q 784 356 772 368 q 812 337 795 344 q 848 330 828 330 z "},"⅜":{"ha":1100,"x_min":64,"x_max":1046,"o":"m 907 972 l 981 972 l 193 0 l 119 0 l 907 972 m 77 476 q 205 436 139 436 q 316 468 277 436 q 355 558 355 499 q 319 638 355 609 q 215 667 283 667 l 171 667 l 183 721 l 229 721 q 356 754 311 721 q 401 846 401 788 q 376 906 401 882 q 306 930 351 930 q 174 893 236 930 l 189 958 q 314 986 252 986 q 422 952 383 986 q 461 859 461 918 q 422 749 461 793 q 313 693 382 705 l 313 690 q 387 647 359 680 q 414 564 414 614 q 356 431 414 479 q 200 382 298 382 q 64 415 117 382 l 77 476 m 931 307 q 989 258 970 290 q 1007 193 1007 227 q 989 110 1007 147 q 941 45 972 72 q 870 3 911 18 q 783 -12 829 -12 q 717 -4 747 -12 q 666 21 688 5 q 633 62 645 38 q 621 119 621 87 q 632 182 621 153 q 662 236 643 212 q 707 278 681 260 q 762 308 732 296 q 719 352 737 326 q 701 413 701 378 q 717 487 701 454 q 762 543 734 519 q 825 578 789 566 q 898 591 860 591 q 958 582 930 591 q 1005 556 985 572 q 1036 516 1025 539 q 1046 467 1046 494 q 1037 415 1046 439 q 1012 371 1027 391 q 975 335 996 351 q 931 307 954 319 m 948 182 q 941 220 948 202 q 920 250 934 237 q 884 271 905 263 q 836 278 863 278 q 776 266 804 278 q 726 234 747 254 q 691 188 704 214 q 679 131 679 161 q 708 62 679 87 q 787 38 736 38 q 848 48 819 38 q 899 77 877 58 q 935 123 922 96 q 948 182 948 149 m 848 330 q 900 341 875 330 q 944 371 925 353 q 975 412 963 389 q 986 458 986 435 q 960 516 986 494 q 892 538 935 538 q 842 530 866 538 q 800 505 818 521 q 771 466 782 488 q 760 417 760 444 q 766 384 760 399 q 784 356 772 368 q 812 337 795 344 q 848 330 828 330 z "},"⅝":{"ha":1100,"x_min":64,"x_max":1046,"o":"m 907 972 l 981 972 l 193 0 l 119 0 l 907 972 m 77 467 q 204 433 132 433 q 328 471 284 433 q 371 579 371 509 q 245 685 371 685 q 215 684 235 685 q 170 681 195 683 q 140 679 145 680 l 203 972 l 486 972 l 473 916 l 244 916 l 205 737 l 257 741 q 384 699 336 741 q 432 586 432 657 q 371 435 432 491 q 201 379 311 379 q 64 408 110 379 l 77 467 m 931 307 q 989 258 970 290 q 1007 193 1007 227 q 989 110 1007 147 q 941 45 972 72 q 870 3 911 18 q 783 -12 829 -12 q 717 -4 747 -12 q 666 21 688 5 q 633 62 645 38 q 621 119 621 87 q 632 182 621 153 q 662 236 643 212 q 707 278 681 260 q 762 308 732 296 q 719 352 737 326 q 701 413 701 378 q 717 487 701 454 q 762 543 734 519 q 825 578 789 566 q 898 591 860 591 q 958 582 930 591 q 1005 556 985 572 q 1036 516 1025 539 q 1046 467 1046 494 q 1037 415 1046 439 q 1012 371 1027 391 q 975 335 996 351 q 931 307 954 319 m 948 182 q 941 220 948 202 q 920 250 934 237 q 884 271 905 263 q 836 278 863 278 q 776 266 804 278 q 726 234 747 254 q 691 188 704 214 q 679 131 679 161 q 708 62 679 87 q 787 38 736 38 q 848 48 819 38 q 899 77 877 58 q 935 123 922 96 q 948 182 948 149 m 848 330 q 900 341 875 330 q 944 371 925 353 q 975 412 963 389 q 986 458 986 435 q 960 516 986 494 q 892 538 935 538 q 842 530 866 538 q 800 505 818 521 q 771 466 782 488 q 760 417 760 444 q 766 384 760 399 q 784 356 772 368 q 812 337 795 344 q 848 330 828 330 z "},"⅞":{"ha":1044,"x_min":64,"x_max":991,"o":"m 852 972 l 925 972 l 138 0 l 64 0 l 852 972 m 137 389 q 280 664 195 533 q 475 917 366 795 l 168 917 l 180 972 l 556 972 l 549 936 q 349 668 437 804 q 202 389 260 532 l 137 389 m 876 307 q 934 258 916 290 q 952 193 952 227 q 935 110 952 147 q 886 45 917 72 q 815 3 856 18 q 728 -12 774 -12 q 662 -4 692 -12 q 611 21 633 5 q 578 62 590 38 q 566 119 566 87 q 577 182 566 153 q 607 236 588 212 q 652 278 626 260 q 707 308 677 296 q 664 352 682 326 q 646 413 646 378 q 662 487 646 454 q 707 543 679 519 q 770 578 734 566 q 843 591 805 591 q 903 582 876 591 q 950 556 930 572 q 981 516 970 539 q 991 467 991 494 q 982 415 991 439 q 957 371 972 391 q 920 335 941 351 q 876 307 899 319 m 893 182 q 886 220 893 202 q 865 250 879 237 q 829 271 850 263 q 781 278 808 278 q 721 266 749 278 q 671 234 692 254 q 636 188 649 214 q 624 131 624 161 q 653 62 624 87 q 732 38 682 38 q 793 48 764 38 q 844 77 822 58 q 880 123 867 96 q 893 182 893 149 m 793 330 q 845 341 820 330 q 889 371 870 353 q 920 412 908 389 q 931 458 931 435 q 905 516 931 494 q 838 538 880 538 q 787 530 811 538 q 745 505 763 521 q 716 466 727 488 q 705 417 705 444 q 711 384 705 399 q 729 356 718 368 q 757 337 741 344 q 793 330 773 330 z "},";":{"ha":309,"x_min":-29,"x_max":281,"o":"m 225 597 q 186 614 202 597 q 171 653 171 630 q 186 691 171 676 q 225 707 202 707 q 264 691 248 707 q 281 653 281 676 q 264 614 281 630 q 225 597 248 597 m 96 154 l 168 154 l 29 -168 l -29 -168 l 96 154 z "},"΄":{"ha":379,"x_min":85,"x_max":271,"o":"m 199 1055 l 271 1055 l 118 805 l 85 805 l 199 1055 z "},"΅":{"ha":394,"x_min":112,"x_max":506,"o":"m 112 892 q 126 926 112 912 q 159 939 140 939 q 194 926 178 939 q 210 892 210 913 q 196 857 210 871 q 160 843 181 843 q 126 857 140 843 q 112 892 112 870 m 353 1057 l 424 1057 l 272 807 l 239 807 l 353 1057 m 456 843 q 422 857 436 843 q 408 892 408 871 q 422 926 408 912 q 454 939 436 939 q 490 926 474 939 q 506 892 506 913 q 491 857 506 871 q 456 843 477 843 z "},"Ά":{"ha":894,"x_min":20,"x_max":804,"o":"m 584 972 l 646 972 l 804 0 l 736 0 l 688 302 l 270 302 l 90 0 l 20 0 l 584 972 m 680 364 l 610 814 q 603 888 604 849 l 600 888 l 578 843 l 303 364 l 680 364 m 238 974 l 309 974 l 157 724 l 123 724 l 238 974 z "},"Έ":{"ha":758,"x_min":64,"x_max":799,"o":"m 345 972 l 799 972 l 786 911 l 399 911 l 315 521 l 675 521 l 663 460 l 302 460 l 218 61 l 628 61 l 615 0 l 139 0 l 345 972 m 178 974 l 250 974 l 97 724 l 64 724 l 178 974 z "},"Ή":{"ha":1028,"x_min":64,"x_max":1036,"o":"m 345 972 l 412 972 l 317 528 l 874 528 l 968 972 l 1036 972 l 830 0 l 763 0 l 862 467 l 304 467 l 206 0 l 140 0 l 345 972 m 178 974 l 250 974 l 97 724 l 64 724 l 178 974 z "},"Ί":{"ha":404,"x_min":64,"x_max":410,"o":"m 344 972 l 410 972 l 205 0 l 138 0 l 344 972 m 178 974 l 250 974 l 97 724 l 64 724 l 178 974 z "},"Ό":{"ha":1089,"x_min":64,"x_max":1052,"o":"m 534 -17 q 249 97 352 -17 q 145 403 145 210 q 213 701 145 566 q 400 912 281 836 q 667 989 519 989 q 947 874 842 989 q 1052 574 1052 759 q 986 273 1052 410 q 803 59 921 136 q 534 -17 684 -17 m 536 45 q 768 110 669 45 q 925 297 868 175 q 982 570 982 419 q 897 830 982 733 q 666 928 812 928 q 432 862 536 928 q 272 676 329 795 q 214 404 214 556 q 299 141 214 237 q 536 45 384 45 m 178 974 l 250 974 l 97 724 l 64 724 l 178 974 z "},"Ύ":{"ha":862,"x_min":64,"x_max":957,"o":"m 449 368 l 281 972 l 351 972 l 477 507 q 494 433 492 452 l 497 433 q 534 489 508 453 l 879 972 l 957 972 l 518 370 l 440 0 l 371 0 l 449 368 m 178 974 l 250 974 l 97 724 l 64 724 l 178 974 z "},"Ώ":{"ha":1097,"x_min":49,"x_max":1084,"o":"m 61 61 l 304 61 q 144 415 144 202 q 215 710 144 578 q 409 915 286 842 q 681 989 533 989 q 889 940 797 989 q 1033 802 981 890 q 1084 604 1084 713 q 992 295 1084 439 q 736 61 901 152 l 970 61 l 957 0 l 633 0 l 646 61 q 915 289 819 149 q 1011 600 1011 429 q 918 836 1011 743 q 680 928 825 928 q 442 862 549 928 q 275 678 335 795 q 216 418 216 560 q 252 227 216 302 q 385 61 288 152 l 372 0 l 49 0 l 61 61 m 178 974 l 250 974 l 97 724 l 64 724 l 178 974 z "},"ΐ":{"ha":351,"x_min":57,"x_max":451,"o":"m 186 694 l 249 694 l 142 187 q 130 104 130 131 q 145 62 130 76 q 186 47 161 47 q 249 56 223 47 l 237 1 q 179 -8 209 -8 q 95 19 123 -8 q 66 98 66 47 q 79 189 66 128 l 186 694 m 57 892 q 71 926 57 912 q 104 939 85 939 q 139 926 123 939 q 155 892 155 913 q 141 857 155 871 q 105 843 126 843 q 71 857 85 843 q 57 892 57 870 m 298 1057 l 369 1057 l 217 807 l 184 807 l 298 1057 m 401 843 q 367 857 381 843 q 353 892 353 871 q 367 926 353 912 q 399 939 381 939 q 435 926 419 939 q 451 892 451 913 q 436 857 451 871 q 401 843 422 843 z "},"Α":{"ha":818,"x_min":-57,"x_max":728,"o":"m 507 972 l 570 972 l 728 0 l 660 0 l 611 302 l 193 302 l 14 0 l -57 0 l 507 972 m 603 364 l 533 814 q 526 888 528 849 l 524 888 l 501 843 l 227 364 l 603 364 z "},"Β":{"ha":750,"x_min":52,"x_max":718,"o":"m 257 972 l 493 972 q 657 917 596 972 q 718 765 718 861 q 660 590 718 659 q 503 501 602 520 l 503 498 q 619 428 578 481 q 660 296 660 374 q 573 77 660 154 q 326 0 487 0 l 52 0 l 257 972 m 386 534 q 580 594 511 534 q 648 758 648 654 q 603 871 648 832 q 478 911 558 911 l 313 911 l 231 534 l 386 534 m 319 61 q 590 290 590 61 q 531 426 590 378 q 361 473 471 473 l 218 473 l 132 61 l 319 61 z "},"Ε":{"ha":671,"x_min":52,"x_max":711,"o":"m 257 972 l 711 972 l 699 911 l 311 911 l 228 521 l 587 521 l 575 460 l 215 460 l 131 61 l 541 61 l 528 0 l 52 0 l 257 972 z "},"Ζ":{"ha":791,"x_min":-31,"x_max":868,"o":"m 749 909 l 210 909 l 222 972 l 868 972 l 864 947 l 86 62 l 665 62 l 653 0 l -31 0 l -25 28 l 749 909 z "},"Η":{"ha":940,"x_min":52,"x_max":947,"o":"m 257 972 l 323 972 l 229 528 l 786 528 l 880 972 l 947 972 l 742 0 l 675 0 l 774 467 l 216 467 l 118 0 l 52 0 l 257 972 z "},"Ι":{"ha":317,"x_min":52,"x_max":323,"o":"m 257 972 l 323 972 l 118 0 l 52 0 l 257 972 z "},"Κ":{"ha":732,"x_min":52,"x_max":835,"o":"m 257 972 l 323 972 l 227 514 l 229 514 l 242 528 l 745 972 l 835 972 l 292 497 l 642 0 l 558 0 l 241 460 l 224 490 l 221 490 l 118 0 l 52 0 l 257 972 z "},"Λ":{"ha":850,"x_min":-33,"x_max":760,"o":"m 539 972 l 603 972 l 760 0 l 690 0 l 564 814 q 557 888 562 825 l 554 888 l 541 861 l 500 787 l 46 0 l -33 0 l 539 972 z "},"Μ":{"ha":1157,"x_min":52,"x_max":1164,"o":"m 257 972 l 314 972 l 530 435 q 558 348 549 388 l 562 348 l 619 420 l 1099 972 l 1164 972 l 956 0 l 893 0 l 1051 743 l 1078 860 l 1076 860 q 1031 798 1052 821 l 556 254 l 534 254 l 315 793 q 296 859 302 825 l 294 859 q 284 794 291 836 q 117 0 277 753 l 52 0 l 257 972 z "},"Ν":{"ha":985,"x_min":52,"x_max":991,"o":"m 257 972 l 302 972 l 718 193 q 747 131 741 150 l 750 131 l 760 193 l 925 972 l 991 972 l 785 0 l 747 0 l 326 786 l 298 847 l 296 847 l 292 826 l 117 0 l 52 0 l 257 972 z "},"Ξ":{"ha":708,"x_min":-28,"x_max":775,"o":"m 197 972 l 775 972 l 762 911 l 184 911 l 197 972 m 200 521 l 581 521 l 568 460 l 187 460 l 200 521 m -16 61 l 602 61 l 589 0 l -28 0 l -16 61 z "},"Ο":{"ha":1047,"x_min":103,"x_max":1010,"o":"m 492 -17 q 207 97 310 -17 q 103 403 103 210 q 171 701 103 566 q 358 912 239 836 q 625 989 477 989 q 905 874 800 989 q 1010 574 1010 759 q 944 273 1010 410 q 761 59 879 136 q 492 -17 642 -17 m 494 45 q 726 110 627 45 q 883 297 826 175 q 940 570 940 419 q 855 830 940 733 q 624 928 770 928 q 390 862 494 928 q 230 676 287 795 q 172 404 172 556 q 257 141 172 237 q 494 45 342 45 z "},"Π":{"ha":961,"x_min":52,"x_max":968,"o":"m 257 972 l 968 972 l 762 0 l 696 0 l 889 911 l 311 911 l 118 0 l 52 0 l 257 972 z "},"Ρ":{"ha":755,"x_min":52,"x_max":750,"o":"m 257 972 l 469 972 q 676 906 602 972 q 750 720 750 840 q 651 478 750 566 q 382 390 551 390 l 201 390 l 118 0 l 52 0 l 257 972 m 386 452 q 604 519 528 452 q 681 714 681 587 q 624 860 681 808 q 456 911 567 911 l 311 911 l 214 452 l 386 452 z "},"Σ":{"ha":717,"x_min":-61,"x_max":779,"o":"m 421 517 l 195 950 l 199 972 l 779 972 l 766 911 l 289 911 l 498 511 l 58 61 l 616 61 l 604 0 l -61 0 l -54 33 l 421 517 z "},"Τ":{"ha":710,"x_min":160,"x_max":800,"o":"m 440 911 l 160 911 l 172 972 l 800 972 l 787 911 l 507 911 l 314 0 l 248 0 l 440 911 z "},"Υ":{"ha":750,"x_min":168,"x_max":844,"o":"m 336 368 l 168 972 l 239 972 l 364 507 q 382 433 379 452 l 385 433 q 422 489 395 453 l 766 972 l 844 972 l 406 370 l 328 0 l 258 0 l 336 368 z "},"Χ":{"ha":782,"x_min":-39,"x_max":865,"o":"m -39 0 l 379 493 l 196 972 l 272 972 l 407 607 l 429 539 l 432 539 q 455 572 443 555 q 785 972 467 589 l 865 972 l 467 492 l 653 0 l 576 0 l 437 371 l 415 443 l 412 443 q 358 371 399 420 l 49 0 l -39 0 z "},"Ψ":{"ha":1078,"x_min":143,"x_max":1114,"o":"m 490 278 l 428 278 q 218 346 293 278 q 143 533 143 414 q 153 619 143 576 l 228 972 l 294 972 l 221 624 q 211 539 211 577 q 270 390 211 441 q 440 339 328 339 l 503 339 l 637 972 l 704 972 l 570 339 l 647 339 q 863 406 785 339 q 974 624 941 472 l 1047 972 l 1114 972 l 1039 619 q 906 361 1002 444 q 646 278 811 278 l 557 278 l 498 0 l 432 0 l 490 278 z "},"Ω":{"ha":1048,"x_min":1,"x_max":1036,"o":"m 14 61 l 257 61 q 97 415 97 202 q 168 710 97 578 q 362 915 238 842 q 633 989 486 989 q 842 940 749 989 q 985 802 934 890 q 1036 604 1036 713 q 945 295 1036 439 q 689 61 854 152 l 922 61 l 909 0 l 586 0 l 599 61 q 868 289 772 149 q 964 600 964 429 q 871 836 964 743 q 632 928 778 928 q 394 862 501 928 q 228 678 288 795 q 168 418 168 560 q 204 227 168 302 q 338 61 240 152 l 325 0 l 1 0 l 14 61 z "},"Ϊ":{"ha":317,"x_min":52,"x_max":475,"o":"m 257 972 l 323 972 l 118 0 l 52 0 l 257 972 m 376 1090 q 391 1124 376 1112 q 423 1137 406 1137 q 459 1124 443 1137 q 475 1090 475 1111 q 460 1056 475 1069 q 425 1042 446 1042 q 390 1055 405 1042 q 376 1090 376 1068 m 149 1090 q 164 1124 149 1112 q 197 1137 179 1137 q 232 1124 216 1137 q 248 1090 248 1111 q 234 1056 248 1069 q 198 1042 219 1042 q 164 1055 178 1042 q 149 1090 149 1068 z "},"Ϋ":{"ha":750,"x_min":168,"x_max":844,"o":"m 336 368 l 168 972 l 239 972 l 364 507 q 382 433 379 452 l 385 433 q 422 489 395 453 l 766 972 l 844 972 l 406 370 l 328 0 l 258 0 l 336 368 m 580 1105 q 595 1139 580 1126 q 627 1152 610 1152 q 663 1138 647 1152 q 679 1105 679 1125 q 664 1070 679 1084 q 629 1056 650 1056 q 594 1069 609 1056 q 580 1105 580 1082 m 353 1105 q 368 1139 353 1126 q 401 1152 383 1152 q 436 1138 420 1152 q 452 1105 452 1125 q 438 1070 452 1084 q 402 1056 423 1056 q 368 1069 382 1056 q 353 1105 353 1082 z "},"ά":{"ha":831,"x_min":56,"x_max":844,"o":"m 589 255 q 440 51 519 120 q 264 -18 361 -18 q 110 48 164 -18 q 56 237 56 115 q 109 471 56 361 q 252 646 161 581 q 435 711 342 711 q 632 440 611 711 l 635 440 q 773 694 701 553 l 844 694 q 642 338 797 605 q 669 130 651 191 q 727 68 686 68 q 756 72 744 68 l 731 -5 l 707 -7 q 625 53 652 -7 q 592 255 597 112 l 589 255 m 582 345 q 540 582 575 509 q 432 654 505 654 q 281 596 353 654 q 165 439 209 538 q 122 237 122 340 q 160 92 122 144 q 270 40 198 40 q 548 281 418 40 l 582 345 m 562 1055 l 633 1055 l 481 805 l 448 805 l 562 1055 z "},"έ":{"ha":608,"x_min":24,"x_max":600,"o":"m 260 368 q 158 420 196 380 q 119 514 119 460 q 194 659 119 607 q 397 711 269 711 q 519 697 467 711 q 600 664 572 683 l 583 595 q 498 637 553 621 q 397 654 444 654 q 242 617 300 654 q 184 515 184 580 q 237 423 184 457 q 374 389 290 389 l 426 389 l 478 390 l 465 330 l 408 332 q 165 293 241 332 q 89 174 89 255 q 138 75 89 110 q 282 40 186 40 q 411 62 339 40 q 522 113 483 83 l 505 32 q 398 -3 463 11 q 278 -17 332 -17 q 89 32 155 -17 q 24 170 24 80 q 86 301 24 249 q 258 366 149 354 l 260 368 m 484 1055 l 555 1055 l 402 805 l 369 805 l 484 1055 z "},"ή":{"ha":754,"x_min":44,"x_max":676,"o":"m 168 599 q 125 640 168 640 l 100 638 l 111 692 q 147 694 124 694 q 233 625 233 694 q 211 497 233 597 l 214 497 q 504 711 346 711 q 632 664 589 711 q 676 525 676 616 q 655 389 676 481 l 504 -326 l 441 -326 l 593 399 q 611 522 611 488 q 492 654 611 654 q 370 607 439 654 q 248 484 301 559 q 176 323 194 408 l 107 0 l 44 0 l 146 475 q 168 599 168 572 m 572 1055 l 644 1055 l 491 805 l 458 805 l 572 1055 z "},"ί":{"ha":351,"x_min":66,"x_max":385,"o":"m 186 694 l 249 694 l 142 187 q 130 104 130 131 q 145 62 130 76 q 186 47 161 47 q 249 56 223 47 l 237 1 q 179 -8 209 -8 q 95 19 123 -8 q 66 98 66 47 q 79 189 66 128 l 186 694 m 314 1055 l 385 1055 l 233 805 l 199 805 l 314 1055 z "},"ΰ":{"ha":783,"x_min":89,"x_max":706,"o":"m 161 599 q 118 640 161 640 l 93 638 l 104 692 q 140 694 117 694 q 227 625 227 694 q 205 497 227 596 l 165 310 q 153 214 153 254 q 336 40 153 40 q 557 161 475 40 q 640 492 640 283 q 614 694 640 595 l 681 694 q 706 494 706 604 q 660 224 706 341 q 529 45 614 108 q 332 -17 444 -17 q 149 41 209 -17 q 89 205 89 99 q 100 297 89 250 l 138 475 q 161 599 161 582 m 264 892 q 279 926 264 912 q 311 939 293 939 q 347 926 331 939 q 363 892 363 913 q 348 857 363 871 q 313 843 334 843 q 278 857 292 843 q 264 892 264 870 m 506 1057 l 576 1057 l 425 807 l 391 807 l 506 1057 m 608 843 q 574 857 589 843 q 560 892 560 871 q 574 926 560 912 q 607 939 589 939 q 643 926 627 939 q 659 892 659 913 q 644 857 659 871 q 608 843 629 843 z "},"β":{"ha":720,"x_min":-31,"x_max":706,"o":"m 494 1039 q 647 983 588 1039 q 706 838 706 928 q 645 655 706 724 q 460 555 583 586 l 460 553 q 602 463 549 529 q 654 307 654 397 q 567 70 654 156 q 328 -17 479 -17 q 213 1 273 -17 q 114 49 153 20 l 32 -326 l -31 -326 l 201 757 q 494 1039 262 1039 m 637 831 q 596 942 637 901 q 490 982 556 982 q 342 923 397 982 q 262 747 288 865 l 127 114 q 227 59 179 79 q 326 40 274 40 q 517 111 448 40 q 586 307 586 181 q 526 456 586 399 q 355 528 467 513 l 367 583 q 576 666 516 608 q 637 831 637 724 z "},"γ":{"ha":721,"x_min":94,"x_max":742,"o":"m 154 -326 q 229 0 175 -254 q 94 694 226 379 l 164 694 q 289 54 283 388 l 292 54 q 565 400 480 251 q 671 694 650 550 l 742 694 q 669 465 722 576 q 532 243 615 353 q 288 -32 449 132 l 222 -326 l 154 -326 z "},"ζ":{"ha":638,"x_min":56,"x_max":738,"o":"m 413 -210 q 458 -157 443 -184 q 473 -106 473 -130 q 455 -51 473 -71 q 397 -15 437 -31 q 279 19 356 1 q 111 107 167 44 q 56 279 56 170 q 240 658 56 479 q 393 791 321 736 q 640 968 466 846 l 640 971 l 316 971 l 329 1028 l 738 1028 l 725 976 l 572 866 q 307 652 403 745 q 168 474 212 559 q 123 290 123 389 q 140 190 123 229 q 192 128 157 152 q 310 79 228 104 l 395 53 q 503 -5 469 31 q 537 -94 537 -40 q 520 -158 537 -123 q 479 -210 503 -193 l 413 -210 z "},"η":{"ha":754,"x_min":44,"x_max":676,"o":"m 168 599 q 125 640 168 640 l 100 638 l 111 692 q 147 694 124 694 q 233 625 233 694 q 211 497 233 597 l 214 497 q 504 711 346 711 q 632 664 589 711 q 676 525 676 616 q 655 389 676 481 l 504 -326 l 441 -326 l 593 399 q 611 522 611 488 q 492 654 611 654 q 370 607 439 654 q 248 484 301 559 q 176 323 194 408 l 107 0 l 44 0 l 146 475 q 168 599 168 572 z "},"θ":{"ha":770,"x_min":81,"x_max":752,"o":"m 81 295 q 143 657 81 467 q 302 946 204 847 q 530 1044 400 1044 q 695 969 637 1044 q 752 753 752 894 q 717 466 752 620 q 622 204 682 313 q 484 39 563 95 q 314 -17 406 -17 q 141 64 201 -17 q 81 295 81 145 m 667 551 q 691 745 691 664 q 648 925 691 863 q 524 987 606 987 q 313 866 407 987 q 182 551 220 745 l 667 551 m 169 494 q 146 302 146 386 q 189 106 146 173 q 317 40 232 40 q 522 155 435 40 q 655 494 610 271 l 169 494 z "},"ι":{"ha":351,"x_min":66,"x_max":249,"o":"m 186 694 l 249 694 l 142 187 q 130 104 130 131 q 145 62 130 76 q 186 47 161 47 q 249 56 223 47 l 237 1 q 179 -8 209 -8 q 95 19 123 -8 q 66 98 66 47 q 79 189 66 128 l 186 694 z "},"κ":{"ha":728,"x_min":39,"x_max":693,"o":"m 186 694 l 249 694 l 165 301 l 456 574 q 581 677 540 652 q 659 703 622 703 q 693 700 682 703 l 681 644 l 669 646 q 622 633 647 646 q 564 595 597 621 q 358 412 531 570 l 587 0 l 514 0 l 313 371 l 146 214 l 102 0 l 39 0 l 186 694 z "},"λ":{"ha":692,"x_min":-47,"x_max":589,"o":"m 415 699 l 393 840 q 356 945 382 915 q 279 975 330 975 q 214 966 254 975 l 228 1026 q 293 1032 265 1032 q 405 991 367 1032 q 458 850 442 951 l 589 0 l 522 0 l 433 623 l 26 0 l -47 0 l 415 699 z "},"μ":{"ha":766,"x_min":-37,"x_max":710,"o":"m 180 694 l 243 694 l 161 296 q 143 180 143 204 q 262 40 143 40 q 390 92 319 40 q 511 219 461 143 q 578 371 562 294 l 647 694 l 710 694 l 602 187 q 591 100 591 138 q 604 62 591 76 q 644 49 618 49 q 694 56 673 49 l 682 1 q 617 -8 654 -8 q 551 15 574 -8 q 528 80 528 39 q 543 197 528 108 l 541 197 q 250 -17 408 -17 q 110 66 147 -17 l 25 -326 l -37 -326 l 180 694 z "},"ν":{"ha":730,"x_min":96,"x_max":713,"o":"m 96 694 l 161 694 l 285 64 q 644 668 644 422 l 643 694 l 713 694 q 664 481 713 593 q 523 243 616 369 q 307 0 429 118 l 232 0 l 96 694 z "},"ξ":{"ha":618,"x_min":45,"x_max":682,"o":"m 397 -210 q 442 -157 427 -184 q 457 -106 457 -130 q 418 -36 457 -60 q 262 12 379 -12 q 97 90 148 37 q 45 241 45 142 q 90 380 45 310 q 212 501 135 450 q 378 568 290 551 q 271 630 312 584 q 229 733 229 676 q 303 880 229 817 q 511 970 378 943 l 511 974 l 275 971 l 288 1028 l 682 1028 l 669 971 q 296 739 296 901 q 347 638 296 682 q 477 583 397 595 l 565 586 l 553 525 l 492 528 q 224 442 336 528 q 111 241 111 357 q 153 130 111 168 q 291 70 195 92 q 442 24 405 43 q 500 -23 479 5 q 521 -94 521 -51 q 504 -158 521 -123 q 463 -210 486 -193 l 397 -210 z "},"ο":{"ha":720,"x_min":56,"x_max":664,"o":"m 298 -17 q 120 54 184 -17 q 56 252 56 125 q 105 485 56 378 q 238 652 154 592 q 422 711 322 711 q 601 640 538 711 q 664 444 664 568 q 616 210 664 316 q 485 43 569 103 q 298 -17 401 -17 m 304 40 q 452 91 385 40 q 559 234 520 142 q 599 437 599 326 q 551 599 599 544 q 415 654 503 654 q 268 603 336 654 q 160 459 199 551 q 121 257 121 368 q 170 97 121 155 q 304 40 219 40 z "},"ρ":{"ha":768,"x_min":-18,"x_max":713,"o":"m 479 711 q 648 636 583 711 q 713 440 713 561 q 666 208 713 313 q 537 43 620 102 q 354 -17 454 -17 q 136 92 212 -17 l 133 92 l 44 -326 l -18 -326 l 129 363 q 251 625 166 538 q 479 711 336 711 m 149 167 q 235 75 179 110 q 354 40 290 40 q 501 92 434 40 q 607 234 568 143 q 645 432 645 324 q 597 596 645 537 q 468 654 549 654 q 191 366 247 654 l 149 167 z "},"ς":{"ha":610,"x_min":38,"x_max":587,"o":"m 395 -210 q 440 -157 425 -184 q 456 -106 456 -130 q 438 -51 456 -71 q 379 -15 420 -31 q 261 19 338 1 q 94 107 149 44 q 38 279 38 170 q 89 496 38 396 q 231 654 140 596 q 425 711 322 711 q 510 701 472 711 q 587 664 548 690 l 571 595 q 419 654 511 654 q 263 606 336 654 q 148 473 190 557 q 106 290 106 389 q 122 190 106 229 q 175 128 139 152 q 292 79 210 104 l 378 53 q 486 -5 452 31 q 519 -94 519 -40 q 502 -158 519 -123 q 461 -210 485 -193 l 395 -210 z "},"υ":{"ha":783,"x_min":89,"x_max":706,"o":"m 161 599 q 118 640 161 640 l 93 638 l 104 692 q 140 694 117 694 q 227 625 227 694 q 205 497 227 596 l 165 310 q 153 214 153 254 q 336 40 153 40 q 557 161 475 40 q 640 492 640 283 q 614 694 640 595 l 681 694 q 706 494 706 604 q 660 224 706 341 q 529 45 614 108 q 332 -17 444 -17 q 149 41 209 -17 q 89 205 89 99 q 100 297 89 250 l 138 475 q 161 599 161 582 z "},"χ":{"ha":747,"x_min":-111,"x_max":746,"o":"m 318 240 l 249 536 q 216 626 235 598 q 167 654 197 654 q 134 648 151 654 l 146 707 q 183 711 158 711 q 261 682 233 711 q 304 582 290 652 l 367 300 l 669 694 l 746 694 l 389 232 l 479 -147 q 514 -236 493 -204 q 572 -268 534 -268 q 610 -262 589 -268 l 597 -321 q 551 -325 576 -325 q 465 -279 498 -325 q 407 -122 432 -233 l 340 172 l -35 -317 l -111 -317 l 318 240 z "},"ψ":{"ha":1042,"x_min":87,"x_max":1006,"o":"m 404 -17 l 375 -17 q 165 58 243 -17 q 87 261 87 132 q 100 372 87 318 l 170 694 l 235 694 l 165 372 q 153 269 153 313 q 213 101 153 162 q 378 40 273 40 l 416 40 l 600 903 l 663 903 l 479 40 l 518 40 q 744 127 652 40 q 871 372 837 215 l 940 694 l 1006 694 l 937 374 q 789 84 898 186 q 517 -17 680 -17 l 467 -17 l 401 -326 l 339 -326 l 404 -17 z "},"ω":{"ha":1095,"x_min":61,"x_max":1024,"o":"m 502 143 q 400 21 458 59 q 267 -17 342 -17 q 115 42 169 -17 q 61 210 61 100 q 101 434 61 325 q 241 694 142 543 l 318 694 q 173 447 220 561 q 126 218 126 333 q 162 86 126 132 q 269 40 197 40 q 421 112 359 40 q 511 322 483 184 l 550 509 l 613 509 l 574 322 q 560 210 560 256 q 600 86 560 132 q 710 40 640 40 q 893 150 829 40 q 956 467 956 260 q 931 694 956 579 l 999 694 q 1024 473 1024 581 q 942 113 1024 243 q 709 -17 859 -17 q 571 26 625 -17 q 505 143 517 69 l 502 143 z "},"ϊ":{"ha":351,"x_min":66,"x_max":405,"o":"m 186 694 l 249 694 l 142 187 q 130 104 130 131 q 145 62 130 76 q 186 47 161 47 q 249 56 223 47 l 237 1 q 179 -8 209 -8 q 95 19 123 -8 q 66 98 66 47 q 79 189 66 128 l 186 694 m 306 854 q 321 888 306 876 q 353 901 336 901 q 389 888 373 901 q 405 854 405 875 q 390 820 405 833 q 355 806 376 806 q 320 819 335 806 q 306 854 306 832 m 79 854 q 94 888 79 876 q 127 901 109 901 q 162 888 146 901 q 178 854 178 875 q 164 820 178 833 q 128 806 149 806 q 94 819 109 806 q 79 854 79 832 z "},"ϋ":{"ha":783,"x_min":89,"x_max":706,"o":"m 161 599 q 118 640 161 640 l 93 638 l 104 692 q 140 694 117 694 q 227 625 227 694 q 205 497 227 596 l 165 310 q 153 214 153 254 q 336 40 153 40 q 557 161 475 40 q 640 492 640 283 q 614 694 640 595 l 681 694 q 706 494 706 604 q 660 224 706 341 q 529 45 614 108 q 332 -17 444 -17 q 149 41 209 -17 q 89 205 89 99 q 100 297 89 250 l 138 475 q 161 599 161 582 m 518 854 q 533 888 518 876 q 566 901 548 901 q 601 888 585 901 q 617 854 617 875 q 603 820 617 833 q 567 806 588 806 q 533 819 547 806 q 518 854 518 832 m 292 854 q 307 888 292 876 q 339 901 321 901 q 375 888 359 901 q 391 854 391 875 q 376 820 391 833 q 340 806 361 806 q 306 819 321 806 q 292 854 292 832 z "},"ό":{"ha":720,"x_min":56,"x_max":664,"o":"m 298 -17 q 120 54 184 -17 q 56 252 56 125 q 105 485 56 378 q 238 652 154 592 q 422 711 322 711 q 601 640 538 711 q 664 444 664 568 q 616 210 664 316 q 485 43 569 103 q 298 -17 401 -17 m 304 40 q 452 91 385 40 q 559 234 520 142 q 599 437 599 326 q 551 599 599 544 q 415 654 503 654 q 268 603 336 654 q 160 459 199 551 q 121 257 121 368 q 170 97 121 155 q 304 40 219 40 m 511 1055 l 582 1055 l 429 805 l 396 805 l 511 1055 z "},"ύ":{"ha":783,"x_min":89,"x_max":706,"o":"m 161 599 q 118 640 161 640 l 93 638 l 104 692 q 140 694 117 694 q 227 625 227 694 q 205 497 227 596 l 165 310 q 153 214 153 254 q 336 40 153 40 q 557 161 475 40 q 640 492 640 283 q 614 694 640 595 l 681 694 q 706 494 706 604 q 660 224 706 341 q 529 45 614 108 q 332 -17 444 -17 q 149 41 209 -17 q 89 205 89 99 q 100 297 89 250 l 138 475 q 161 599 161 582 m 525 1055 l 596 1055 l 444 805 l 410 805 l 525 1055 z "},"ώ":{"ha":1095,"x_min":61,"x_max":1024,"o":"m 502 143 q 400 21 458 59 q 267 -17 342 -17 q 115 42 169 -17 q 61 210 61 100 q 101 434 61 325 q 241 694 142 543 l 318 694 q 173 447 220 561 q 126 218 126 333 q 162 86 126 132 q 269 40 197 40 q 421 112 359 40 q 511 322 483 184 l 550 509 l 613 509 l 574 322 q 560 210 560 256 q 600 86 560 132 q 710 40 640 40 q 893 150 829 40 q 956 467 956 260 q 931 694 956 579 l 999 694 q 1024 473 1024 581 q 942 113 1024 243 q 709 -17 859 -17 q 571 26 625 -17 q 505 143 517 69 l 502 143 m 702 1055 l 773 1055 l 621 805 l 587 805 l 702 1055 z "},"Ё":{"ha":671,"x_min":52,"x_max":711,"o":"m 257 972 l 711 972 l 699 911 l 311 911 l 228 521 l 587 521 l 575 460 l 215 460 l 131 61 l 541 61 l 528 0 l 52 0 l 257 972 m 551 1090 q 566 1124 551 1112 q 599 1137 581 1137 q 634 1124 618 1137 q 650 1090 650 1111 q 636 1056 650 1069 q 600 1042 621 1042 q 566 1055 581 1042 q 551 1090 551 1068 m 325 1090 q 340 1124 325 1112 q 372 1137 355 1137 q 408 1124 392 1137 q 424 1090 424 1111 q 409 1056 424 1069 q 374 1042 395 1042 q 339 1055 354 1042 q 325 1090 325 1068 z "},"Ђ":{"ha":982,"x_min":160,"x_max":886,"o":"m 440 911 l 160 911 l 172 972 l 828 972 l 815 911 l 507 911 l 428 542 l 628 542 q 818 477 749 542 q 886 296 886 412 q 799 72 886 161 q 581 -17 712 -17 q 516 -12 553 -17 q 461 0 479 -6 l 475 68 q 579 46 526 46 q 746 118 679 46 q 812 293 812 189 q 758 432 812 382 q 606 481 703 481 l 415 481 l 314 0 l 248 0 l 440 911 z "},"Ѓ":{"ha":636,"x_min":52,"x_max":714,"o":"m 257 972 l 714 972 l 701 911 l 311 911 l 118 0 l 52 0 l 257 972 m 633 1263 l 708 1263 l 503 1041 l 437 1041 l 633 1263 z "},"Є":{"ha":863,"x_min":103,"x_max":900,"o":"m 647 539 l 633 476 l 176 476 q 172 408 172 444 q 257 140 172 235 q 493 45 342 45 q 753 114 631 45 l 737 39 q 616 -4 668 8 q 488 -17 564 -17 l 484 -17 q 204 94 304 -17 q 103 398 103 205 q 170 701 103 568 q 362 911 237 833 q 640 989 487 989 q 900 924 780 989 l 886 850 q 631 928 784 928 q 342 823 463 928 q 184 539 222 718 l 647 539 z "},"Ѕ":{"ha":690,"x_min":31,"x_max":684,"o":"m 43 111 q 148 63 87 82 q 272 45 208 45 q 443 95 381 45 q 505 235 505 144 q 470 348 505 298 q 350 460 435 398 q 216 589 254 529 q 178 726 178 648 q 266 915 178 842 q 486 989 355 989 q 684 953 585 989 l 669 884 q 479 928 591 928 q 311 874 375 928 q 248 732 248 821 q 278 617 248 664 q 399 505 309 571 q 536 377 497 434 q 575 243 575 321 q 492 53 575 123 q 268 -17 408 -17 q 140 -1 202 -17 q 31 40 77 15 l 43 111 z "},"Ї":{"ha":317,"x_min":52,"x_max":475,"o":"m 257 972 l 323 972 l 118 0 l 52 0 l 257 972 m 376 1090 q 391 1124 376 1112 q 423 1137 406 1137 q 459 1124 443 1137 q 475 1090 475 1111 q 460 1056 475 1069 q 425 1042 446 1042 q 390 1055 405 1042 q 376 1090 376 1068 m 149 1090 q 164 1124 149 1112 q 197 1137 179 1137 q 232 1124 216 1137 q 248 1090 248 1111 q 234 1056 248 1069 q 198 1042 219 1042 q 164 1055 178 1042 q 149 1090 149 1068 z "},"Љ":{"ha":1301,"x_min":-77,"x_max":1210,"o":"m -62 65 q -3 52 -34 52 q 91 89 54 52 q 172 220 129 126 q 286 512 214 313 q 446 972 358 711 l 884 972 l 791 541 l 922 541 q 1132 476 1055 541 q 1210 298 1210 411 q 1117 78 1210 155 q 851 0 1024 0 l 611 0 l 804 909 l 492 909 q 310 394 380 580 q 198 130 240 208 q 111 20 157 53 q -5 -12 65 -12 q -77 -3 -48 -12 l -62 65 m 850 61 q 1139 294 1139 61 q 1081 432 1139 385 q 914 479 1023 479 l 779 479 l 690 61 l 850 61 z "},"Њ":{"ha":1337,"x_min":52,"x_max":1246,"o":"m 257 972 l 323 972 l 232 541 l 733 541 l 825 972 l 892 972 l 800 541 l 958 541 q 1168 476 1090 541 q 1246 298 1246 411 q 1153 78 1246 155 q 888 0 1060 0 l 619 0 l 721 479 l 220 479 l 118 0 l 52 0 l 257 972 m 886 61 q 1175 294 1175 61 q 1118 432 1175 385 q 950 479 1061 479 l 787 479 l 699 61 l 886 61 z "},"Ћ":{"ha":962,"x_min":160,"x_max":865,"o":"m 440 911 l 160 911 l 172 972 l 800 972 l 787 911 l 507 911 l 432 555 l 624 555 q 804 504 743 555 q 865 353 865 452 q 861 304 865 332 q 799 0 857 277 l 732 0 l 786 260 q 798 343 798 313 q 619 494 798 494 l 418 494 l 314 0 l 248 0 l 440 911 z "},"Ќ":{"ha":732,"x_min":52,"x_max":835,"o":"m 257 972 l 323 972 l 227 514 l 229 514 l 242 528 l 745 972 l 835 972 l 292 497 l 642 0 l 558 0 l 241 460 l 224 490 l 221 490 l 118 0 l 52 0 l 257 972 m 640 1272 l 715 1272 l 510 1049 l 444 1049 l 640 1272 z "},"Ў":{"ha":745,"x_min":-17,"x_max":869,"o":"m -1 77 q 94 46 46 46 q 172 61 142 46 q 240 121 203 77 q 345 262 278 165 l 174 972 l 243 972 l 370 422 l 389 334 l 392 334 l 793 972 l 869 972 l 408 256 q 277 68 319 117 q 197 1 235 20 q 94 -17 159 -17 q -17 7 33 -17 l -1 77 m 380 1217 q 422 1113 385 1149 q 526 1076 460 1076 q 640 1112 592 1076 q 711 1217 688 1147 l 781 1217 q 680 1074 746 1123 q 526 1024 613 1024 q 378 1074 433 1024 q 318 1217 324 1124 l 380 1217 z "},"Џ":{"ha":940,"x_min":52,"x_max":947,"o":"m 257 972 l 323 972 l 131 61 l 688 61 l 880 972 l 947 972 l 742 0 l 425 0 l 371 -260 l 306 -260 l 363 0 l 52 0 l 257 972 z "},"А":{"ha":818,"x_min":-57,"x_max":728,"o":"m 507 972 l 570 972 l 728 0 l 660 0 l 611 302 l 193 302 l 14 0 l -57 0 l 507 972 m 603 364 l 533 814 q 526 888 528 849 l 524 888 l 501 843 l 227 364 l 603 364 z "},"Б":{"ha":747,"x_min":52,"x_max":733,"o":"m 257 972 l 733 972 l 721 911 l 310 911 l 232 541 l 390 541 q 600 476 522 541 q 677 298 677 411 q 585 78 677 155 q 319 0 492 0 l 52 0 l 257 972 m 318 61 q 607 294 607 61 q 549 432 607 385 q 382 479 491 479 l 220 479 l 131 61 l 318 61 z "},"В":{"ha":750,"x_min":52,"x_max":718,"o":"m 257 972 l 493 972 q 657 917 596 972 q 718 765 718 861 q 660 590 718 659 q 503 501 602 520 l 503 498 q 619 428 578 481 q 660 296 660 374 q 573 77 660 154 q 326 0 487 0 l 52 0 l 257 972 m 386 534 q 580 594 511 534 q 648 758 648 654 q 603 871 648 832 q 478 911 558 911 l 313 911 l 231 534 l 386 534 m 319 61 q 590 290 590 61 q 531 426 590 378 q 361 473 471 473 l 218 473 l 132 61 l 319 61 z "},"Г":{"ha":636,"x_min":52,"x_max":714,"o":"m 257 972 l 714 972 l 701 911 l 311 911 l 118 0 l 52 0 l 257 972 z "},"Д":{"ha":958,"x_min":-83,"x_max":909,"o":"m -17 61 l 57 61 q 234 254 163 145 q 364 528 306 363 q 485 972 422 692 l 909 972 l 717 61 l 860 61 l 793 -253 l 728 -253 l 782 0 l 35 0 l -18 -253 l -83 -253 l -17 61 m 650 61 l 831 911 l 539 911 q 364 366 459 574 q 149 61 269 157 l 650 61 z "},"Е":{"ha":671,"x_min":52,"x_max":711,"o":"m 257 972 l 711 972 l 699 911 l 311 911 l 228 521 l 587 521 l 575 460 l 215 460 l 131 61 l 541 61 l 528 0 l 52 0 l 257 972 z "},"Ж":{"ha":1067,"x_min":-77,"x_max":1169,"o":"m 460 505 l 164 972 l 243 972 l 515 533 l 528 510 l 530 510 l 629 972 l 696 972 l 599 514 l 602 514 q 1082 972 606 520 l 1169 972 l 667 497 l 983 0 l 896 0 l 610 468 l 597 490 l 595 490 l 490 0 l 424 0 l 526 488 l 524 488 l 508 471 l 18 0 l -77 0 l 460 505 z "},"З":{"ha":693,"x_min":-24,"x_max":685,"o":"m -7 119 q 121 65 45 86 q 262 44 198 44 q 463 106 391 44 q 535 277 535 168 q 292 473 535 473 l 203 473 l 216 534 l 300 534 q 616 770 616 534 q 570 886 616 844 q 446 928 524 928 q 331 911 395 928 q 204 861 267 895 l 216 935 q 331 974 268 960 q 452 989 395 989 q 623 931 562 989 q 685 775 685 873 q 619 598 685 671 q 435 503 553 525 l 435 500 q 557 425 511 485 q 603 282 603 365 q 509 64 603 145 q 256 -17 414 -17 q -24 52 113 -17 l -7 119 z "},"И":{"ha":985,"x_min":52,"x_max":991,"o":"m 257 972 l 323 972 l 163 212 q 142 131 157 184 l 144 131 l 254 250 l 935 972 l 991 972 l 786 0 l 720 0 l 880 761 l 900 847 l 897 847 l 844 786 l 104 0 l 52 0 l 257 972 z "},"Й":{"ha":985,"x_min":52,"x_max":991,"o":"m 257 972 l 323 972 l 163 212 q 142 131 157 184 l 144 131 l 254 250 l 935 972 l 991 972 l 786 0 l 720 0 l 880 761 l 900 847 l 897 847 l 844 786 l 104 0 l 52 0 l 257 972 m 492 1217 q 533 1113 496 1149 q 637 1076 571 1076 q 751 1112 703 1076 q 822 1217 800 1147 l 892 1217 q 791 1074 857 1123 q 637 1024 724 1024 q 490 1074 544 1024 q 429 1217 435 1124 l 492 1217 z "},"К":{"ha":732,"x_min":52,"x_max":835,"o":"m 257 972 l 323 972 l 227 514 l 229 514 l 242 528 l 745 972 l 835 972 l 292 497 l 642 0 l 558 0 l 241 460 l 224 490 l 221 490 l 118 0 l 52 0 l 257 972 z "},"Л":{"ha":876,"x_min":-77,"x_max":884,"o":"m -62 65 q -3 52 -34 52 q 107 109 62 52 q 225 348 153 165 q 446 972 297 530 l 884 972 l 677 0 l 611 0 l 804 909 l 492 909 q 285 328 350 492 q 180 103 220 163 q 98 15 140 43 q -5 -12 56 -12 q -77 -3 -48 -12 l -62 65 z "},"М":{"ha":1157,"x_min":52,"x_max":1164,"o":"m 257 972 l 314 972 l 530 435 q 558 348 549 388 l 562 348 l 619 420 l 1099 972 l 1164 972 l 956 0 l 893 0 l 1051 743 l 1078 860 l 1076 860 q 1031 798 1052 821 l 556 254 l 534 254 l 315 793 q 296 859 302 825 l 294 859 q 284 794 291 836 q 117 0 277 753 l 52 0 l 257 972 z "},"Н":{"ha":940,"x_min":52,"x_max":947,"o":"m 257 972 l 323 972 l 229 528 l 786 528 l 880 972 l 947 972 l 742 0 l 675 0 l 774 467 l 216 467 l 118 0 l 52 0 l 257 972 z "},"О":{"ha":1047,"x_min":103,"x_max":1010,"o":"m 492 -17 q 207 97 310 -17 q 103 403 103 210 q 171 701 103 566 q 358 912 239 836 q 625 989 477 989 q 905 874 800 989 q 1010 574 1010 759 q 944 273 1010 410 q 761 59 879 136 q 492 -17 642 -17 m 494 45 q 726 110 627 45 q 883 297 826 175 q 940 570 940 419 q 855 830 940 733 q 624 928 770 928 q 390 862 494 928 q 230 676 287 795 q 172 404 172 556 q 257 141 172 237 q 494 45 342 45 z "},"П":{"ha":961,"x_min":52,"x_max":968,"o":"m 257 972 l 968 972 l 762 0 l 696 0 l 889 911 l 311 911 l 118 0 l 52 0 l 257 972 z "},"Р":{"ha":755,"x_min":52,"x_max":750,"o":"m 257 972 l 469 972 q 676 906 602 972 q 750 720 750 840 q 651 478 750 566 q 382 390 551 390 l 201 390 l 118 0 l 52 0 l 257 972 m 386 452 q 604 519 528 452 q 681 714 681 587 q 624 860 681 808 q 456 911 567 911 l 311 911 l 214 452 l 386 452 z "},"С":{"ha":878,"x_min":103,"x_max":900,"o":"m 484 -17 q 204 94 304 -17 q 103 398 103 205 q 170 701 103 568 q 362 911 237 833 q 640 989 487 989 q 900 924 780 989 l 886 850 q 631 928 784 928 q 394 861 500 928 q 231 673 289 793 q 172 408 172 553 q 257 140 172 235 q 493 45 342 45 q 753 114 631 45 l 737 39 q 616 -4 668 8 q 488 -17 564 -17 l 484 -17 z "},"Т":{"ha":710,"x_min":160,"x_max":800,"o":"m 440 911 l 160 911 l 172 972 l 800 972 l 787 911 l 507 911 l 314 0 l 248 0 l 440 911 z "},"У":{"ha":745,"x_min":-17,"x_max":869,"o":"m -1 77 q 94 46 46 46 q 172 61 142 46 q 240 121 203 77 q 345 262 278 165 l 174 972 l 243 972 l 370 422 l 389 334 l 392 334 l 793 972 l 869 972 l 408 256 q 277 68 319 117 q 197 1 235 20 q 94 -17 159 -17 q -17 7 33 -17 l -1 77 z "},"Ф":{"ha":1067,"x_min":97,"x_max":1023,"o":"m 449 134 l 403 134 q 180 217 262 134 q 97 444 97 301 q 152 666 97 567 q 306 821 207 766 q 525 876 405 876 l 606 876 l 629 983 l 696 983 l 672 876 l 718 876 q 940 791 857 876 q 1023 566 1023 707 q 968 343 1023 443 q 815 189 913 244 q 596 134 718 134 l 515 134 l 485 -11 l 418 -11 l 449 134 m 600 195 q 856 296 758 195 q 954 559 954 398 q 890 749 954 683 q 708 815 827 815 l 660 815 l 528 195 l 600 195 m 461 195 l 593 815 l 521 815 q 265 716 363 815 q 167 450 167 616 q 230 261 167 328 q 412 195 293 195 l 461 195 z "},"Х":{"ha":782,"x_min":-39,"x_max":865,"o":"m -39 0 l 379 493 l 196 972 l 272 972 l 407 607 l 429 539 l 432 539 q 455 572 443 555 q 785 972 467 589 l 865 972 l 467 492 l 653 0 l 576 0 l 437 371 l 415 443 l 412 443 q 358 371 399 420 l 49 0 l -39 0 z "},"Ц":{"ha":974,"x_min":52,"x_max":947,"o":"m 257 972 l 323 972 l 131 61 l 688 61 l 880 972 l 947 972 l 754 61 l 878 61 l 811 -253 l 746 -253 l 800 0 l 52 0 l 257 972 z "},"Ч":{"ha":851,"x_min":158,"x_max":859,"o":"m 684 458 q 374 367 494 367 q 158 542 158 367 q 163 593 158 564 l 243 972 l 310 972 l 233 614 q 225 545 225 576 q 263 458 225 489 q 376 428 300 428 q 533 453 455 428 q 696 517 611 478 l 791 972 l 859 972 l 653 0 l 586 0 l 684 458 z "},"Ш":{"ha":1204,"x_min":52,"x_max":1211,"o":"m 257 972 l 323 972 l 131 61 l 505 61 l 699 972 l 766 972 l 574 61 l 950 61 l 1143 972 l 1211 972 l 1006 0 l 52 0 l 257 972 z "},"Щ":{"ha":1238,"x_min":52,"x_max":1211,"o":"m 257 972 l 323 972 l 131 61 l 505 61 l 699 972 l 766 972 l 574 61 l 950 61 l 1143 972 l 1211 972 l 1018 61 l 1141 61 l 1075 -253 l 1010 -253 l 1064 0 l 52 0 l 257 972 z "},"Ъ":{"ha":965,"x_min":161,"x_max":875,"o":"m 441 911 l 161 911 l 174 972 l 521 972 l 429 541 l 587 541 q 797 476 720 541 q 875 298 875 411 q 782 78 875 155 q 517 0 689 0 l 249 0 l 441 911 m 515 61 q 804 294 804 61 q 747 432 804 384 q 579 479 690 479 l 416 479 l 328 61 l 515 61 z "},"Ы":{"ha":1019,"x_min":52,"x_max":1026,"o":"m 960 972 l 1026 972 l 821 0 l 754 0 l 960 972 m 257 972 l 323 972 l 232 541 l 363 541 q 573 475 496 541 q 650 298 650 409 q 557 78 650 155 q 292 0 464 0 l 52 0 l 257 972 m 290 61 q 579 294 579 61 q 521 432 579 385 q 354 479 463 479 l 220 479 l 131 61 l 290 61 z "},"Ь":{"ha":770,"x_min":52,"x_max":677,"o":"m 257 972 l 323 972 l 232 541 l 390 541 q 600 476 522 541 q 677 298 677 411 q 585 78 677 155 q 319 0 492 0 l 52 0 l 257 972 m 318 61 q 607 294 607 61 q 549 432 607 385 q 382 479 491 479 l 220 479 l 131 61 l 318 61 z "},"Э":{"ha":864,"x_min":22,"x_max":827,"o":"m 39 103 q 267 45 145 45 q 570 160 439 45 q 737 456 702 275 l 271 456 l 285 518 l 747 518 q 754 602 754 562 q 666 839 754 750 q 425 928 577 928 q 191 875 303 928 l 205 949 q 431 989 305 989 q 720 885 613 989 q 827 607 827 782 q 755 288 827 430 q 555 64 684 145 q 264 -17 425 -17 q 22 31 113 -17 l 39 103 z "},"Ю":{"ha":1301,"x_min":52,"x_max":1264,"o":"m 257 972 l 323 972 l 232 536 l 437 536 q 600 864 472 739 q 901 989 727 989 q 1168 877 1072 989 q 1264 574 1264 765 q 1202 271 1264 406 q 1029 59 1139 135 q 786 -17 918 -17 q 523 94 619 -17 q 427 403 427 204 l 429 475 l 218 475 l 118 0 l 52 0 l 257 972 m 789 45 q 997 111 903 45 q 1142 297 1090 177 q 1194 570 1194 418 q 1116 831 1194 734 q 907 928 1038 928 q 695 861 790 928 q 548 675 601 795 q 496 404 496 555 q 573 139 496 233 q 789 45 650 45 z "},"Я":{"ha":771,"x_min":-29,"x_max":778,"o":"m 343 452 q 222 528 274 464 q 170 669 170 591 l 170 676 l 170 683 q 264 892 170 811 q 517 972 359 972 l 522 972 l 778 972 l 572 0 l 505 0 l 597 433 l 463 433 q 348 401 395 433 q 241 282 300 368 l 52 0 l -29 0 l 182 307 q 342 449 254 412 l 343 452 m 610 494 l 699 911 l 522 911 q 315 848 390 911 q 240 676 240 785 q 297 545 240 595 q 447 494 354 494 l 610 494 z "},"а":{"ha":726,"x_min":56,"x_max":686,"o":"m 501 0 q 530 222 504 75 l 528 222 q 397 44 465 106 q 248 -17 329 -17 q 105 48 155 -17 q 56 231 56 113 q 111 477 56 366 q 262 649 165 587 q 475 711 359 711 q 686 686 563 711 l 596 249 q 576 120 586 197 q 566 0 566 43 l 501 0 m 614 639 q 469 654 542 654 q 292 602 372 654 q 166 453 212 549 q 121 237 121 357 q 260 40 121 40 q 378 94 315 40 q 495 243 441 148 q 572 439 550 338 l 614 639 z "},"б":{"ha":734,"x_min":77,"x_max":768,"o":"m 172 549 q 450 694 281 694 q 617 623 555 694 q 679 431 679 551 q 632 201 679 304 q 503 41 586 98 q 319 -17 420 -17 q 77 276 77 -17 q 126 622 77 444 q 235 875 175 799 q 404 983 296 951 q 768 1025 513 1015 l 753 958 q 504 948 562 955 q 409 930 446 942 q 344 900 372 919 q 290 850 315 881 q 241 771 264 820 q 197 660 218 722 q 168 549 176 597 l 172 549 m 142 271 q 324 40 142 40 q 533 147 452 40 q 614 423 614 254 q 568 582 614 528 q 437 635 523 635 q 284 588 355 635 q 157 452 212 542 q 142 271 142 381 z "},"в":{"ha":671,"x_min":56,"x_max":636,"o":"m 447 366 q 559 323 519 361 q 600 220 600 286 q 562 99 600 154 q 455 13 524 43 q 300 -17 387 -17 q 115 42 175 -17 q 56 225 56 101 q 159 572 56 433 q 444 711 263 711 q 584 671 532 711 q 636 558 636 630 q 588 430 636 480 q 447 366 539 380 m 138 375 q 405 400 319 382 q 530 454 490 418 q 570 547 570 489 q 535 626 570 598 q 436 654 500 654 q 248 583 325 654 q 138 375 171 512 m 121 222 q 167 84 121 128 q 308 40 214 40 q 470 89 407 40 q 534 212 534 138 q 491 301 534 272 q 358 330 449 330 q 301 329 334 330 q 236 327 269 328 q 174 323 203 325 q 130 321 145 321 q 121 222 121 281 z "},"г":{"ha":539,"x_min":17,"x_max":521,"o":"m 228 -17 q 73 28 130 -17 q 17 150 17 73 q 65 270 17 225 q 267 375 113 315 q 416 453 375 416 q 457 549 457 489 q 420 626 457 598 q 317 654 384 654 q 220 640 271 654 q 131 604 170 626 l 147 675 q 222 700 173 689 q 319 711 272 711 q 467 667 413 711 q 521 550 521 623 q 470 426 521 477 q 289 325 419 375 q 151 264 190 287 q 96 216 111 241 q 81 151 81 191 q 123 71 81 102 q 232 40 166 40 q 433 106 336 40 l 415 28 q 332 -4 382 8 q 228 -17 283 -17 z "},"д":{"ha":728,"x_min":56,"x_max":705,"o":"m 440 1028 q 637 944 570 1028 q 705 696 705 860 q 651 326 705 490 q 501 73 597 162 q 283 -17 404 -17 q 119 57 182 -17 q 56 253 56 130 q 104 477 56 375 q 238 637 153 579 q 422 696 323 696 q 547 660 488 696 q 634 571 606 623 l 637 571 q 641 623 638 578 q 643 695 643 667 q 432 971 643 971 q 337 957 389 971 q 252 923 284 943 l 267 992 q 340 1017 290 1006 q 440 1028 390 1028 m 625 487 q 540 597 599 555 q 416 639 481 639 q 268 589 336 639 q 160 451 199 539 q 121 256 121 363 q 167 99 121 157 q 289 40 214 40 q 440 94 370 40 q 559 250 511 149 q 625 487 607 352 z "},"е":{"ha":648,"x_min":56,"x_max":621,"o":"m 121 268 q 175 101 121 161 q 329 40 230 40 q 519 97 416 40 l 507 32 q 319 -17 418 -17 q 125 59 194 -17 q 56 273 56 136 q 106 495 56 394 q 242 653 157 595 q 422 711 327 711 q 566 667 511 711 q 621 545 621 622 q 503 370 621 425 q 122 310 385 314 l 121 268 m 131 367 q 452 407 348 367 q 555 538 555 447 q 412 654 555 654 q 234 574 311 654 q 131 367 156 494 z "},"ж":{"ha":924,"x_min":-58,"x_max":974,"o":"m 370 357 l 107 694 l 180 694 l 432 363 l 435 363 l 505 694 l 568 694 l 497 363 l 500 363 l 893 694 l 974 694 l 559 353 l 831 0 l 750 0 l 496 340 l 493 340 l 421 0 l 358 0 l 431 340 l 428 340 l 29 0 l -58 0 l 370 357 z "},"з":{"ha":602,"x_min":0,"x_max":553,"o":"m 12 110 q 244 40 123 40 q 395 82 341 40 q 449 200 449 123 q 401 299 449 268 q 256 330 353 330 l 157 330 l 170 387 l 256 387 q 426 428 366 387 q 486 542 486 468 q 330 654 486 654 q 100 589 221 654 l 114 660 q 334 711 218 711 q 496 666 439 711 q 553 543 553 621 q 375 363 553 395 l 375 359 q 476 306 437 350 q 515 203 515 262 q 439 45 515 106 q 240 -17 363 -17 q 111 0 183 -17 q 0 40 38 17 l 12 110 z "},"и":{"ha":749,"x_min":78,"x_max":710,"o":"m 180 694 l 243 694 l 161 296 q 143 180 143 204 q 262 40 143 40 q 388 91 320 40 q 510 222 456 142 q 578 371 564 302 l 647 694 l 710 694 l 603 193 q 572 0 579 78 l 510 0 l 543 197 l 541 197 q 250 -17 408 -17 q 78 174 78 -17 q 82 220 78 187 q 180 694 87 252 z "},"й":{"ha":749,"x_min":78,"x_max":716,"o":"m 180 694 l 243 694 l 161 296 q 143 180 143 204 q 262 40 143 40 q 388 91 320 40 q 510 222 456 142 q 578 371 564 302 l 647 694 l 710 694 l 603 193 q 572 0 579 78 l 510 0 l 543 197 l 541 197 q 250 -17 408 -17 q 78 174 78 -17 q 82 220 78 187 q 180 694 87 252 m 316 981 q 358 876 320 913 q 462 839 395 839 q 576 875 528 839 q 646 981 624 911 l 716 981 q 615 837 682 886 q 461 787 549 787 q 314 837 368 787 q 254 981 260 887 l 316 981 z "},"к":{"ha":604,"x_min":39,"x_max":657,"o":"m 186 694 l 249 694 l 179 367 l 182 367 l 568 694 l 657 694 l 249 354 l 522 0 l 443 0 l 179 351 l 176 351 l 102 0 l 39 0 l 186 694 z "},"л":{"ha":679,"x_min":-69,"x_max":643,"o":"m -58 52 q -21 46 -43 46 q 93 99 45 46 q 190 279 140 153 q 322 694 240 406 l 643 694 l 496 0 l 433 0 l 568 637 l 366 637 q 221 201 270 310 q 115 41 172 92 q -20 -9 58 -9 q -69 -4 -52 -9 l -58 52 z "},"м":{"ha":895,"x_min":39,"x_max":859,"o":"m 186 694 l 261 694 l 367 207 q 391 77 382 138 l 420 131 l 463 204 l 770 694 l 859 694 l 712 0 l 651 0 l 778 604 l 400 0 l 350 0 l 247 472 l 225 604 l 98 0 l 39 0 l 186 694 z "},"н":{"ha":757,"x_min":39,"x_max":721,"o":"m 186 694 l 249 694 l 183 389 l 593 389 l 659 694 l 721 694 l 574 0 l 511 0 l 581 332 l 171 332 l 102 0 l 39 0 l 186 694 z "},"о":{"ha":720,"x_min":56,"x_max":664,"o":"m 298 -17 q 120 54 184 -17 q 56 252 56 125 q 105 485 56 378 q 238 652 154 592 q 422 711 322 711 q 601 640 538 711 q 664 444 664 568 q 616 210 664 316 q 485 43 569 103 q 298 -17 401 -17 m 304 40 q 452 91 385 40 q 559 234 520 142 q 599 437 599 326 q 551 599 599 544 q 415 654 503 654 q 268 603 336 654 q 160 459 199 551 q 121 257 121 368 q 170 97 121 155 q 304 40 219 40 z "},"п":{"ha":749,"x_min":39,"x_max":671,"o":"m 176 694 l 239 694 l 205 497 l 208 497 q 498 711 340 711 q 629 666 587 711 q 671 525 671 621 q 665 470 671 503 q 568 0 660 437 l 505 0 l 587 399 q 606 514 606 490 q 486 654 606 654 q 365 607 433 654 q 242 484 296 559 q 171 323 189 408 l 102 0 l 39 0 l 146 501 q 176 694 170 616 z "},"р":{"ha":726,"x_min":-29,"x_max":671,"o":"m 163 694 l 227 694 q 213 572 223 644 q 197 472 203 499 l 200 472 q 333 651 264 590 q 482 711 402 711 q 623 648 575 711 q 671 463 671 584 q 615 217 671 327 q 464 45 560 108 q 252 -17 368 -17 q 106 11 177 -17 l 33 -326 l -29 -326 l 140 475 q 154 580 146 500 q 163 694 163 660 m 117 69 q 261 40 178 40 q 436 94 356 40 q 561 242 516 147 q 606 452 606 336 q 572 603 606 552 q 465 654 538 654 q 346 598 413 654 q 228 448 279 541 q 155 256 176 355 l 117 69 z "},"с":{"ha":568,"x_min":56,"x_max":587,"o":"m 297 -17 q 121 57 186 -17 q 56 258 56 130 q 104 490 56 385 q 239 653 153 594 q 425 711 324 711 q 510 701 472 711 q 587 664 548 690 l 571 595 q 419 654 511 654 q 267 603 337 654 q 157 460 197 551 q 118 261 118 370 q 167 99 118 158 q 304 40 216 40 q 390 58 349 40 q 481 113 431 75 l 464 35 q 376 -6 412 5 q 297 -17 339 -17 z "},"т":{"ha":1156,"x_min":39,"x_max":1078,"o":"m 176 694 l 239 694 l 205 497 l 208 497 q 485 711 342 711 q 604 661 567 711 q 640 497 640 610 q 777 656 704 601 q 922 711 850 711 q 1078 526 1078 711 q 1059 389 1078 481 l 977 0 l 914 0 l 996 399 q 1014 526 1014 494 q 909 654 1014 654 q 792 605 856 654 q 675 477 728 556 q 608 326 623 398 l 539 0 l 476 0 l 558 399 q 576 514 576 486 q 553 618 576 582 q 472 654 530 654 q 351 602 417 654 q 235 472 285 549 q 171 323 186 394 l 102 0 l 39 0 l 146 501 q 176 694 170 616 z "},"у":{"ha":629,"x_min":-114,"x_max":708,"o":"m -100 -252 q -50 -264 -79 -264 q 36 -236 -3 -264 q 121 -136 75 -208 l 212 9 l 90 694 l 154 694 l 253 132 l 258 81 l 261 81 l 268 92 l 635 694 l 708 694 l 196 -129 q 73 -283 126 -241 q -54 -326 20 -326 q -114 -315 -93 -326 l -100 -252 z "},"ф":{"ha":1067,"x_min":56,"x_max":1012,"o":"m 209 -262 q 252 -271 229 -271 q 353 -218 314 -271 q 418 -52 393 -165 l 439 41 q 256 -17 350 -17 q 112 53 168 -17 q 56 237 56 123 q 101 478 56 370 q 228 649 146 587 q 406 711 309 711 q 570 654 517 711 l 604 810 q 681 972 627 916 q 813 1028 735 1028 q 869 1021 842 1028 l 865 964 q 820 972 848 972 q 722 932 762 972 q 665 810 682 891 l 631 653 q 814 711 713 711 q 959 642 905 711 q 1012 457 1012 573 q 966 216 1012 325 q 840 45 921 106 q 665 -17 759 -17 q 500 40 553 -17 l 481 -47 q 394 -259 449 -191 q 252 -326 338 -326 q 203 -318 227 -326 l 209 -262 m 514 107 q 577 58 536 76 q 662 40 618 40 q 807 92 742 40 q 910 239 873 144 q 947 452 947 334 q 910 601 947 547 q 806 654 873 654 q 617 587 701 654 l 514 107 m 553 587 q 496 635 537 616 q 409 654 455 654 q 261 602 328 654 q 158 455 195 550 q 121 243 121 360 q 160 96 121 151 q 264 40 199 40 q 450 107 366 40 l 553 587 z "},"х":{"ha":599,"x_min":-45,"x_max":643,"o":"m 262 342 l 107 694 l 176 694 l 279 446 l 302 383 l 306 383 l 340 429 l 566 694 l 643 694 l 329 338 l 486 0 l 412 0 l 313 236 l 289 296 l 286 296 l 252 251 l 37 0 l -45 0 l 262 342 z "},"ц":{"ha":772,"x_min":78,"x_max":710,"o":"m 602 0 q 525 66 525 0 q 543 197 525 117 l 541 197 q 397 33 469 83 q 250 -17 326 -17 q 78 174 78 -17 q 82 220 78 187 q 180 694 87 252 l 243 694 l 161 296 q 143 180 143 204 q 262 40 143 40 q 390 94 317 40 q 512 222 463 147 q 578 371 562 296 l 647 694 l 710 694 l 615 249 q 591 100 591 140 q 644 57 591 57 q 676 60 665 57 l 596 -253 l 528 -253 l 602 0 z "},"ч":{"ha":717,"x_min":111,"x_max":681,"o":"m 545 350 q 294 254 416 254 q 160 300 208 254 q 111 419 111 345 q 113 456 111 437 q 163 694 115 475 l 225 694 l 183 498 q 174 425 174 451 q 205 342 174 374 q 304 311 236 311 q 426 333 370 311 q 554 404 481 355 l 618 694 l 681 694 l 533 0 l 471 0 l 545 350 z "},"ш":{"ha":1156,"x_min":78,"x_max":1117,"o":"m 179 694 l 241 694 l 160 296 q 142 180 142 201 q 167 74 142 108 q 245 40 192 40 q 360 87 296 40 q 478 215 424 134 q 547 368 532 296 l 616 694 l 679 694 l 597 296 q 579 180 579 201 q 605 74 579 107 q 684 40 630 40 q 802 89 738 40 q 917 217 865 138 q 985 371 968 296 l 1054 694 l 1117 694 l 1010 193 q 979 0 986 78 l 917 0 l 950 197 l 947 197 q 671 -17 814 -17 q 551 32 587 -17 q 515 197 515 81 q 378 38 452 94 q 233 -17 305 -17 q 78 174 78 -17 q 97 306 78 214 l 179 694 z "},"щ":{"ha":1179,"x_min":78,"x_max":1117,"o":"m 179 694 l 241 694 l 160 296 q 142 180 142 201 q 165 76 142 113 q 245 40 189 40 q 360 87 296 40 q 478 215 424 134 q 547 368 532 296 l 616 694 l 679 694 l 597 296 q 579 180 579 201 q 603 76 579 113 q 684 40 626 40 q 802 89 738 40 q 917 217 865 138 q 985 371 968 296 l 1054 694 l 1117 694 l 1010 193 q 999 100 999 146 q 1051 57 999 57 q 1083 60 1072 57 l 1002 -253 l 933 -253 l 1008 0 q 932 66 932 0 q 950 197 932 108 l 947 197 q 671 -17 814 -17 q 551 32 587 -17 q 515 197 515 81 q 378 38 452 94 q 233 -17 305 -17 q 78 174 78 -17 q 97 306 78 214 l 179 694 z "},"ъ":{"ha":800,"x_min":69,"x_max":720,"o":"m 82 694 l 362 694 l 297 385 q 503 420 402 420 q 665 371 610 420 q 720 233 720 321 q 641 53 720 122 q 429 -17 561 -17 q 259 29 313 -17 q 205 175 205 75 q 230 367 205 248 l 288 637 l 69 637 l 82 694 m 269 184 q 306 73 269 106 q 433 40 343 40 q 592 92 530 40 q 655 222 655 144 q 494 365 655 365 q 286 330 400 365 q 269 184 269 244 z "},"ы":{"ha":887,"x_min":74,"x_max":851,"o":"m 789 694 l 851 694 l 704 0 l 642 0 l 789 694 m 168 694 l 231 694 l 165 385 q 359 420 262 420 q 509 372 456 420 q 562 233 562 323 q 486 54 562 124 q 286 -17 410 -17 q 125 29 176 -17 q 74 175 74 75 q 98 367 74 252 l 168 694 m 137 184 q 173 73 137 106 q 290 40 209 40 q 438 91 380 40 q 496 222 496 142 q 347 365 496 365 q 153 330 260 365 q 137 184 137 246 z "}}}
